0
SECTION
2
TABLES
0
TABLE
2
LAYER
70
0
0
LAYER
2
LAYER_NAME
70
0
62
1
6
CONTINUOUS
0
ENDTAB
0
ENDSEC
 0
SECTION
 2
ENTITIES
 0
LINE
 8
TOOL_0
 5
1
 10
0.8071
 20
0.0001
 30
0
 11
0.7283
 21
0.0001
 31
0
 0 0
LINE
 8
TOOL_0
 5
2
 10
0.7283
 20
0.0001
 30
0
 11
0.6496
 21
0.0001
 31
0
 0 0
LINE
 8
TOOL_0
 5
3
 10
0.6496
 20
0.0001
 30
0
 11
0.5709
 21
0.0001
 31
0
 0 0
LINE
 8
TOOL_0
 5
4
 10
0.5709
 20
0.0001
 30
0
 11
0.4921
 21
0.0001
 31
0
 0 0
LINE
 8
TOOL_0
 5
5
 10
0.4921
 20
0.0001
 30
0
 11
0.4134
 21
0.0001
 31
0
 0 0
LINE
 8
TOOL_0
 5
6
 10
0.4134
 20
0.0001
 30
0
 11
0.3346
 21
0.0001
 31
0
 0 0
LINE
 8
TOOL_0
 5
7
 10
0.3346
 20
0.0001
 30
0
 11
0.2559
 21
0.0001
 31
0
 0 0
LINE
 8
TOOL_0
 5
8
 10
0.2559
 20
0.0001
 30
0
 11
0.1772
 21
0.0001
 31
0
 0 0
LINE
 8
TOOL_0
 5
9
 10
0.1772
 20
0.0001
 30
0
 11
0.0984
 21
0.0001
 31
0
 0 0
LINE
 8
TOOL_0
 5
A
 10
0.0984
 20
0.0001
 30
0
 11
0.0197
 21
0.0001
 31
0
 0 0
LINE
 8
TOOL_0
 5
B
 10
0.0197
 20
0.0001
 30
0
 11
0
 21
0.0001
 31
0
 0 0
LINE
 8
TOOL_0
 5
C
 10
0
 20
0.0001
 30
0
 11
0
 21
0.0126
 31
0
 0 0
LINE
 8
TOOL_0
 5
D
 10
0
 20
0.0126
 30
0
 11
0.0787
 21
0.0126
 31
0
 0 0
LINE
 8
TOOL_0
 5
E
 10
0.0787
 20
0.0126
 30
0
 11
0.1575
 21
0.0126
 31
0
 0 0
LINE
 8
TOOL_0
 5
F
 10
0.1575
 20
0.0126
 30
0
 11
0.2362
 21
0.0126
 31
0
 0 0
LINE
 8
TOOL_0
 5
10
 10
0.2362
 20
0.0126
 30
0
 11
0.315
 21
0.0126
 31
0
 0 0
LINE
 8
TOOL_0
 5
11
 10
0.315
 20
0.0126
 30
0
 11
0.3937
 21
0.0126
 31
0
 0 0
LINE
 8
TOOL_0
 5
12
 10
0.3937
 20
0.0126
 30
0
 11
0.4724
 21
0.0126
 31
0
 0 0
LINE
 8
TOOL_0
 5
13
 10
0.4724
 20
0.0126
 30
0
 11
0.5512
 21
0.0126
 31
0
 0 0
LINE
 8
TOOL_0
 5
14
 10
0.5512
 20
0.0126
 30
0
 11
0.6299
 21
0.0126
 31
0
 0 0
LINE
 8
TOOL_0
 5
15
 10
0.6299
 20
0.0126
 30
0
 11
0.7087
 21
0.0126
 31
0
 0 0
LINE
 8
TOOL_0
 5
16
 10
0.7087
 20
0.0126
 30
0
 11
0.7874
 21
0.0126
 31
0
 0 0
LINE
 8
TOOL_0
 5
17
 10
0.7874
 20
0.0126
 30
0
 11
0.8071
 21
0.0126
 31
0
 0 0
LINE
 8
TOOL_0
 5
18
 10
0.8071
 20
0.0126
 30
0
 11
0.8071
 21
0.0001
 31
0
 0 0
LINE
 8
TOOL_0
 5
19
 10
0.8071
 20
0.0001
 30
0
 11
0.8071
 21
0.0126
 31
0
 0 0
LINE
 8
TOOL_0
 5
1A
 10
0.8071
 20
0.0126
 30
0
 11
0.7283
 21
0.0126
 31
0
 0 0
LINE
 8
TOOL_0
 5
1B
 10
0.7283
 20
0.0126
 30
0
 11
0.6496
 21
0.0126
 31
0
 0 0
LINE
 8
TOOL_0
 5
1C
 10
0.6496
 20
0.0126
 30
0
 11
0.5709
 21
0.0126
 31
0
 0 0
LINE
 8
TOOL_0
 5
1D
 10
0.5709
 20
0.0126
 30
0
 11
0.4921
 21
0.0126
 31
0
 0 0
LINE
 8
TOOL_0
 5
1E
 10
0.4921
 20
0.0126
 30
0
 11
0.4134
 21
0.0126
 31
0
 0 0
LINE
 8
TOOL_0
 5
1F
 10
0.4134
 20
0.0126
 30
0
 11
0.3346
 21
0.0126
 31
0
 0 0
LINE
 8
TOOL_0
 5
20
 10
0.3346
 20
0.0126
 30
0
 11
0.2559
 21
0.0126
 31
0
 0 0
LINE
 8
TOOL_0
 5
21
 10
0.2559
 20
0.0126
 30
0
 11
0.1772
 21
0.0126
 31
0
 0 0
LINE
 8
TOOL_0
 5
22
 10
0.1772
 20
0.0126
 30
0
 11
0.0984
 21
0.0126
 31
0
 0 0
LINE
 8
TOOL_0
 5
23
 10
0.0984
 20
0.0126
 30
0
 11
0.0197
 21
0.0126
 31
0
 0 0
LINE
 8
TOOL_0
 5
24
 10
0.0197
 20
0.0126
 30
0
 11
0
 21
0.0126
 31
0
 0 0
LINE
 8
TOOL_0
 5
25
 10
0
 20
0.0126
 30
0
 11
0
 21
0.0252
 31
0
 0 0
LINE
 8
TOOL_0
 5
26
 10
0
 20
0.0252
 30
0
 11
0.0787
 21
0.0252
 31
0
 0 0
LINE
 8
TOOL_0
 5
27
 10
0.0787
 20
0.0252
 30
0
 11
0.1575
 21
0.0252
 31
0
 0 0
LINE
 8
TOOL_0
 5
28
 10
0.1575
 20
0.0252
 30
0
 11
0.2362
 21
0.0252
 31
0
 0 0
LINE
 8
TOOL_0
 5
29
 10
0.2362
 20
0.0252
 30
0
 11
0.315
 21
0.0252
 31
0
 0 0
LINE
 8
TOOL_0
 5
2A
 10
0.315
 20
0.0252
 30
0
 11
0.3937
 21
0.0252
 31
0
 0 0
LINE
 8
TOOL_0
 5
2B
 10
0.3937
 20
0.0252
 30
0
 11
0.4724
 21
0.0252
 31
0
 0 0
LINE
 8
TOOL_0
 5
2C
 10
0.4724
 20
0.0252
 30
0
 11
0.5512
 21
0.0252
 31
0
 0 0
LINE
 8
TOOL_0
 5
2D
 10
0.5512
 20
0.0252
 30
0
 11
0.6299
 21
0.0252
 31
0
 0 0
LINE
 8
TOOL_0
 5
2E
 10
0.6299
 20
0.0252
 30
0
 11
0.7087
 21
0.0252
 31
0
 0 0
LINE
 8
TOOL_0
 5
2F
 10
0.7087
 20
0.0252
 30
0
 11
0.7874
 21
0.0252
 31
0
 0 0
LINE
 8
TOOL_0
 5
30
 10
0.7874
 20
0.0252
 30
0
 11
0.8071
 21
0.0252
 31
0
 0 0
LINE
 8
TOOL_0
 5
31
 10
0.8071
 20
0.0252
 30
0
 11
0.8071
 21
0.0126
 31
0
 0 0
LINE
 8
TOOL_0
 5
32
 10
0.8071
 20
0.0126
 30
0
 11
0.8071
 21
0.0252
 31
0
 0 0
LINE
 8
TOOL_0
 5
33
 10
0.8071
 20
0.0252
 30
0
 11
0.7283
 21
0.0252
 31
0
 0 0
LINE
 8
TOOL_0
 5
34
 10
0.7283
 20
0.0252
 30
0
 11
0.6496
 21
0.0252
 31
0
 0 0
LINE
 8
TOOL_0
 5
35
 10
0.6496
 20
0.0252
 30
0
 11
0.5709
 21
0.0252
 31
0
 0 0
LINE
 8
TOOL_0
 5
36
 10
0.5709
 20
0.0252
 30
0
 11
0.4921
 21
0.0252
 31
0
 0 0
LINE
 8
TOOL_0
 5
37
 10
0.4921
 20
0.0252
 30
0
 11
0.4134
 21
0.0252
 31
0
 0 0
LINE
 8
TOOL_0
 5
38
 10
0.4134
 20
0.0252
 30
0
 11
0.3346
 21
0.0252
 31
0
 0 0
LINE
 8
TOOL_0
 5
39
 10
0.3346
 20
0.0252
 30
0
 11
0.2559
 21
0.0252
 31
0
 0 0
LINE
 8
TOOL_0
 5
3A
 10
0.2559
 20
0.0252
 30
0
 11
0.1772
 21
0.0252
 31
0
 0 0
LINE
 8
TOOL_0
 5
3B
 10
0.1772
 20
0.0252
 30
0
 11
0.0984
 21
0.0252
 31
0
 0 0
LINE
 8
TOOL_0
 5
3C
 10
0.0984
 20
0.0252
 30
0
 11
0.0197
 21
0.0252
 31
0
 0 0
LINE
 8
TOOL_0
 5
3D
 10
0.0197
 20
0.0252
 30
0
 11
0
 21
0.0252
 31
0
 0 0
LINE
 8
TOOL_0
 5
3E
 10
0
 20
0.0252
 30
0
 11
0
 21
0.0378
 31
0
 0 0
LINE
 8
TOOL_0
 5
3F
 10
0
 20
0.0378
 30
0
 11
0.0787
 21
0.0378
 31
0
 0 0
LINE
 8
TOOL_0
 5
40
 10
0.0787
 20
0.0378
 30
0
 11
0.1575
 21
0.0378
 31
0
 0 0
LINE
 8
TOOL_0
 5
41
 10
0.1575
 20
0.0378
 30
0
 11
0.2362
 21
0.0378
 31
0
 0 0
LINE
 8
TOOL_0
 5
42
 10
0.2362
 20
0.0378
 30
0
 11
0.315
 21
0.0378
 31
0
 0 0
LINE
 8
TOOL_0
 5
43
 10
0.315
 20
0.0378
 30
0
 11
0.3937
 21
0.0378
 31
0
 0 0
LINE
 8
TOOL_0
 5
44
 10
0.3937
 20
0.0378
 30
0
 11
0.4724
 21
0.0378
 31
0
 0 0
LINE
 8
TOOL_0
 5
45
 10
0.4724
 20
0.0378
 30
0
 11
0.5512
 21
0.0378
 31
0
 0 0
LINE
 8
TOOL_0
 5
46
 10
0.5512
 20
0.0378
 30
0
 11
0.6299
 21
0.0378
 31
0
 0 0
LINE
 8
TOOL_0
 5
47
 10
0.6299
 20
0.0378
 30
0
 11
0.7087
 21
0.0378
 31
0
 0 0
LINE
 8
TOOL_0
 5
48
 10
0.7087
 20
0.0378
 30
0
 11
0.7874
 21
0.0378
 31
0
 0 0
LINE
 8
TOOL_0
 5
49
 10
0.7874
 20
0.0378
 30
0
 11
0.8071
 21
0.0378
 31
0
 0 0
LINE
 8
TOOL_0
 5
4A
 10
0.8071
 20
0.0378
 30
0
 11
0.8071
 21
0.0252
 31
0
 0 0
LINE
 8
TOOL_0
 5
4B
 10
0.8071
 20
0.0252
 30
0
 11
0.8071
 21
0.0378
 31
0
 0 0
LINE
 8
TOOL_0
 5
4C
 10
0.8071
 20
0.0378
 30
0
 11
0.7283
 21
0.0378
 31
0
 0 0
LINE
 8
TOOL_0
 5
4D
 10
0.7283
 20
0.0378
 30
0
 11
0.6496
 21
0.0378
 31
0
 0 0
LINE
 8
TOOL_0
 5
4E
 10
0.6496
 20
0.0378
 30
0
 11
0.5709
 21
0.0378
 31
0
 0 0
LINE
 8
TOOL_0
 5
4F
 10
0.5709
 20
0.0378
 30
0
 11
0.4921
 21
0.0378
 31
0
 0 0
LINE
 8
TOOL_0
 5
50
 10
0.4921
 20
0.0378
 30
0
 11
0.4134
 21
0.0378
 31
0
 0 0
LINE
 8
TOOL_0
 5
51
 10
0.4134
 20
0.0378
 30
0
 11
0.3346
 21
0.0378
 31
0
 0 0
LINE
 8
TOOL_0
 5
52
 10
0.3346
 20
0.0378
 30
0
 11
0.2559
 21
0.0378
 31
0
 0 0
LINE
 8
TOOL_0
 5
53
 10
0.2559
 20
0.0378
 30
0
 11
0.1772
 21
0.0378
 31
0
 0 0
LINE
 8
TOOL_0
 5
54
 10
0.1772
 20
0.0378
 30
0
 11
0.0984
 21
0.0378
 31
0
 0 0
LINE
 8
TOOL_0
 5
55
 10
0.0984
 20
0.0378
 30
0
 11
0.0197
 21
0.0378
 31
0
 0 0
LINE
 8
TOOL_0
 5
56
 10
0.0197
 20
0.0378
 30
0
 11
0
 21
0.0378
 31
0
 0 0
LINE
 8
TOOL_0
 5
57
 10
0
 20
0.0378
 30
0
 11
0
 21
0.0504
 31
0
 0 0
LINE
 8
TOOL_0
 5
58
 10
0
 20
0.0504
 30
0
 11
0.0787
 21
0.0504
 31
0
 0 0
LINE
 8
TOOL_0
 5
59
 10
0.0787
 20
0.0504
 30
0
 11
0.1575
 21
0.0504
 31
0
 0 0
LINE
 8
TOOL_0
 5
5A
 10
0.1575
 20
0.0504
 30
0
 11
0.2362
 21
0.0504
 31
0
 0 0
LINE
 8
TOOL_0
 5
5B
 10
0.2362
 20
0.0504
 30
0
 11
0.315
 21
0.0504
 31
0
 0 0
LINE
 8
TOOL_0
 5
5C
 10
0.315
 20
0.0504
 30
0
 11
0.3937
 21
0.0504
 31
0
 0 0
LINE
 8
TOOL_0
 5
5D
 10
0.3937
 20
0.0504
 30
0
 11
0.4724
 21
0.0504
 31
0
 0 0
LINE
 8
TOOL_0
 5
5E
 10
0.4724
 20
0.0504
 30
0
 11
0.5512
 21
0.0504
 31
0
 0 0
LINE
 8
TOOL_0
 5
5F
 10
0.5512
 20
0.0504
 30
0
 11
0.6299
 21
0.0504
 31
0
 0 0
LINE
 8
TOOL_0
 5
60
 10
0.6299
 20
0.0504
 30
0
 11
0.7087
 21
0.0504
 31
0
 0 0
LINE
 8
TOOL_0
 5
61
 10
0.7087
 20
0.0504
 30
0
 11
0.7874
 21
0.0504
 31
0
 0 0
LINE
 8
TOOL_0
 5
62
 10
0.7874
 20
0.0504
 30
0
 11
0.8071
 21
0.0504
 31
0
 0 0
LINE
 8
TOOL_0
 5
63
 10
0.8071
 20
0.0504
 30
0
 11
0.8071
 21
0.0378
 31
0
 0 0
LINE
 8
TOOL_0
 5
64
 10
0.8071
 20
0.0378
 30
0
 11
0.7874
 21
0.1095
 31
0
 0 0
LINE
 8
TOOL_0
 5
65
 10
0.7874
 20
0.1095
 30
0
 11
0.7874
 21
0.0504
 31
0
 0 0
LINE
 8
TOOL_0
 5
66
 10
0.7874
 20
0.0504
 30
0
 11
0.7087
 21
0.0504
 31
0
 0 0
LINE
 8
TOOL_0
 5
67
 10
0.7087
 20
0.0504
 30
0
 11
0.6299
 21
0.0504
 31
0
 0 0
LINE
 8
TOOL_0
 5
68
 10
0.6299
 20
0.0504
 30
0
 11
0.5512
 21
0.0504
 31
0
 0 0
LINE
 8
TOOL_0
 5
69
 10
0.5512
 20
0.0504
 30
0
 11
0.4724
 21
0.0504
 31
0
 0 0
LINE
 8
TOOL_0
 5
6A
 10
0.4724
 20
0.0504
 30
0
 11
0.3937
 21
0.0504
 31
0
 0 0
LINE
 8
TOOL_0
 5
6B
 10
0.3937
 20
0.0504
 30
0
 11
0.315
 21
0.0504
 31
0
 0 0
LINE
 8
TOOL_0
 5
6C
 10
0.315
 20
0.0504
 30
0
 11
0.2362
 21
0.0504
 31
0
 0 0
LINE
 8
TOOL_0
 5
6D
 10
0.2362
 20
0.0504
 30
0
 11
0.1575
 21
0.0504
 31
0
 0 0
LINE
 8
TOOL_0
 5
6E
 10
0.1575
 20
0.0504
 30
0
 11
0.0787
 21
0.0504
 31
0
 0 0
LINE
 8
TOOL_0
 5
6F
 10
0.0787
 20
0.0504
 30
0
 11
0
 21
0.0504
 31
0
 0 0
LINE
 8
TOOL_0
 5
70
 10
0
 20
0.0504
 30
0
 11
0
 21
0.1095
 31
0
 0 0
LINE
 8
TOOL_0
 5
71
 10
0
 20
0.1095
 30
0
 11
0.0787
 21
0.1095
 31
0
 0 0
LINE
 8
TOOL_0
 5
72
 10
0.0787
 20
0.1095
 30
0
 11
0.1575
 21
0.1095
 31
0
 0 0
LINE
 8
TOOL_0
 5
73
 10
0.1575
 20
0.1095
 30
0
 11
0.2362
 21
0.1095
 31
0
 0 0
LINE
 8
TOOL_0
 5
74
 10
0.2362
 20
0.1095
 30
0
 11
0.315
 21
0.1095
 31
0
 0 0
LINE
 8
TOOL_0
 5
75
 10
0.315
 20
0.1095
 30
0
 11
0.3937
 21
0.1095
 31
0
 0 0
LINE
 8
TOOL_0
 5
76
 10
0.3937
 20
0.1095
 30
0
 11
0.4724
 21
0.1095
 31
0
 0 0
LINE
 8
TOOL_0
 5
77
 10
0.4724
 20
0.1095
 30
0
 11
0.5512
 21
0.1095
 31
0
 0 0
LINE
 8
TOOL_0
 5
78
 10
0.5512
 20
0.1095
 30
0
 11
0.6299
 21
0.1095
 31
0
 0 0
LINE
 8
TOOL_0
 5
79
 10
0.6299
 20
0.1095
 30
0
 11
0.7087
 21
0.1095
 31
0
 0 0
LINE
 8
TOOL_0
 5
7A
 10
0.7087
 20
0.1095
 30
0
 11
0.7874
 21
0.1095
 31
0
 0 0
LINE
 8
TOOL_0
 5
7B
 10
0.7874
 20
0.1095
 30
0
 11
0.7874
 21
0.1686
 31
0
 0 0
LINE
 8
TOOL_0
 5
7C
 10
0.7874
 20
0.1686
 30
0
 11
0.7874
 21
0.1095
 31
0
 0 0
LINE
 8
TOOL_0
 5
7D
 10
0.7874
 20
0.1095
 30
0
 11
0.7087
 21
0.1095
 31
0
 0 0
LINE
 8
TOOL_0
 5
7E
 10
0.7087
 20
0.1095
 30
0
 11
0.6299
 21
0.1095
 31
0
 0 0
LINE
 8
TOOL_0
 5
7F
 10
0.6299
 20
0.1095
 30
0
 11
0.5512
 21
0.1095
 31
0
 0 0
LINE
 8
TOOL_0
 5
80
 10
0.5512
 20
0.1095
 30
0
 11
0.4724
 21
0.1095
 31
0
 0 0
LINE
 8
TOOL_0
 5
81
 10
0.4724
 20
0.1095
 30
0
 11
0.3937
 21
0.1095
 31
0
 0 0
LINE
 8
TOOL_0
 5
82
 10
0.3937
 20
0.1095
 30
0
 11
0.315
 21
0.1095
 31
0
 0 0
LINE
 8
TOOL_0
 5
83
 10
0.315
 20
0.1095
 30
0
 11
0.2362
 21
0.1095
 31
0
 0 0
LINE
 8
TOOL_0
 5
84
 10
0.2362
 20
0.1095
 30
0
 11
0.1575
 21
0.1095
 31
0
 0 0
LINE
 8
TOOL_0
 5
85
 10
0.1575
 20
0.1095
 30
0
 11
0.0787
 21
0.1095
 31
0
 0 0
LINE
 8
TOOL_0
 5
86
 10
0.0787
 20
0.1095
 30
0
 11
0
 21
0.1095
 31
0
 0 0
LINE
 8
TOOL_0
 5
87
 10
0
 20
0.1095
 30
0
 11
0
 21
0.1686
 31
0
 0 0
LINE
 8
TOOL_0
 5
88
 10
0
 20
0.1686
 30
0
 11
0.0787
 21
0.1686
 31
0
 0 0
LINE
 8
TOOL_0
 5
89
 10
0.0787
 20
0.1686
 30
0
 11
0.1575
 21
0.1686
 31
0
 0 0
LINE
 8
TOOL_0
 5
8A
 10
0.1575
 20
0.1686
 30
0
 11
0.2362
 21
0.1686
 31
0
 0 0
LINE
 8
TOOL_0
 5
8B
 10
0.2362
 20
0.1686
 30
0
 11
0.315
 21
0.1686
 31
0
 0 0
LINE
 8
TOOL_0
 5
8C
 10
0.315
 20
0.1686
 30
0
 11
0.3937
 21
0.1686
 31
0
 0 0
LINE
 8
TOOL_0
 5
8D
 10
0.3937
 20
0.1686
 30
0
 11
0.4724
 21
0.1686
 31
0
 0 0
LINE
 8
TOOL_0
 5
8E
 10
0.4724
 20
0.1686
 30
0
 11
0.5512
 21
0.1686
 31
0
 0 0
LINE
 8
TOOL_0
 5
8F
 10
0.5512
 20
0.1686
 30
0
 11
0.6299
 21
0.1686
 31
0
 0 0
LINE
 8
TOOL_0
 5
90
 10
0.6299
 20
0.1686
 30
0
 11
0.7087
 21
0.1686
 31
0
 0 0
LINE
 8
TOOL_0
 5
91
 10
0.7087
 20
0.1686
 30
0
 11
0.7874
 21
0.1686
 31
0
 0 0
LINE
 8
TOOL_0
 5
92
 10
0.7874
 20
0.1686
 30
0
 11
0.5512
 21
0.1812
 31
0
 0 0
LINE
 8
TOOL_0
 5
93
 10
0.5512
 20
0.1812
 30
0
 11
0.5512
 21
0.1686
 31
0
 0 0
LINE
 8
TOOL_0
 5
94
 10
0.5512
 20
0.1686
 30
0
 11
0.4724
 21
0.1686
 31
0
 0 0
LINE
 8
TOOL_0
 5
95
 10
0.4724
 20
0.1686
 30
0
 11
0.3937
 21
0.1686
 31
0
 0 0
LINE
 8
TOOL_0
 5
96
 10
0.3937
 20
0.1686
 30
0
 11
0.315
 21
0.1686
 31
0
 0 0
LINE
 8
TOOL_0
 5
97
 10
0.315
 20
0.1686
 30
0
 11
0.2362
 21
0.1686
 31
0
 0 0
LINE
 8
TOOL_0
 5
98
 10
0.2362
 20
0.1686
 30
0
 11
0.1575
 21
0.1686
 31
0
 0 0
LINE
 8
TOOL_0
 5
99
 10
0.1575
 20
0.1686
 30
0
 11
0.0787
 21
0.1686
 31
0
 0 0
LINE
 8
TOOL_0
 5
9A
 10
0.0787
 20
0.1686
 30
0
 11
0
 21
0.1686
 31
0
 0 0
LINE
 8
TOOL_0
 5
9B
 10
0
 20
0.1686
 30
0
 11
0
 21
0.1812
 31
0
 0 0
LINE
 8
TOOL_0
 5
9C
 10
0
 20
0.1812
 30
0
 11
0.0787
 21
0.1812
 31
0
 0 0
LINE
 8
TOOL_0
 5
9D
 10
0.0787
 20
0.1812
 30
0
 11
0.1575
 21
0.1812
 31
0
 0 0
LINE
 8
TOOL_0
 5
9E
 10
0.1575
 20
0.1812
 30
0
 11
0.2362
 21
0.1812
 31
0
 0 0
LINE
 8
TOOL_0
 5
9F
 10
0.2362
 20
0.1812
 30
0
 11
0.315
 21
0.1812
 31
0
 0 0
LINE
 8
TOOL_0
 5
A0
 10
0.315
 20
0.1812
 30
0
 11
0.3937
 21
0.1812
 31
0
 0 0
LINE
 8
TOOL_0
 5
A1
 10
0.3937
 20
0.1812
 30
0
 11
0.4724
 21
0.1812
 31
0
 0 0
LINE
 8
TOOL_0
 5
A2
 10
0.4724
 20
0.1812
 30
0
 11
0.5512
 21
0.1812
 31
0
 0 0
LINE
 8
TOOL_0
 5
A3
 10
0.5512
 20
0.1812
 30
0
 11
0.5512
 21
0.1938
 31
0
 0 0
LINE
 8
TOOL_0
 5
A4
 10
0.5512
 20
0.1938
 30
0
 11
0.5512
 21
0.1812
 31
0
 0 0
LINE
 8
TOOL_0
 5
A5
 10
0.5512
 20
0.1812
 30
0
 11
0.4724
 21
0.1812
 31
0
 0 0
LINE
 8
TOOL_0
 5
A6
 10
0.4724
 20
0.1812
 30
0
 11
0.3937
 21
0.1812
 31
0
 0 0
LINE
 8
TOOL_0
 5
A7
 10
0.3937
 20
0.1812
 30
0
 11
0.315
 21
0.1812
 31
0
 0 0
LINE
 8
TOOL_0
 5
A8
 10
0.315
 20
0.1812
 30
0
 11
0.2362
 21
0.1812
 31
0
 0 0
LINE
 8
TOOL_0
 5
A9
 10
0.2362
 20
0.1812
 30
0
 11
0.1575
 21
0.1812
 31
0
 0 0
LINE
 8
TOOL_0
 5
AA
 10
0.1575
 20
0.1812
 30
0
 11
0.0787
 21
0.1812
 31
0
 0 0
LINE
 8
TOOL_0
 5
AB
 10
0.0787
 20
0.1812
 30
0
 11
0
 21
0.1812
 31
0
 0 0
LINE
 8
TOOL_0
 5
AC
 10
0
 20
0.1812
 30
0
 11
0
 21
0.1938
 31
0
 0 0
LINE
 8
TOOL_0
 5
AD
 10
0
 20
0.1938
 30
0
 11
0.0787
 21
0.1938
 31
0
 0 0
LINE
 8
TOOL_0
 5
AE
 10
0.0787
 20
0.1938
 30
0
 11
0.1575
 21
0.1938
 31
0
 0 0
LINE
 8
TOOL_0
 5
AF
 10
0.1575
 20
0.1938
 30
0
 11
0.2362
 21
0.1938
 31
0
 0 0
LINE
 8
TOOL_0
 5
B0
 10
0.2362
 20
0.1938
 30
0
 11
0.315
 21
0.1938
 31
0
 0 0
LINE
 8
TOOL_0
 5
B1
 10
0.315
 20
0.1938
 30
0
 11
0.3937
 21
0.1938
 31
0
 0 0
LINE
 8
TOOL_0
 5
B2
 10
0.3937
 20
0.1938
 30
0
 11
0.4724
 21
0.1938
 31
0
 0 0
LINE
 8
TOOL_0
 5
B3
 10
0.4724
 20
0.1938
 30
0
 11
0.5512
 21
0.1938
 31
0
 0 0
LINE
 8
TOOL_0
 5
B4
 10
0.5512
 20
0.1938
 30
0
 11
0.5512
 21
0.2063
 31
0
 0 0
LINE
 8
TOOL_0
 5
B5
 10
0.5512
 20
0.2063
 30
0
 11
0.5512
 21
0.1938
 31
0
 0 0
LINE
 8
TOOL_0
 5
B6
 10
0.5512
 20
0.1938
 30
0
 11
0.4724
 21
0.1938
 31
0
 0 0
LINE
 8
TOOL_0
 5
B7
 10
0.4724
 20
0.1938
 30
0
 11
0.3937
 21
0.1938
 31
0
 0 0
LINE
 8
TOOL_0
 5
B8
 10
0.3937
 20
0.1938
 30
0
 11
0.315
 21
0.1938
 31
0
 0 0
LINE
 8
TOOL_0
 5
B9
 10
0.315
 20
0.1938
 30
0
 11
0.2362
 21
0.1938
 31
0
 0 0
LINE
 8
TOOL_0
 5
BA
 10
0.2362
 20
0.1938
 30
0
 11
0.1575
 21
0.1938
 31
0
 0 0
LINE
 8
TOOL_0
 5
BB
 10
0.1575
 20
0.1938
 30
0
 11
0.0787
 21
0.1938
 31
0
 0 0
LINE
 8
TOOL_0
 5
BC
 10
0.0787
 20
0.1938
 30
0
 11
0
 21
0.1938
 31
0
 0 0
LINE
 8
TOOL_0
 5
BD
 10
0
 20
0.1938
 30
0
 11
0
 21
0.2063
 31
0
 0 0
LINE
 8
TOOL_0
 5
BE
 10
0
 20
0.2063
 30
0
 11
0.0787
 21
0.2063
 31
0
 0 0
LINE
 8
TOOL_0
 5
BF
 10
0.0787
 20
0.2063
 30
0
 11
0.1575
 21
0.2063
 31
0
 0 0
LINE
 8
TOOL_0
 5
C0
 10
0.1575
 20
0.2063
 30
0
 11
0.2362
 21
0.2063
 31
0
 0 0
LINE
 8
TOOL_0
 5
C1
 10
0.2362
 20
0.2063
 30
0
 11
0.315
 21
0.2063
 31
0
 0 0
LINE
 8
TOOL_0
 5
C2
 10
0.315
 20
0.2063
 30
0
 11
0.3937
 21
0.2063
 31
0
 0 0
LINE
 8
TOOL_0
 5
C3
 10
0.3937
 20
0.2063
 30
0
 11
0.4724
 21
0.2063
 31
0
 0 0
LINE
 8
TOOL_0
 5
C4
 10
0.4724
 20
0.2063
 30
0
 11
0.5512
 21
0.2063
 31
0
 0 0
LINE
 8
TOOL_0
 5
C5
 10
0.5512
 20
0.2063
 30
0
 11
0.5512
 21
0.2189
 31
0
 0 0
LINE
 8
TOOL_0
 5
C6
 10
0.5512
 20
0.2189
 30
0
 11
0.5512
 21
0.2063
 31
0
 0 0
LINE
 8
TOOL_0
 5
C7
 10
0.5512
 20
0.2063
 30
0
 11
0.4724
 21
0.2063
 31
0
 0 0
LINE
 8
TOOL_0
 5
C8
 10
0.4724
 20
0.2063
 30
0
 11
0.3937
 21
0.2063
 31
0
 0 0
LINE
 8
TOOL_0
 5
C9
 10
0.3937
 20
0.2063
 30
0
 11
0.315
 21
0.2063
 31
0
 0 0
LINE
 8
TOOL_0
 5
CA
 10
0.315
 20
0.2063
 30
0
 11
0.2362
 21
0.2063
 31
0
 0 0
LINE
 8
TOOL_0
 5
CB
 10
0.2362
 20
0.2063
 30
0
 11
0.1575
 21
0.2063
 31
0
 0 0
LINE
 8
TOOL_0
 5
CC
 10
0.1575
 20
0.2063
 30
0
 11
0.0787
 21
0.2063
 31
0
 0 0
LINE
 8
TOOL_0
 5
CD
 10
0.0787
 20
0.2063
 30
0
 11
0
 21
0.2063
 31
0
 0 0
LINE
 8
TOOL_0
 5
CE
 10
0
 20
0.2063
 30
0
 11
0
 21
0.2189
 31
0
 0 0
LINE
 8
TOOL_0
 5
CF
 10
0
 20
0.2189
 30
0
 11
0.0787
 21
0.2189
 31
0
 0 0
LINE
 8
TOOL_0
 5
D0
 10
0.0787
 20
0.2189
 30
0
 11
0.1575
 21
0.2189
 31
0
 0 0
LINE
 8
TOOL_0
 5
D1
 10
0.1575
 20
0.2189
 30
0
 11
0.2362
 21
0.2189
 31
0
 0 0
LINE
 8
TOOL_0
 5
D2
 10
0.2362
 20
0.2189
 30
0
 11
0.315
 21
0.2189
 31
0
 0 0
LINE
 8
TOOL_0
 5
D3
 10
0.315
 20
0.2189
 30
0
 11
0.3937
 21
0.2189
 31
0
 0 0
LINE
 8
TOOL_0
 5
D4
 10
0.3937
 20
0.2189
 30
0
 11
0.4724
 21
0.2189
 31
0
 0 0
LINE
 8
TOOL_0
 5
D5
 10
0.4724
 20
0.2189
 30
0
 11
0.5512
 21
0.2189
 31
0
 0 0
LINE
 8
TOOL_0
 5
D6
 10
0.5512
 20
0.2189
 30
0
 11
0.5512
 21
0.2315
 31
0
 0 0
LINE
 8
TOOL_0
 5
D7
 10
0.5512
 20
0.2315
 30
0
 11
0.5512
 21
0.2189
 31
0
 0 0
LINE
 8
TOOL_0
 5
D8
 10
0.5512
 20
0.2189
 30
0
 11
0.4724
 21
0.2189
 31
0
 0 0
LINE
 8
TOOL_0
 5
D9
 10
0.4724
 20
0.2189
 30
0
 11
0.3937
 21
0.2189
 31
0
 0 0
LINE
 8
TOOL_0
 5
DA
 10
0.3937
 20
0.2189
 30
0
 11
0.315
 21
0.2189
 31
0
 0 0
LINE
 8
TOOL_0
 5
DB
 10
0.315
 20
0.2189
 30
0
 11
0.2362
 21
0.2189
 31
0
 0 0
LINE
 8
TOOL_0
 5
DC
 10
0.2362
 20
0.2189
 30
0
 11
0.1575
 21
0.2189
 31
0
 0 0
LINE
 8
TOOL_0
 5
DD
 10
0.1575
 20
0.2189
 30
0
 11
0.0787
 21
0.2189
 31
0
 0 0
LINE
 8
TOOL_0
 5
DE
 10
0.0787
 20
0.2189
 30
0
 11
0
 21
0.2189
 31
0
 0 0
LINE
 8
TOOL_0
 5
DF
 10
0
 20
0.2189
 30
0
 11
0
 21
0.2315
 31
0
 0 0
LINE
 8
TOOL_0
 5
E0
 10
0
 20
0.2315
 30
0
 11
0.0787
 21
0.2315
 31
0
 0 0
LINE
 8
TOOL_0
 5
E1
 10
0.0787
 20
0.2315
 30
0
 11
0.1575
 21
0.2315
 31
0
 0 0
LINE
 8
TOOL_0
 5
E2
 10
0.1575
 20
0.2315
 30
0
 11
0.2362
 21
0.2315
 31
0
 0 0
LINE
 8
TOOL_0
 5
E3
 10
0.2362
 20
0.2315
 30
0
 11
0.315
 21
0.2315
 31
0
 0 0
LINE
 8
TOOL_0
 5
E4
 10
0.315
 20
0.2315
 30
0
 11
0.3937
 21
0.2315
 31
0
 0 0
LINE
 8
TOOL_0
 5
E5
 10
0.3937
 20
0.2315
 30
0
 11
0.4724
 21
0.2315
 31
0
 0 0
LINE
 8
TOOL_0
 5
E6
 10
0.4724
 20
0.2315
 30
0
 11
0.5512
 21
0.2315
 31
0
 0 0
LINE
 8
TOOL_0
 5
E7
 10
0.5512
 20
0.2315
 30
0
 11
0.5512
 21
0.2441
 31
0
 0 0
LINE
 8
TOOL_0
 5
E8
 10
0.5512
 20
0.2441
 30
0
 11
0.5512
 21
0.2315
 31
0
 0 0
LINE
 8
TOOL_0
 5
E9
 10
0.5512
 20
0.2315
 30
0
 11
0.4724
 21
0.2315
 31
0
 0 0
LINE
 8
TOOL_0
 5
EA
 10
0.4724
 20
0.2315
 30
0
 11
0.3937
 21
0.2315
 31
0
 0 0
LINE
 8
TOOL_0
 5
EB
 10
0.3937
 20
0.2315
 30
0
 11
0.315
 21
0.2315
 31
0
 0 0
LINE
 8
TOOL_0
 5
EC
 10
0.315
 20
0.2315
 30
0
 11
0.2362
 21
0.2315
 31
0
 0 0
LINE
 8
TOOL_0
 5
ED
 10
0.2362
 20
0.2315
 30
0
 11
0.1575
 21
0.2315
 31
0
 0 0
LINE
 8
TOOL_0
 5
EE
 10
0.1575
 20
0.2315
 30
0
 11
0.0787
 21
0.2315
 31
0
 0 0
LINE
 8
TOOL_0
 5
EF
 10
0.0787
 20
0.2315
 30
0
 11
0
 21
0.2315
 31
0
 0 0
LINE
 8
TOOL_0
 5
F0
 10
0
 20
0.2315
 30
0
 11
0
 21
0.2441
 31
0
 0 0
LINE
 8
TOOL_0
 5
F1
 10
0
 20
0.2441
 30
0
 11
0.0787
 21
0.2441
 31
0
 0 0
LINE
 8
TOOL_0
 5
F2
 10
0.0787
 20
0.2441
 30
0
 11
0.1575
 21
0.2441
 31
0
 0 0
LINE
 8
TOOL_0
 5
F3
 10
0.1575
 20
0.2441
 30
0
 11
0.2362
 21
0.2441
 31
0
 0 0
LINE
 8
TOOL_0
 5
F4
 10
0.2362
 20
0.2441
 30
0
 11
0.315
 21
0.2441
 31
0
 0 0
LINE
 8
TOOL_0
 5
F5
 10
0.315
 20
0.2441
 30
0
 11
0.3937
 21
0.2441
 31
0
 0 0
LINE
 8
TOOL_0
 5
F6
 10
0.3937
 20
0.2441
 30
0
 11
0.4724
 21
0.2441
 31
0
 0 0
LINE
 8
TOOL_0
 5
F7
 10
0.4724
 20
0.2441
 30
0
 11
0.5512
 21
0.2441
 31
0
 0 0
LINE
 8
TOOL_0
 5
F8
 10
0.5512
 20
0.2441
 30
0
 11
0.5512
 21
0.2567
 31
0
 0 0
LINE
 8
TOOL_0
 5
F9
 10
0.5512
 20
0.2567
 30
0
 11
0.5512
 21
0.2441
 31
0
 0 0
LINE
 8
TOOL_0
 5
FA
 10
0.5512
 20
0.2441
 30
0
 11
0.4724
 21
0.2441
 31
0
 0 0
LINE
 8
TOOL_0
 5
FB
 10
0.4724
 20
0.2441
 30
0
 11
0.3937
 21
0.2441
 31
0
 0 0
LINE
 8
TOOL_0
 5
FC
 10
0.3937
 20
0.2441
 30
0
 11
0.315
 21
0.2441
 31
0
 0 0
LINE
 8
TOOL_0
 5
FD
 10
0.315
 20
0.2441
 30
0
 11
0.2362
 21
0.2441
 31
0
 0 0
LINE
 8
TOOL_0
 5
FE
 10
0.2362
 20
0.2441
 30
0
 11
0.1575
 21
0.2441
 31
0
 0 0
LINE
 8
TOOL_0
 5
FF
 10
0.1575
 20
0.2441
 30
0
 11
0.0787
 21
0.2441
 31
0
 0 0
LINE
 8
TOOL_0
 5
100
 10
0.0787
 20
0.2441
 30
0
 11
0
 21
0.2441
 31
0
 0 0
LINE
 8
TOOL_0
 5
101
 10
0
 20
0.2441
 30
0
 11
0
 21
0.2567
 31
0
 0 0
LINE
 8
TOOL_0
 5
102
 10
0
 20
0.2567
 30
0
 11
0.0787
 21
0.2567
 31
0
 0 0
LINE
 8
TOOL_0
 5
103
 10
0.0787
 20
0.2567
 30
0
 11
0.1575
 21
0.2567
 31
0
 0 0
LINE
 8
TOOL_0
 5
104
 10
0.1575
 20
0.2567
 30
0
 11
0.2362
 21
0.2567
 31
0
 0 0
LINE
 8
TOOL_0
 5
105
 10
0.2362
 20
0.2567
 30
0
 11
0.315
 21
0.2567
 31
0
 0 0
LINE
 8
TOOL_0
 5
106
 10
0.315
 20
0.2567
 30
0
 11
0.3937
 21
0.2567
 31
0
 0 0
LINE
 8
TOOL_0
 5
107
 10
0.3937
 20
0.2567
 30
0
 11
0.4724
 21
0.2567
 31
0
 0 0
LINE
 8
TOOL_0
 5
108
 10
0.4724
 20
0.2567
 30
0
 11
0.5512
 21
0.2567
 31
0
 0 0
LINE
 8
TOOL_0
 5
109
 10
0.5512
 20
0.2567
 30
0
 11
0.5512
 21
0.2693
 31
0
 0 0
LINE
 8
TOOL_0
 5
10A
 10
0.5512
 20
0.2693
 30
0
 11
0.5512
 21
0.2567
 31
0
 0 0
LINE
 8
TOOL_0
 5
10B
 10
0.5512
 20
0.2567
 30
0
 11
0.4724
 21
0.2567
 31
0
 0 0
LINE
 8
TOOL_0
 5
10C
 10
0.4724
 20
0.2567
 30
0
 11
0.3937
 21
0.2567
 31
0
 0 0
LINE
 8
TOOL_0
 5
10D
 10
0.3937
 20
0.2567
 30
0
 11
0.315
 21
0.2567
 31
0
 0 0
LINE
 8
TOOL_0
 5
10E
 10
0.315
 20
0.2567
 30
0
 11
0.2362
 21
0.2567
 31
0
 0 0
LINE
 8
TOOL_0
 5
10F
 10
0.2362
 20
0.2567
 30
0
 11
0.1575
 21
0.2567
 31
0
 0 0
LINE
 8
TOOL_0
 5
110
 10
0.1575
 20
0.2567
 30
0
 11
0.0787
 21
0.2567
 31
0
 0 0
LINE
 8
TOOL_0
 5
111
 10
0.0787
 20
0.2567
 30
0
 11
0
 21
0.2567
 31
0
 0 0
LINE
 8
TOOL_0
 5
112
 10
0
 20
0.2567
 30
0
 11
0
 21
0.2693
 31
0
 0 0
LINE
 8
TOOL_0
 5
113
 10
0
 20
0.2693
 30
0
 11
0.0787
 21
0.2693
 31
0
 0 0
LINE
 8
TOOL_0
 5
114
 10
0.0787
 20
0.2693
 30
0
 11
0.1575
 21
0.2693
 31
0
 0 0
LINE
 8
TOOL_0
 5
115
 10
0.1575
 20
0.2693
 30
0
 11
0.2362
 21
0.2693
 31
0
 0 0
LINE
 8
TOOL_0
 5
116
 10
0.2362
 20
0.2693
 30
0
 11
0.315
 21
0.2693
 31
0
 0 0
LINE
 8
TOOL_0
 5
117
 10
0.315
 20
0.2693
 30
0
 11
0.3937
 21
0.2693
 31
0
 0 0
LINE
 8
TOOL_0
 5
118
 10
0.3937
 20
0.2693
 30
0
 11
0.4724
 21
0.2693
 31
0
 0 0
LINE
 8
TOOL_0
 5
119
 10
0.4724
 20
0.2693
 30
0
 11
0.5512
 21
0.2693
 31
0
 0 0
LINE
 8
TOOL_0
 5
11A
 10
0.5512
 20
0.2693
 30
0
 11
0.2283
 21
0.2693
 31
0
 0 0
LINE
 8
TOOL_0
 5
11B
 10
0.2283
 20
0.2693
 30
0
 11
0.1496
 21
0.2693
 31
0
 0 0
LINE
 8
TOOL_0
 5
11C
 10
0.1496
 20
0.2693
 30
0
 11
0.0709
 21
0.2693
 31
0
 0 0
LINE
 8
TOOL_0
 5
11D
 10
0.0709
 20
0.2693
 30
0
 11
0
 21
0.2693
 31
0
 0 0
LINE
 8
TOOL_0
 5
11E
 10
0
 20
0.2693
 30
0
 11
0
 21
0.2819
 31
0
 0 0
LINE
 8
TOOL_0
 5
11F
 10
0
 20
0.2819
 30
0
 11
0.0787
 21
0.2819
 31
0
 0 0
LINE
 8
TOOL_0
 5
120
 10
0.0787
 20
0.2819
 30
0
 11
0.1575
 21
0.2819
 31
0
 0 0
LINE
 8
TOOL_0
 5
121
 10
0.1575
 20
0.2819
 30
0
 11
0.2283
 21
0.2819
 31
0
 0 0
LINE
 8
TOOL_0
 5
122
 10
0.2283
 20
0.2819
 30
0
 11
0.2283
 21
0.2693
 31
0
 0 0
LINE
 8
TOOL_0
 5
123
 10
0.2283
 20
0.2693
 30
0
 11
0.2283
 21
0.2819
 31
0
 0 0
LINE
 8
TOOL_0
 5
124
 10
0.2283
 20
0.2819
 30
0
 11
0.1496
 21
0.2819
 31
0
 0 0
LINE
 8
TOOL_0
 5
125
 10
0.1496
 20
0.2819
 30
0
 11
0.0709
 21
0.2819
 31
0
 0 0
LINE
 8
TOOL_0
 5
126
 10
0.0709
 20
0.2819
 30
0
 11
0
 21
0.2819
 31
0
 0 0
LINE
 8
TOOL_0
 5
127
 10
0
 20
0.2819
 30
0
 11
0
 21
0.2945
 31
0
 0 0
LINE
 8
TOOL_0
 5
128
 10
0
 20
0.2945
 30
0
 11
0.0787
 21
0.2945
 31
0
 0 0
LINE
 8
TOOL_0
 5
129
 10
0.0787
 20
0.2945
 30
0
 11
0.1575
 21
0.2945
 31
0
 0 0
LINE
 8
TOOL_0
 5
12A
 10
0.1575
 20
0.2945
 30
0
 11
0.2283
 21
0.2945
 31
0
 0 0
LINE
 8
TOOL_0
 5
12B
 10
0.2283
 20
0.2945
 30
0
 11
0.2283
 21
0.2819
 31
0
 0 0
LINE
 8
TOOL_0
 5
12C
 10
0.2283
 20
0.2819
 30
0
 11
0.2283
 21
0.2945
 31
0
 0 0
LINE
 8
TOOL_0
 5
12D
 10
0.2283
 20
0.2945
 30
0
 11
0.1496
 21
0.2945
 31
0
 0 0
LINE
 8
TOOL_0
 5
12E
 10
0.1496
 20
0.2945
 30
0
 11
0.0709
 21
0.2945
 31
0
 0 0
LINE
 8
TOOL_0
 5
12F
 10
0.0709
 20
0.2945
 30
0
 11
0
 21
0.2945
 31
0
 0 0
LINE
 8
TOOL_0
 5
130
 10
0
 20
0.2945
 30
0
 11
0
 21
0.3071
 31
0
 0 0
LINE
 8
TOOL_0
 5
131
 10
0
 20
0.3071
 30
0
 11
0.0787
 21
0.3071
 31
0
 0 0
LINE
 8
TOOL_0
 5
132
 10
0.0787
 20
0.3071
 30
0
 11
0.1575
 21
0.3071
 31
0
 0 0
LINE
 8
TOOL_0
 5
133
 10
0.1575
 20
0.3071
 30
0
 11
0.2283
 21
0.3071
 31
0
 0 0
LINE
 8
TOOL_0
 5
134
 10
0.2283
 20
0.3071
 30
0
 11
0.2283
 21
0.2945
 31
0
 0 0
LINE
 8
TOOL_0
 5
135
 10
0.2283
 20
0.2945
 30
0
 11
0.2283
 21
0.3071
 31
0
 0 0
LINE
 8
TOOL_0
 5
136
 10
0.2283
 20
0.3071
 30
0
 11
0.1496
 21
0.3071
 31
0
 0 0
LINE
 8
TOOL_0
 5
137
 10
0.1496
 20
0.3071
 30
0
 11
0.0709
 21
0.3071
 31
0
 0 0
LINE
 8
TOOL_0
 5
138
 10
0.0709
 20
0.3071
 30
0
 11
0
 21
0.3071
 31
0
 0 0
LINE
 8
TOOL_0
 5
139
 10
0
 20
0.3071
 30
0
 11
0
 21
0.3197
 31
0
 0 0
LINE
 8
TOOL_0
 5
13A
 10
0
 20
0.3197
 30
0
 11
0.0787
 21
0.3197
 31
0
 0 0
LINE
 8
TOOL_0
 5
13B
 10
0.0787
 20
0.3197
 30
0
 11
0.1575
 21
0.3197
 31
0
 0 0
LINE
 8
TOOL_0
 5
13C
 10
0.1575
 20
0.3197
 30
0
 11
0.2283
 21
0.3197
 31
0
 0 0
LINE
 8
TOOL_0
 5
13D
 10
0.2283
 20
0.3197
 30
0
 11
0.2283
 21
0.3071
 31
0
 0 0
LINE
 8
TOOL_0
 5
13E
 10
0.2283
 20
0.3071
 30
0
 11
0.2283
 21
0.3197
 31
0
 0 0
LINE
 8
TOOL_0
 5
13F
 10
0.2283
 20
0.3197
 30
0
 11
0.1496
 21
0.3197
 31
0
 0 0
LINE
 8
TOOL_0
 5
140
 10
0.1496
 20
0.3197
 30
0
 11
0.0709
 21
0.3197
 31
0
 0 0
LINE
 8
TOOL_0
 5
141
 10
0.0709
 20
0.3197
 30
0
 11
0
 21
0.3197
 31
0
 0 0
LINE
 8
TOOL_0
 5
142
 10
0
 20
0.3197
 30
0
 11
0
 21
0.3323
 31
0
 0 0
LINE
 8
TOOL_0
 5
143
 10
0
 20
0.3323
 30
0
 11
0.0787
 21
0.3323
 31
0
 0 0
LINE
 8
TOOL_0
 5
144
 10
0.0787
 20
0.3323
 30
0
 11
0.1575
 21
0.3323
 31
0
 0 0
LINE
 8
TOOL_0
 5
145
 10
0.1575
 20
0.3323
 30
0
 11
0.2283
 21
0.3323
 31
0
 0 0
LINE
 8
TOOL_0
 5
146
 10
0.2283
 20
0.3323
 30
0
 11
0.2283
 21
0.3197
 31
0
 0 0
LINE
 8
TOOL_0
 5
147
 10
0.2283
 20
0.3197
 30
0
 11
0.2283
 21
0.3323
 31
0
 0 0
LINE
 8
TOOL_0
 5
148
 10
0.2283
 20
0.3323
 30
0
 11
0.1496
 21
0.3323
 31
0
 0 0
LINE
 8
TOOL_0
 5
149
 10
0.1496
 20
0.3323
 30
0
 11
0.0709
 21
0.3323
 31
0
 0 0
LINE
 8
TOOL_0
 5
14A
 10
0.0709
 20
0.3323
 30
0
 11
0
 21
0.3323
 31
0
 0 0
LINE
 8
TOOL_0
 5
14B
 10
0
 20
0.3323
 30
0
 11
0
 21
0.3449
 31
0
 0 0
LINE
 8
TOOL_0
 5
14C
 10
0
 20
0.3449
 30
0
 11
0.0787
 21
0.3449
 31
0
 0 0
LINE
 8
TOOL_0
 5
14D
 10
0.0787
 20
0.3449
 30
0
 11
0.1575
 21
0.3449
 31
0
 0 0
LINE
 8
TOOL_0
 5
14E
 10
0.1575
 20
0.3449
 30
0
 11
0.2283
 21
0.3449
 31
0
 0 0
LINE
 8
TOOL_0
 5
14F
 10
0.2283
 20
0.3449
 30
0
 11
0.2283
 21
0.3323
 31
0
 0 0
LINE
 8
TOOL_0
 5
150
 10
0.2283
 20
0.3323
 30
0
 11
0.4567
 21
0.2693
 31
0
 0 0
LINE
 8
TOOL_0
 5
151
 10
0.4567
 20
0.2693
 30
0
 11
0.3779
 21
0.2693
 31
0
 0 0
LINE
 8
TOOL_0
 5
152
 10
0.3779
 20
0.2693
 30
0
 11
0.2992
 21
0.2693
 31
0
 0 0
LINE
 8
TOOL_0
 5
153
 10
0.2992
 20
0.2693
 30
0
 11
0.2283
 21
0.2693
 31
0
 0 0
LINE
 8
TOOL_0
 5
154
 10
0.2283
 20
0.2693
 30
0
 11
0.2283
 21
0.2819
 31
0
 0 0
LINE
 8
TOOL_0
 5
155
 10
0.2283
 20
0.2819
 30
0
 11
0.3071
 21
0.2819
 31
0
 0 0
LINE
 8
TOOL_0
 5
156
 10
0.3071
 20
0.2819
 30
0
 11
0.3858
 21
0.2819
 31
0
 0 0
LINE
 8
TOOL_0
 5
157
 10
0.3858
 20
0.2819
 30
0
 11
0.4567
 21
0.2819
 31
0
 0 0
LINE
 8
TOOL_0
 5
158
 10
0.4567
 20
0.2819
 30
0
 11
0.4567
 21
0.2693
 31
0
 0 0
LINE
 8
TOOL_0
 5
159
 10
0.4567
 20
0.2693
 30
0
 11
0.4567
 21
0.2819
 31
0
 0 0
LINE
 8
TOOL_0
 5
15A
 10
0.4567
 20
0.2819
 30
0
 11
0.3779
 21
0.2819
 31
0
 0 0
LINE
 8
TOOL_0
 5
15B
 10
0.3779
 20
0.2819
 30
0
 11
0.2992
 21
0.2819
 31
0
 0 0
LINE
 8
TOOL_0
 5
15C
 10
0.2992
 20
0.2819
 30
0
 11
0.2283
 21
0.2819
 31
0
 0 0
LINE
 8
TOOL_0
 5
15D
 10
0.2283
 20
0.2819
 30
0
 11
0.2283
 21
0.2945
 31
0
 0 0
LINE
 8
TOOL_0
 5
15E
 10
0.2283
 20
0.2945
 30
0
 11
0.3071
 21
0.2945
 31
0
 0 0
LINE
 8
TOOL_0
 5
15F
 10
0.3071
 20
0.2945
 30
0
 11
0.3858
 21
0.2945
 31
0
 0 0
LINE
 8
TOOL_0
 5
160
 10
0.3858
 20
0.2945
 30
0
 11
0.4567
 21
0.2945
 31
0
 0 0
LINE
 8
TOOL_0
 5
161
 10
0.4567
 20
0.2945
 30
0
 11
0.4567
 21
0.2819
 31
0
 0 0
LINE
 8
TOOL_0
 5
162
 10
0.4567
 20
0.2819
 30
0
 11
0.622
 21
0.3678
 31
0
 0 0
LINE
 8
TOOL_0
 5
163
 10
0.622
 20
0.3678
 30
0
 11
0.622
 21
0.289
 31
0
 0 0
LINE
 8
TOOL_0
 5
164
 10
0.622
 20
0.289
 30
0
 11
0.622
 21
0.2103
 31
0
 0 0
LINE
 8
TOOL_0
 5
165
 10
0.622
 20
0.2103
 30
0
 11
0.622
 21
0.1686
 31
0
 0 0
LINE
 8
TOOL_0
 5
166
 10
0.622
 20
0.1686
 30
0
 11
0.5512
 21
0.1686
 31
0
 0 0
LINE
 8
TOOL_0
 5
167
 10
0.5512
 20
0.1686
 30
0
 11
0.5512
 21
0.2473
 31
0
 0 0
LINE
 8
TOOL_0
 5
168
 10
0.5512
 20
0.2473
 30
0
 11
0.5512
 21
0.326
 31
0
 0 0
LINE
 8
TOOL_0
 5
169
 10
0.5512
 20
0.326
 30
0
 11
0.5512
 21
0.3678
 31
0
 0 0
LINE
 8
TOOL_0
 5
16A
 10
0.5512
 20
0.3678
 30
0
 11
0.622
 21
0.3678
 31
0
 0 0
LINE
 8
TOOL_0
 5
16B
 10
0.622
 20
0.3678
 30
0
 11
0.6929
 21
0.3678
 31
0
 0 0
LINE
 8
TOOL_0
 5
16C
 10
0.6929
 20
0.3678
 30
0
 11
0.6929
 21
0.289
 31
0
 0 0
LINE
 8
TOOL_0
 5
16D
 10
0.6929
 20
0.289
 30
0
 11
0.6929
 21
0.2103
 31
0
 0 0
LINE
 8
TOOL_0
 5
16E
 10
0.6929
 20
0.2103
 30
0
 11
0.6929
 21
0.1686
 31
0
 0 0
LINE
 8
TOOL_0
 5
16F
 10
0.6929
 20
0.1686
 30
0
 11
0.622
 21
0.1686
 31
0
 0 0
LINE
 8
TOOL_0
 5
170
 10
0.622
 20
0.1686
 30
0
 11
0.622
 21
0.2473
 31
0
 0 0
LINE
 8
TOOL_0
 5
171
 10
0.622
 20
0.2473
 30
0
 11
0.622
 21
0.326
 31
0
 0 0
LINE
 8
TOOL_0
 5
172
 10
0.622
 20
0.326
 30
0
 11
0.622
 21
0.3678
 31
0
 0 0
LINE
 8
TOOL_0
 5
173
 10
0.622
 20
0.3678
 30
0
 11
0.6929
 21
0.3678
 31
0
 0 0
LINE
 8
TOOL_0
 5
174
 10
0.6929
 20
0.3678
 30
0
 11
0.7638
 21
0.3678
 31
0
 0 0
LINE
 8
TOOL_0
 5
175
 10
0.7638
 20
0.3678
 30
0
 11
0.7638
 21
0.289
 31
0
 0 0
LINE
 8
TOOL_0
 5
176
 10
0.7638
 20
0.289
 30
0
 11
0.7638
 21
0.2103
 31
0
 0 0
LINE
 8
TOOL_0
 5
177
 10
0.7638
 20
0.2103
 30
0
 11
0.7638
 21
0.1686
 31
0
 0 0
LINE
 8
TOOL_0
 5
178
 10
0.7638
 20
0.1686
 30
0
 11
0.6929
 21
0.1686
 31
0
 0 0
LINE
 8
TOOL_0
 5
179
 10
0.6929
 20
0.1686
 30
0
 11
0.6929
 21
0.2473
 31
0
 0 0
LINE
 8
TOOL_0
 5
17A
 10
0.6929
 20
0.2473
 30
0
 11
0.6929
 21
0.326
 31
0
 0 0
LINE
 8
TOOL_0
 5
17B
 10
0.6929
 20
0.326
 30
0
 11
0.6929
 21
0.3678
 31
0
 0 0
LINE
 8
TOOL_0
 5
17C
 10
0.6929
 20
0.3678
 30
0
 11
0.7638
 21
0.3678
 31
0
 0 0
LINE
 8
TOOL_0
 5
17D
 10
0.7638
 20
0.3678
 30
0
 11
0.8346
 21
0.3678
 31
0
 0 0
LINE
 8
TOOL_0
 5
17E
 10
0.8346
 20
0.3678
 30
0
 11
0.8346
 21
0.289
 31
0
 0 0
LINE
 8
TOOL_0
 5
17F
 10
0.8346
 20
0.289
 30
0
 11
0.8346
 21
0.2103
 31
0
 0 0
LINE
 8
TOOL_0
 5
180
 10
0.8346
 20
0.2103
 30
0
 11
0.8346
 21
0.1686
 31
0
 0 0
LINE
 8
TOOL_0
 5
181
 10
0.8346
 20
0.1686
 30
0
 11
0.7638
 21
0.1686
 31
0
 0 0
LINE
 8
TOOL_0
 5
182
 10
0.7638
 20
0.1686
 30
0
 11
0.7638
 21
0.2473
 31
0
 0 0
LINE
 8
TOOL_0
 5
183
 10
0.7638
 20
0.2473
 30
0
 11
0.7638
 21
0.326
 31
0
 0 0
LINE
 8
TOOL_0
 5
184
 10
0.7638
 20
0.326
 30
0
 11
0.7638
 21
0.3678
 31
0
 0 0
LINE
 8
TOOL_0
 5
185
 10
0.7638
 20
0.3678
 30
0
 11
0.8346
 21
0.3678
 31
0
 0 0
LINE
 8
TOOL_0
 5
186
 10
0.8346
 20
0.3678
 30
0
 11
0.8346
 21
0.3678
 31
0
 0 0
ENDSEC
 0
EOF