0
SECTION
2
TABLES
0
TABLE
2
LAYER
70
0
0
LAYER
2
LAYER_NAME
70
0
62
1
6
CONTINUOUS
0
ENDTAB
0
ENDSEC
 0
SECTION
 2
ENTITIES
 0
LINE
 8
TOOL_0
 5
1
 10
0.0101
 20
0.1018
 30
0
 11
0.0889
 21
0.1018
 31
0
 0 0
LINE
 8
TOOL_0
 5
2
 10
0.0889
 20
0.1018
 30
0
 11
0.1676
 21
0.1018
 31
0
 0 0
LINE
 8
TOOL_0
 5
3
 10
0.1676
 20
0.1018
 30
0
 11
0.2464
 21
0.1018
 31
0
 0 0
LINE
 8
TOOL_0
 5
4
 10
0.2464
 20
0.1018
 30
0
 11
0.3251
 21
0.1018
 31
0
 0 0
LINE
 8
TOOL_0
 5
5
 10
0.3251
 20
0.1018
 30
0
 11
0.4039
 21
0.1018
 31
0
 0 0
LINE
 8
TOOL_0
 5
6
 10
0.4039
 20
0.1018
 30
0
 11
0.4826
 21
0.1018
 31
0
 0 0
LINE
 8
TOOL_0
 5
7
 10
0.4826
 20
0.1018
 30
0
 11
0.5613
 21
0.1018
 31
0
 0 0
LINE
 8
TOOL_0
 5
8
 10
0.5613
 20
0.1018
 30
0
 11
0.6401
 21
0.1018
 31
0
 0 0
LINE
 8
TOOL_0
 5
9
 10
0.6401
 20
0.1018
 30
0
 11
0.661
 21
0.1018
 31
0
 0 0
LINE
 8
TOOL_0
 5
A
 10
0.661
 20
0.1018
 30
0
 11
0.661
 21
0.0908
 31
0
 0 0
LINE
 8
TOOL_0
 5
B
 10
0.661
 20
0.0908
 30
0
 11
0.6644
 21
0.0808
 31
0
 0 0
LINE
 8
TOOL_0
 5
C
 10
0.6644
 20
0.0808
 30
0
 11
0.6673
 21
0.0724
 31
0
 0 0
LINE
 8
TOOL_0
 5
D
 10
0.6673
 20
0.0724
 30
0
 11
0.6687
 21
0.0679
 31
0
 0 0
LINE
 8
TOOL_0
 5
E
 10
0.6687
 20
0.0679
 30
0
 11
0.6705
 21
0.0605
 31
0
 0 0
LINE
 8
TOOL_0
 5
F
 10
0.6705
 20
0.0605
 30
0
 11
0.6712
 21
0.0553
 31
0
 0 0
LINE
 8
TOOL_0
 5
10
 10
0.6712
 20
0.0553
 30
0
 11
0.6712
 21
0.0526
 31
0
 0 0
LINE
 8
TOOL_0
 5
11
 10
0.6712
 20
0.0526
 30
0
 11
0.6696
 21
0.0526
 31
0
 0 0
LINE
 8
TOOL_0
 5
12
 10
0.6696
 20
0.0526
 30
0
 11
0.6712
 21
0.0526
 31
0
 0 0
LINE
 8
TOOL_0
 5
13
 10
0.6712
 20
0.0526
 30
0
 11
0.6712
 21
0.05
 31
0
 0 0
LINE
 8
TOOL_0
 5
14
 10
0.6712
 20
0.05
 30
0
 11
0.6705
 21
0.0448
 31
0
 0 0
LINE
 8
TOOL_0
 5
15
 10
0.6705
 20
0.0448
 30
0
 11
0.6687
 21
0.0373
 31
0
 0 0
LINE
 8
TOOL_0
 5
16
 10
0.6687
 20
0.0373
 30
0
 11
0.6673
 21
0.0328
 31
0
 0 0
LINE
 8
TOOL_0
 5
17
 10
0.6673
 20
0.0328
 30
0
 11
0.6644
 21
0.0244
 31
0
 0 0
LINE
 8
TOOL_0
 5
18
 10
0.6644
 20
0.0244
 30
0
 11
0.661
 21
0.0144
 31
0
 0 0
LINE
 8
TOOL_0
 5
19
 10
0.661
 20
0.0144
 30
0
 11
0.661
 21
0.0034
 31
0
 0 0
LINE
 8
TOOL_0
 5
1A
 10
0.661
 20
0.0034
 30
0
 11
0.5823
 21
0.0034
 31
0
 0 0
LINE
 8
TOOL_0
 5
1B
 10
0.5823
 20
0.0034
 30
0
 11
0.5035
 21
0.0034
 31
0
 0 0
LINE
 8
TOOL_0
 5
1C
 10
0.5035
 20
0.0034
 30
0
 11
0.4248
 21
0.0034
 31
0
 0 0
LINE
 8
TOOL_0
 5
1D
 10
0.4248
 20
0.0034
 30
0
 11
0.3461
 21
0.0034
 31
0
 0 0
LINE
 8
TOOL_0
 5
1E
 10
0.3461
 20
0.0034
 30
0
 11
0.2673
 21
0.0034
 31
0
 0 0
LINE
 8
TOOL_0
 5
1F
 10
0.2673
 20
0.0034
 30
0
 11
0.1886
 21
0.0034
 31
0
 0 0
LINE
 8
TOOL_0
 5
20
 10
0.1886
 20
0.0034
 30
0
 11
0.1098
 21
0.0034
 31
0
 0 0
LINE
 8
TOOL_0
 5
21
 10
0.1098
 20
0.0034
 30
0
 11
0.0311
 21
0.0034
 31
0
 0 0
LINE
 8
TOOL_0
 5
22
 10
0.0311
 20
0.0034
 30
0
 11
0.0101
 21
0.0034
 31
0
 0 0
LINE
 8
TOOL_0
 5
23
 10
0.0101
 20
0.0034
 30
0
 11
0.0101
 21
0.0144
 31
0
 0 0
LINE
 8
TOOL_0
 5
24
 10
0.0101
 20
0.0144
 30
0
 11
0.0068
 21
0.0244
 31
0
 0 0
LINE
 8
TOOL_0
 5
25
 10
0.0068
 20
0.0244
 30
0
 11
0.0038
 21
0.0328
 31
0
 0 0
LINE
 8
TOOL_0
 5
26
 10
0.0038
 20
0.0328
 30
0
 11
0.0025
 21
0.0373
 31
0
 0 0
LINE
 8
TOOL_0
 5
27
 10
0.0025
 20
0.0373
 30
0
 11
0.0007
 21
0.0448
 31
0
 0 0
LINE
 8
TOOL_0
 5
28
 10
0.0007
 20
0.0448
 30
0
 11
0
 21
0.05
 31
0
 0 0
LINE
 8
TOOL_0
 5
29
 10
0
 20
0.05
 30
0
 11
0
 21
0.0526
 31
0
 0 0
LINE
 8
TOOL_0
 5
2A
 10
0
 20
0.0526
 30
0
 11
0.0015
 21
0.0526
 31
0
 0 0
LINE
 8
TOOL_0
 5
2B
 10
0.0015
 20
0.0526
 30
0
 11
0
 21
0.0526
 31
0
 0 0
LINE
 8
TOOL_0
 5
2C
 10
0
 20
0.0526
 30
0
 11
0
 21
0.055
 31
0
 0 0
LINE
 8
TOOL_0
 5
2D
 10
0
 20
0.055
 30
0
 11
0.0007
 21
0.0605
 31
0
 0 0
LINE
 8
TOOL_0
 5
2E
 10
0.0007
 20
0.0605
 30
0
 11
0.0025
 21
0.0679
 31
0
 0 0
LINE
 8
TOOL_0
 5
2F
 10
0.0025
 20
0.0679
 30
0
 11
0.0038
 21
0.0724
 31
0
 0 0
LINE
 8
TOOL_0
 5
30
 10
0.0038
 20
0.0724
 30
0
 11
0.0068
 21
0.0808
 31
0
 0 0
LINE
 8
TOOL_0
 5
31
 10
0.0068
 20
0.0808
 30
0
 11
0.0101
 21
0.0908
 31
0
 0 0
LINE
 8
TOOL_0
 5
32
 10
0.0101
 20
0.0908
 30
0
 11
0.0101
 21
0.1018
 31
0
 0 0
LINE
 8
TOOL_0
 5
33
 10
0.0101
 20
0.1018
 30
0
 11
0.5243
 21
0.4617
 31
0
 0 0
LINE
 8
TOOL_0
 5
34
 10
0.5243
 20
0.4617
 30
0
 11
0.5243
 21
0.383
 31
0
 0 0
LINE
 8
TOOL_0
 5
35
 10
0.5243
 20
0.383
 30
0
 11
0.5243
 21
0.3043
 31
0
 0 0
LINE
 8
TOOL_0
 5
36
 10
0.5243
 20
0.3043
 30
0
 11
0.5243
 21
0.2255
 31
0
 0 0
LINE
 8
TOOL_0
 5
37
 10
0.5243
 20
0.2255
 30
0
 11
0.5243
 21
0.1665
 31
0
 0 0
LINE
 8
TOOL_0
 5
38
 10
0.5243
 20
0.1665
 30
0
 11
0.4456
 21
0.1665
 31
0
 0 0
LINE
 8
TOOL_0
 5
39
 10
0.4456
 20
0.1665
 30
0
 11
0.3669
 21
0.1665
 31
0
 0 0
LINE
 8
TOOL_0
 5
3A
 10
0.3669
 20
0.1665
 30
0
 11
0.2881
 21
0.1665
 31
0
 0 0
LINE
 8
TOOL_0
 5
3B
 10
0.2881
 20
0.1665
 30
0
 11
0.2094
 21
0.1665
 31
0
 0 0
LINE
 8
TOOL_0
 5
3C
 10
0.2094
 20
0.1665
 30
0
 11
0.1306
 21
0.1665
 31
0
 0 0
LINE
 8
TOOL_0
 5
3D
 10
0.1306
 20
0.1665
 30
0
 11
0.0519
 21
0.1665
 31
0
 0 0
LINE
 8
TOOL_0
 5
3E
 10
0.0519
 20
0.1665
 30
0
 11
0.0125
 21
0.1665
 31
0
 0 0
LINE
 8
TOOL_0
 5
3F
 10
0.0125
 20
0.1665
 30
0
 11
0.0125
 21
0.2403
 31
0
 0 0
LINE
 8
TOOL_0
 5
40
 10
0.0125
 20
0.2403
 30
0
 11
0.0141
 21
0.2403
 31
0
 0 0
LINE
 8
TOOL_0
 5
41
 10
0.0141
 20
0.2403
 30
0
 11
0.0125
 21
0.2403
 31
0
 0 0
LINE
 8
TOOL_0
 5
42
 10
0.0125
 20
0.2403
 30
0
 11
0.0125
 21
0.319
 31
0
 0 0
LINE
 8
TOOL_0
 5
43
 10
0.0125
 20
0.319
 30
0
 11
0.0125
 21
0.3879
 31
0
 0 0
LINE
 8
TOOL_0
 5
44
 10
0.0125
 20
0.3879
 30
0
 11
0.0141
 21
0.3879
 31
0
 0 0
LINE
 8
TOOL_0
 5
45
 10
0.0141
 20
0.3879
 30
0
 11
0.0125
 21
0.3879
 31
0
 0 0
LINE
 8
TOOL_0
 5
46
 10
0.0125
 20
0.3879
 30
0
 11
0.0125
 21
0.4617
 31
0
 0 0
LINE
 8
TOOL_0
 5
47
 10
0.0125
 20
0.4617
 30
0
 11
0.0913
 21
0.4617
 31
0
 0 0
LINE
 8
TOOL_0
 5
48
 10
0.0913
 20
0.4617
 30
0
 11
0.17
 21
0.4617
 31
0
 0 0
LINE
 8
TOOL_0
 5
49
 10
0.17
 20
0.4617
 30
0
 11
0.2487
 21
0.4617
 31
0
 0 0
LINE
 8
TOOL_0
 5
4A
 10
0.2487
 20
0.4617
 30
0
 11
0.3275
 21
0.4617
 31
0
 0 0
LINE
 8
TOOL_0
 5
4B
 10
0.3275
 20
0.4617
 30
0
 11
0.4062
 21
0.4617
 31
0
 0 0
LINE
 8
TOOL_0
 5
4C
 10
0.4062
 20
0.4617
 30
0
 11
0.485
 21
0.4617
 31
0
 0 0
LINE
 8
TOOL_0
 5
4D
 10
0.485
 20
0.4617
 30
0
 11
0.5243
 21
0.4617
 31
0
 0 0
LINE
 8
TOOL_0
 5
4E
 10
0.5243
 20
0.4617
 30
0
 11
0.5067
 21
0.6602
 31
0
 0 0
LINE
 8
TOOL_0
 5
4F
 10
0.5067
 20
0.6602
 30
0
 11
0.5067
 21
0.5814
 31
0
 0 0
LINE
 8
TOOL_0
 5
50
 10
0.5067
 20
0.5814
 30
0
 11
0.5067
 21
0.5027
 31
0
 0 0
LINE
 8
TOOL_0
 5
51
 10
0.5067
 20
0.5027
 30
0
 11
0.5067
 21
0.4909
 31
0
 0 0
LINE
 8
TOOL_0
 5
52
 10
0.5067
 20
0.4909
 30
0
 11
0.428
 21
0.4909
 31
0
 0 0
LINE
 8
TOOL_0
 5
53
 10
0.428
 20
0.4909
 30
0
 11
0.3493
 21
0.4909
 31
0
 0 0
LINE
 8
TOOL_0
 5
54
 10
0.3493
 20
0.4909
 30
0
 11
0.2705
 21
0.4909
 31
0
 0 0
LINE
 8
TOOL_0
 5
55
 10
0.2705
 20
0.4909
 30
0
 11
0.1918
 21
0.4909
 31
0
 0 0
LINE
 8
TOOL_0
 5
56
 10
0.1918
 20
0.4909
 30
0
 11
0.113
 21
0.4909
 31
0
 0 0
LINE
 8
TOOL_0
 5
57
 10
0.113
 20
0.4909
 30
0
 11
0.0343
 21
0.4909
 31
0
 0 0
LINE
 8
TOOL_0
 5
58
 10
0.0343
 20
0.4909
 30
0
 11
0.0185
 21
0.4909
 31
0
 0 0
LINE
 8
TOOL_0
 5
59
 10
0.0185
 20
0.4909
 30
0
 11
0.0185
 21
0.5696
 31
0
 0 0
LINE
 8
TOOL_0
 5
5A
 10
0.0185
 20
0.5696
 30
0
 11
0.0185
 21
0.5755
 31
0
 0 0
LINE
 8
TOOL_0
 5
5B
 10
0.0185
 20
0.5755
 30
0
 11
0.0201
 21
0.5755
 31
0
 0 0
LINE
 8
TOOL_0
 5
5C
 10
0.0201
 20
0.5755
 30
0
 11
0.0185
 21
0.5755
 31
0
 0 0
LINE
 8
TOOL_0
 5
5D
 10
0.0185
 20
0.5755
 30
0
 11
0.0185
 21
0.6543
 31
0
 0 0
LINE
 8
TOOL_0
 5
5E
 10
0.0185
 20
0.6543
 30
0
 11
0.0185
 21
0.6602
 31
0
 0 0
LINE
 8
TOOL_0
 5
5F
 10
0.0185
 20
0.6602
 30
0
 11
0.0973
 21
0.6602
 31
0
 0 0
LINE
 8
TOOL_0
 5
60
 10
0.0973
 20
0.6602
 30
0
 11
0.176
 21
0.6602
 31
0
 0 0
LINE
 8
TOOL_0
 5
61
 10
0.176
 20
0.6602
 30
0
 11
0.2548
 21
0.6602
 31
0
 0 0
LINE
 8
TOOL_0
 5
62
 10
0.2548
 20
0.6602
 30
0
 11
0.3335
 21
0.6602
 31
0
 0 0
LINE
 8
TOOL_0
 5
63
 10
0.3335
 20
0.6602
 30
0
 11
0.4122
 21
0.6602
 31
0
 0 0
LINE
 8
TOOL_0
 5
64
 10
0.4122
 20
0.6602
 30
0
 11
0.491
 21
0.6602
 31
0
 0 0
LINE
 8
TOOL_0
 5
65
 10
0.491
 20
0.6602
 30
0
 11
0.5067
 21
0.6602
 31
0
 0 0
LINE
 8
TOOL_0
 5
66
 10
0.5067
 20
0.6602
 30
0
 11
0.0202
 21
0.7028
 31
0
 0 0
LINE
 8
TOOL_0
 5
67
 10
0.0202
 20
0.7028
 30
0
 11
0.0202
 21
0.7678
 31
0
 0 0
LINE
 8
TOOL_0
 5
68
 10
0.0202
 20
0.7678
 30
0
 11
0.0217
 21
0.7678
 31
0
 0 0
LINE
 8
TOOL_0
 5
69
 10
0.0217
 20
0.7678
 30
0
 11
0.0202
 21
0.7678
 31
0
 0 0
LINE
 8
TOOL_0
 5
6A
 10
0.0202
 20
0.7678
 30
0
 11
0.0202
 21
0.8328
 31
0
 0 0
LINE
 8
TOOL_0
 5
6B
 10
0.0202
 20
0.8328
 30
0
 11
0.0989
 21
0.8328
 31
0
 0 0
LINE
 8
TOOL_0
 5
6C
 10
0.0989
 20
0.8328
 30
0
 11
0.1776
 21
0.8328
 31
0
 0 0
LINE
 8
TOOL_0
 5
6D
 10
0.1776
 20
0.8328
 30
0
 11
0.2564
 21
0.8328
 31
0
 0 0
LINE
 8
TOOL_0
 5
6E
 10
0.2564
 20
0.8328
 30
0
 11
0.3351
 21
0.8328
 31
0
 0 0
LINE
 8
TOOL_0
 5
6F
 10
0.3351
 20
0.8328
 30
0
 11
0.4139
 21
0.8328
 31
0
 0 0
LINE
 8
TOOL_0
 5
70
 10
0.4139
 20
0.8328
 30
0
 11
0.4926
 21
0.8328
 31
0
 0 0
LINE
 8
TOOL_0
 5
71
 10
0.4926
 20
0.8328
 30
0
 11
0.5083
 21
0.8328
 31
0
 0 0
LINE
 8
TOOL_0
 5
72
 10
0.5083
 20
0.8328
 30
0
 11
0.5083
 21
0.754
 31
0
 0 0
LINE
 8
TOOL_0
 5
73
 10
0.5083
 20
0.754
 30
0
 11
0.5083
 21
0.7028
 31
0
 0 0
LINE
 8
TOOL_0
 5
74
 10
0.5083
 20
0.7028
 30
0
 11
0.4296
 21
0.7028
 31
0
 0 0
LINE
 8
TOOL_0
 5
75
 10
0.4296
 20
0.7028
 30
0
 11
0.3509
 21
0.7028
 31
0
 0 0
LINE
 8
TOOL_0
 5
76
 10
0.3509
 20
0.7028
 30
0
 11
0.2721
 21
0.7028
 31
0
 0 0
LINE
 8
TOOL_0
 5
77
 10
0.2721
 20
0.7028
 30
0
 11
0.1934
 21
0.7028
 31
0
 0 0
LINE
 8
TOOL_0
 5
78
 10
0.1934
 20
0.7028
 30
0
 11
0.1146
 21
0.7028
 31
0
 0 0
LINE
 8
TOOL_0
 5
79
 10
0.1146
 20
0.7028
 30
0
 11
0.0359
 21
0.7028
 31
0
 0 0
LINE
 8
TOOL_0
 5
7A
 10
0.0359
 20
0.7028
 30
0
 11
0.0202
 21
0.7028
 31
0
 0 0
LINE
 8
TOOL_0
 5
7B
 10
0.0202
 20
0.7028
 30
0
 11
0.4486
 21
0.9881
 31
0
 0 0
LINE
 8
TOOL_0
 5
7C
 10
0.4486
 20
0.9881
 30
0
 11
0.3699
 21
0.9881
 31
0
 0 0
LINE
 8
TOOL_0
 5
7D
 10
0.3699
 20
0.9881
 30
0
 11
0.2911
 21
0.9881
 31
0
 0 0
LINE
 8
TOOL_0
 5
7E
 10
0.2911
 20
0.9881
 30
0
 11
0.2636
 21
0.9881
 31
0
 0 0
LINE
 8
TOOL_0
 5
7F
 10
0.2636
 20
0.9881
 30
0
 11
0.2636
 21
1.0669
 31
0
 0 0
LINE
 8
TOOL_0
 5
80
 10
0.2636
 20
1.0669
 30
0
 11
0.2636
 21
1.1456
 31
0
 0 0
LINE
 8
TOOL_0
 5
81
 10
0.2636
 20
1.1456
 30
0
 11
0.2636
 21
1.2244
 31
0
 0 0
LINE
 8
TOOL_0
 5
82
 10
0.2636
 20
1.2244
 30
0
 11
0.2636
 21
1.3031
 31
0
 0 0
LINE
 8
TOOL_0
 5
83
 10
0.2636
 20
1.3031
 30
0
 11
0.2636
 21
1.3425
 31
0
 0 0
LINE
 8
TOOL_0
 5
84
 10
0.2636
 20
1.3425
 30
0
 11
0.3423
 21
1.3425
 31
0
 0 0
LINE
 8
TOOL_0
 5
85
 10
0.3423
 20
1.3425
 30
0
 11
0.421
 21
1.3425
 31
0
 0 0
LINE
 8
TOOL_0
 5
86
 10
0.421
 20
1.3425
 30
0
 11
0.4486
 21
1.3425
 31
0
 0 0
LINE
 8
TOOL_0
 5
87
 10
0.4486
 20
1.3425
 30
0
 11
0.4486
 21
1.2637
 31
0
 0 0
LINE
 8
TOOL_0
 5
88
 10
0.4486
 20
1.2637
 30
0
 11
0.4486
 21
1.185
 31
0
 0 0
LINE
 8
TOOL_0
 5
89
 10
0.4486
 20
1.185
 30
0
 11
0.4486
 21
1.1062
 31
0
 0 0
LINE
 8
TOOL_0
 5
8A
 10
0.4486
 20
1.1062
 30
0
 11
0.4486
 21
1.0275
 31
0
 0 0
LINE
 8
TOOL_0
 5
8B
 10
0.4486
 20
1.0275
 30
0
 11
0.4486
 21
0.9881
 31
0
 0 0
LINE
 8
TOOL_0
 5
8C
 10
0.4486
 20
0.9881
 30
0
 11
0.5563
 21
1.4902
 31
0
 0 0
LINE
 8
TOOL_0
 5
8D
 10
0.5563
 20
1.4902
 30
0
 11
0.5565
 21
1.4818
 31
0
 0 0
LINE
 8
TOOL_0
 5
8E
 10
0.5565
 20
1.4818
 30
0
 11
0.5565
 21
1.4724
 31
0
 0 0
LINE
 8
TOOL_0
 5
8F
 10
0.5565
 20
1.4724
 30
0
 11
0.5565
 21
1.4638
 31
0
 0 0
LINE
 8
TOOL_0
 5
90
 10
0.5565
 20
1.4638
 30
0
 11
0.5563
 21
1.4613
 31
0
 0 0
LINE
 8
TOOL_0
 5
91
 10
0.5563
 20
1.4613
 30
0
 11
0.5559
 21
1.459
 31
0
 0 0
LINE
 8
TOOL_0
 5
92
 10
0.5559
 20
1.459
 30
0
 11
0.5544
 21
1.4537
 31
0
 0 0
LINE
 8
TOOL_0
 5
93
 10
0.5544
 20
1.4537
 30
0
 11
0.5521
 21
1.4487
 31
0
 0 0
LINE
 8
TOOL_0
 5
94
 10
0.5521
 20
1.4487
 30
0
 11
0.5494
 21
1.4444
 31
0
 0 0
LINE
 8
TOOL_0
 5
95
 10
0.5494
 20
1.4444
 30
0
 11
0.5458
 21
1.4404
 31
0
 0 0
LINE
 8
TOOL_0
 5
96
 10
0.5458
 20
1.4404
 30
0
 11
0.5415
 21
1.4364
 31
0
 0 0
LINE
 8
TOOL_0
 5
97
 10
0.5415
 20
1.4364
 30
0
 11
0.5363
 21
1.4326
 31
0
 0 0
LINE
 8
TOOL_0
 5
98
 10
0.5363
 20
1.4326
 30
0
 11
0.5331
 21
1.4307
 31
0
 0 0
LINE
 8
TOOL_0
 5
99
 10
0.5331
 20
1.4307
 30
0
 11
0.5294
 21
1.4288
 31
0
 0 0
LINE
 8
TOOL_0
 5
9A
 10
0.5294
 20
1.4288
 30
0
 11
0.5252
 21
1.4271
 31
0
 0 0
LINE
 8
TOOL_0
 5
9B
 10
0.5252
 20
1.4271
 30
0
 11
0.5194
 21
1.425
 31
0
 0 0
LINE
 8
TOOL_0
 5
9C
 10
0.5194
 20
1.425
 30
0
 11
0.5143
 21
1.4234
 31
0
 0 0
LINE
 8
TOOL_0
 5
9D
 10
0.5143
 20
1.4234
 30
0
 11
0.5087
 21
1.422
 31
0
 0 0
LINE
 8
TOOL_0
 5
9E
 10
0.5087
 20
1.422
 30
0
 11
0.5027
 21
1.4208
 31
0
 0 0
LINE
 8
TOOL_0
 5
9F
 10
0.5027
 20
1.4208
 30
0
 11
0.4958
 21
1.4197
 31
0
 0 0
LINE
 8
TOOL_0
 5
A0
 10
0.4958
 20
1.4197
 30
0
 11
0.489
 21
1.4189
 31
0
 0 0
LINE
 8
TOOL_0
 5
A1
 10
0.489
 20
1.4189
 30
0
 11
0.4822
 21
1.4184
 31
0
 0 0
LINE
 8
TOOL_0
 5
A2
 10
0.4822
 20
1.4184
 30
0
 11
0.4753
 21
1.4181
 31
0
 0 0
LINE
 8
TOOL_0
 5
A3
 10
0.4753
 20
1.4181
 30
0
 11
0.4684
 21
1.4182
 31
0
 0 0
LINE
 8
TOOL_0
 5
A4
 10
0.4684
 20
1.4182
 30
0
 11
0.4227
 21
1.4182
 31
0
 0 0
LINE
 8
TOOL_0
 5
A5
 10
0.4227
 20
1.4182
 30
0
 11
0.4227
 21
1.4198
 31
0
 0 0
LINE
 8
TOOL_0
 5
A6
 10
0.4227
 20
1.4198
 30
0
 11
0.4227
 21
1.4182
 31
0
 0 0
LINE
 8
TOOL_0
 5
A7
 10
0.4227
 20
1.4182
 30
0
 11
0.377
 21
1.4182
 31
0
 0 0
LINE
 8
TOOL_0
 5
A8
 10
0.377
 20
1.4182
 30
0
 11
0.37
 21
1.4181
 31
0
 0 0
LINE
 8
TOOL_0
 5
A9
 10
0.37
 20
1.4181
 30
0
 11
0.3631
 21
1.4184
 31
0
 0 0
LINE
 8
TOOL_0
 5
AA
 10
0.3631
 20
1.4184
 30
0
 11
0.3563
 21
1.4189
 31
0
 0 0
LINE
 8
TOOL_0
 5
AB
 10
0.3563
 20
1.4189
 30
0
 11
0.3495
 21
1.4197
 31
0
 0 0
LINE
 8
TOOL_0
 5
AC
 10
0.3495
 20
1.4197
 30
0
 11
0.3426
 21
1.4208
 31
0
 0 0
LINE
 8
TOOL_0
 5
AD
 10
0.3426
 20
1.4208
 30
0
 11
0.3366
 21
1.422
 31
0
 0 0
LINE
 8
TOOL_0
 5
AE
 10
0.3366
 20
1.422
 30
0
 11
0.331
 21
1.4234
 31
0
 0 0
LINE
 8
TOOL_0
 5
AF
 10
0.331
 20
1.4234
 30
0
 11
0.3259
 21
1.425
 31
0
 0 0
LINE
 8
TOOL_0
 5
B0
 10
0.3259
 20
1.425
 30
0
 11
0.3202
 21
1.4271
 31
0
 0 0
LINE
 8
TOOL_0
 5
B1
 10
0.3202
 20
1.4271
 30
0
 11
0.3159
 21
1.4288
 31
0
 0 0
LINE
 8
TOOL_0
 5
B2
 10
0.3159
 20
1.4288
 30
0
 11
0.3122
 21
1.4307
 31
0
 0 0
LINE
 8
TOOL_0
 5
B3
 10
0.3122
 20
1.4307
 30
0
 11
0.309
 21
1.4326
 31
0
 0 0
LINE
 8
TOOL_0
 5
B4
 10
0.309
 20
1.4326
 30
0
 11
0.3038
 21
1.4364
 31
0
 0 0
LINE
 8
TOOL_0
 5
B5
 10
0.3038
 20
1.4364
 30
0
 11
0.2995
 21
1.4404
 31
0
 0 0
LINE
 8
TOOL_0
 5
B6
 10
0.2995
 20
1.4404
 30
0
 11
0.2959
 21
1.4444
 31
0
 0 0
LINE
 8
TOOL_0
 5
B7
 10
0.2959
 20
1.4444
 30
0
 11
0.2932
 21
1.4487
 31
0
 0 0
LINE
 8
TOOL_0
 5
B8
 10
0.2932
 20
1.4487
 30
0
 11
0.2909
 21
1.4537
 31
0
 0 0
LINE
 8
TOOL_0
 5
B9
 10
0.2909
 20
1.4537
 30
0
 11
0.2894
 21
1.459
 31
0
 0 0
LINE
 8
TOOL_0
 5
BA
 10
0.2894
 20
1.459
 30
0
 11
0.289
 21
1.4613
 31
0
 0 0
LINE
 8
TOOL_0
 5
BB
 10
0.289
 20
1.4613
 30
0
 11
0.2888
 21
1.4638
 31
0
 0 0
LINE
 8
TOOL_0
 5
BC
 10
0.2888
 20
1.4638
 30
0
 11
0.2888
 21
1.4724
 31
0
 0 0
LINE
 8
TOOL_0
 5
BD
 10
0.2888
 20
1.4724
 30
0
 11
0.2888
 21
1.4818
 31
0
 0 0
LINE
 8
TOOL_0
 5
BE
 10
0.2888
 20
1.4818
 30
0
 11
0.289
 21
1.4902
 31
0
 0 0
LINE
 8
TOOL_0
 5
BF
 10
0.289
 20
1.4902
 30
0
 11
0.3044
 21
1.4901
 31
0
 0 0
LINE
 8
TOOL_0
 5
C0
 10
0.3044
 20
1.4901
 30
0
 11
0.3097
 21
1.4901
 31
0
 0 0
LINE
 8
TOOL_0
 5
C1
 10
0.3097
 20
1.4901
 30
0
 11
0.3134
 21
1.4908
 31
0
 0 0
LINE
 8
TOOL_0
 5
C2
 10
0.3134
 20
1.4908
 30
0
 11
0.3146
 21
1.4916
 31
0
 0 0
LINE
 8
TOOL_0
 5
C3
 10
0.3146
 20
1.4916
 30
0
 11
0.3156
 21
1.4927
 31
0
 0 0
LINE
 8
TOOL_0
 5
C4
 10
0.3156
 20
1.4927
 30
0
 11
0.3162
 21
1.4938
 31
0
 0 0
LINE
 8
TOOL_0
 5
C5
 10
0.3162
 20
1.4938
 30
0
 11
0.3168
 21
1.4959
 31
0
 0 0
LINE
 8
TOOL_0
 5
C6
 10
0.3168
 20
1.4959
 30
0
 11
0.3172
 21
1.498
 31
0
 0 0
LINE
 8
TOOL_0
 5
C7
 10
0.3172
 20
1.498
 30
0
 11
0.3176
 21
1.5015
 31
0
 0 0
LINE
 8
TOOL_0
 5
C8
 10
0.3176
 20
1.5015
 30
0
 11
0.3181
 21
1.5105
 31
0
 0 0
LINE
 8
TOOL_0
 5
C9
 10
0.3181
 20
1.5105
 30
0
 11
0.3212
 21
1.5659
 31
0
 0 0
LINE
 8
TOOL_0
 5
CA
 10
0.3212
 20
1.5659
 30
0
 11
0.3255
 21
1.6445
 31
0
 0 0
LINE
 8
TOOL_0
 5
CB
 10
0.3255
 20
1.6445
 30
0
 11
0.3258
 21
1.6502
 31
0
 0 0
LINE
 8
TOOL_0
 5
CC
 10
0.3258
 20
1.6502
 30
0
 11
0.3262
 21
1.6522
 31
0
 0 0
LINE
 8
TOOL_0
 5
CD
 10
0.3262
 20
1.6522
 30
0
 11
0.3271
 21
1.6541
 31
0
 0 0
LINE
 8
TOOL_0
 5
CE
 10
0.3271
 20
1.6541
 30
0
 11
0.3284
 21
1.6558
 31
0
 0 0
LINE
 8
TOOL_0
 5
CF
 10
0.3284
 20
1.6558
 30
0
 11
0.3301
 21
1.657
 31
0
 0 0
LINE
 8
TOOL_0
 5
D0
 10
0.3301
 20
1.657
 30
0
 11
0.332
 21
1.6578
 31
0
 0 0
LINE
 8
TOOL_0
 5
D1
 10
0.332
 20
1.6578
 30
0
 11
0.3341
 21
1.658
 31
0
 0 0
LINE
 8
TOOL_0
 5
D2
 10
0.3341
 20
1.658
 30
0
 11
0.4128
 21
1.658
 31
0
 0 0
LINE
 8
TOOL_0
 5
D3
 10
0.4128
 20
1.658
 30
0
 11
0.4227
 21
1.658
 31
0
 0 0
LINE
 8
TOOL_0
 5
D4
 10
0.4227
 20
1.658
 30
0
 11
0.5014
 21
1.658
 31
0
 0 0
LINE
 8
TOOL_0
 5
D5
 10
0.5014
 20
1.658
 30
0
 11
0.5112
 21
1.658
 31
0
 0 0
LINE
 8
TOOL_0
 5
D6
 10
0.5112
 20
1.658
 30
0
 11
0.5133
 21
1.6578
 31
0
 0 0
LINE
 8
TOOL_0
 5
D7
 10
0.5133
 20
1.6578
 30
0
 11
0.5152
 21
1.657
 31
0
 0 0
LINE
 8
TOOL_0
 5
D8
 10
0.5152
 20
1.657
 30
0
 11
0.5169
 21
1.6558
 31
0
 0 0
LINE
 8
TOOL_0
 5
D9
 10
0.5169
 20
1.6558
 30
0
 11
0.5182
 21
1.6541
 31
0
 0 0
LINE
 8
TOOL_0
 5
DA
 10
0.5182
 20
1.6541
 30
0
 11
0.5191
 21
1.6522
 31
0
 0 0
LINE
 8
TOOL_0
 5
DB
 10
0.5191
 20
1.6522
 30
0
 11
0.5195
 21
1.6502
 31
0
 0 0
LINE
 8
TOOL_0
 5
DC
 10
0.5195
 20
1.6502
 30
0
 11
0.5238
 21
1.5715
 31
0
 0 0
LINE
 8
TOOL_0
 5
DD
 10
0.5238
 20
1.5715
 30
0
 11
0.5241
 21
1.5659
 31
0
 0 0
LINE
 8
TOOL_0
 5
DE
 10
0.5241
 20
1.5659
 30
0
 11
0.5272
 21
1.5105
 31
0
 0 0
LINE
 8
TOOL_0
 5
DF
 10
0.5272
 20
1.5105
 30
0
 11
0.5277
 21
1.5015
 31
0
 0 0
LINE
 8
TOOL_0
 5
E0
 10
0.5277
 20
1.5015
 30
0
 11
0.5281
 21
1.498
 31
0
 0 0
LINE
 8
TOOL_0
 5
E1
 10
0.5281
 20
1.498
 30
0
 11
0.5285
 21
1.4959
 31
0
 0 0
LINE
 8
TOOL_0
 5
E2
 10
0.5285
 20
1.4959
 30
0
 11
0.5298
 21
1.4927
 31
0
 0 0
LINE
 8
TOOL_0
 5
E3
 10
0.5298
 20
1.4927
 30
0
 11
0.5308
 21
1.4916
 31
0
 0 0
LINE
 8
TOOL_0
 5
E4
 10
0.5308
 20
1.4916
 30
0
 11
0.5319
 21
1.4908
 31
0
 0 0
LINE
 8
TOOL_0
 5
E5
 10
0.5319
 20
1.4908
 30
0
 11
0.5333
 21
1.4903
 31
0
 0 0
LINE
 8
TOOL_0
 5
E6
 10
0.5333
 20
1.4903
 30
0
 11
0.5356
 21
1.4901
 31
0
 0 0
LINE
 8
TOOL_0
 5
E7
 10
0.5356
 20
1.4901
 30
0
 11
0.5409
 21
1.4901
 31
0
 0 0
LINE
 8
TOOL_0
 5
E8
 10
0.5409
 20
1.4901
 30
0
 11
0.5563
 21
1.4902
 31
0
 0 0
LINE
 8
TOOL_0
 5
E9
 10
0.5563
 20
1.4902
 30
0
 11
0.8943
 21
1.1861
 31
0
 0 0
LINE
 8
TOOL_0
 5
EA
 10
0.8943
 20
1.1861
 30
0
 11
0.8941
 21
1.1073
 31
0
 0 0
LINE
 8
TOOL_0
 5
EB
 10
0.8941
 20
1.1073
 30
0
 11
0.8939
 21
1.0566
 31
0
 0 0
LINE
 8
TOOL_0
 5
EC
 10
0.8939
 20
1.0566
 30
0
 11
0.8874
 21
1.0602
 31
0
 0 0
LINE
 8
TOOL_0
 5
ED
 10
0.8874
 20
1.0602
 30
0
 11
0.8796
 21
1.0649
 31
0
 0 0
LINE
 8
TOOL_0
 5
EE
 10
0.8796
 20
1.0649
 30
0
 11
0.8731
 21
1.0689
 31
0
 0 0
LINE
 8
TOOL_0
 5
EF
 10
0.8731
 20
1.0689
 30
0
 11
0.8694
 21
1.0714
 31
0
 0 0
LINE
 8
TOOL_0
 5
F0
 10
0.8694
 20
1.0714
 30
0
 11
0.8615
 21
1.0776
 31
0
 0 0
LINE
 8
TOOL_0
 5
F1
 10
0.8615
 20
1.0776
 30
0
 11
0.8521
 21
1.0858
 31
0
 0 0
LINE
 8
TOOL_0
 5
F2
 10
0.8521
 20
1.0858
 30
0
 11
0.8438
 21
1.0929
 31
0
 0 0
LINE
 8
TOOL_0
 5
F3
 10
0.8438
 20
1.0929
 30
0
 11
0.8448
 21
1.0942
 31
0
 0 0
LINE
 8
TOOL_0
 5
F4
 10
0.8448
 20
1.0942
 30
0
 11
0.8438
 21
1.0929
 31
0
 0 0
LINE
 8
TOOL_0
 5
F5
 10
0.8438
 20
1.0929
 30
0
 11
0.8407
 21
1.0952
 31
0
 0 0
LINE
 8
TOOL_0
 5
F6
 10
0.8407
 20
1.0952
 30
0
 11
0.8383
 21
1.0968
 31
0
 0 0
LINE
 8
TOOL_0
 5
F7
 10
0.8383
 20
1.0968
 30
0
 11
0.8365
 21
1.0978
 31
0
 0 0
LINE
 8
TOOL_0
 5
F8
 10
0.8365
 20
1.0978
 30
0
 11
0.8342
 21
1.0987
 31
0
 0 0
LINE
 8
TOOL_0
 5
F9
 10
0.8342
 20
1.0987
 30
0
 11
0.8313
 21
1.0995
 31
0
 0 0
LINE
 8
TOOL_0
 5
FA
 10
0.8313
 20
1.0995
 30
0
 11
0.8285
 21
1.1
 31
0
 0 0
LINE
 8
TOOL_0
 5
FB
 10
0.8285
 20
1.1
 30
0
 11
0.8261
 21
1.1003
 31
0
 0 0
LINE
 8
TOOL_0
 5
FC
 10
0.8261
 20
1.1003
 30
0
 11
0.8232
 21
1.1002
 31
0
 0 0
LINE
 8
TOOL_0
 5
FD
 10
0.8232
 20
1.1002
 30
0
 11
0.8206
 21
1.0998
 31
0
 0 0
LINE
 8
TOOL_0
 5
FE
 10
0.8206
 20
1.0998
 30
0
 11
0.8181
 21
1.0991
 31
0
 0 0
LINE
 8
TOOL_0
 5
FF
 10
0.8181
 20
1.0991
 30
0
 11
0.816
 21
1.0981
 31
0
 0 0
LINE
 8
TOOL_0
 5
100
 10
0.816
 20
1.0981
 30
0
 11
0.8131
 21
1.0961
 31
0
 0 0
LINE
 8
TOOL_0
 5
101
 10
0.8131
 20
1.0961
 30
0
 11
0.812
 21
1.095
 31
0
 0 0
LINE
 8
TOOL_0
 5
102
 10
0.812
 20
1.095
 30
0
 11
0.8111
 21
1.0938
 31
0
 0 0
LINE
 8
TOOL_0
 5
103
 10
0.8111
 20
1.0938
 30
0
 11
0.8102
 21
1.0921
 31
0
 0 0
LINE
 8
TOOL_0
 5
104
 10
0.8102
 20
1.0921
 30
0
 11
0.8093
 21
1.0894
 31
0
 0 0
LINE
 8
TOOL_0
 5
105
 10
0.8093
 20
1.0894
 30
0
 11
0.8084
 21
1.0856
 31
0
 0 0
LINE
 8
TOOL_0
 5
106
 10
0.8084
 20
1.0856
 30
0
 11
0.8078
 21
1.0788
 31
0
 0 0
LINE
 8
TOOL_0
 5
107
 10
0.8078
 20
1.0788
 30
0
 11
0.8074
 21
1.0729
 31
0
 0 0
LINE
 8
TOOL_0
 5
108
 10
0.8074
 20
1.0729
 30
0
 11
0.807
 21
1.0631
 31
0
 0 0
LINE
 8
TOOL_0
 5
109
 10
0.807
 20
1.0631
 30
0
 11
0.8065
 21
1.0397
 31
0
 0 0
LINE
 8
TOOL_0
 5
10A
 10
0.8065
 20
1.0397
 30
0
 11
0.8054
 21
1.0017
 31
0
 0 0
LINE
 8
TOOL_0
 5
10B
 10
0.8054
 20
1.0017
 30
0
 11
0.804
 21
0.9638
 31
0
 0 0
LINE
 8
TOOL_0
 5
10C
 10
0.804
 20
0.9638
 30
0
 11
0.7252
 21
0.9638
 31
0
 0 0
LINE
 8
TOOL_0
 5
10D
 10
0.7252
 20
0.9638
 30
0
 11
0.7157
 21
0.9638
 31
0
 0 0
LINE
 8
TOOL_0
 5
10E
 10
0.7157
 20
0.9638
 30
0
 11
0.7157
 21
0.9654
 31
0
 0 0
LINE
 8
TOOL_0
 5
10F
 10
0.7157
 20
0.9654
 30
0
 11
0.7157
 21
0.9638
 31
0
 0 0
LINE
 8
TOOL_0
 5
110
 10
0.7157
 20
0.9638
 30
0
 11
0.637
 21
0.9638
 31
0
 0 0
LINE
 8
TOOL_0
 5
111
 10
0.637
 20
0.9638
 30
0
 11
0.6275
 21
0.9638
 31
0
 0 0
LINE
 8
TOOL_0
 5
112
 10
0.6275
 20
0.9638
 30
0
 11
0.626
 21
1.0017
 31
0
 0 0
LINE
 8
TOOL_0
 5
113
 10
0.626
 20
1.0017
 30
0
 11
0.625
 21
1.0397
 31
0
 0 0
LINE
 8
TOOL_0
 5
114
 10
0.625
 20
1.0397
 30
0
 11
0.6245
 21
1.0631
 31
0
 0 0
LINE
 8
TOOL_0
 5
115
 10
0.6245
 20
1.0631
 30
0
 11
0.6241
 21
1.0729
 31
0
 0 0
LINE
 8
TOOL_0
 5
116
 10
0.6241
 20
1.0729
 30
0
 11
0.6237
 21
1.0788
 31
0
 0 0
LINE
 8
TOOL_0
 5
117
 10
0.6237
 20
1.0788
 30
0
 11
0.6231
 21
1.0856
 31
0
 0 0
LINE
 8
TOOL_0
 5
118
 10
0.6231
 20
1.0856
 30
0
 11
0.6222
 21
1.0894
 31
0
 0 0
LINE
 8
TOOL_0
 5
119
 10
0.6222
 20
1.0894
 30
0
 11
0.6213
 21
1.0921
 31
0
 0 0
LINE
 8
TOOL_0
 5
11A
 10
0.6213
 20
1.0921
 30
0
 11
0.6204
 21
1.0938
 31
0
 0 0
LINE
 8
TOOL_0
 5
11B
 10
0.6204
 20
1.0938
 30
0
 11
0.6195
 21
1.095
 31
0
 0 0
LINE
 8
TOOL_0
 5
11C
 10
0.6195
 20
1.095
 30
0
 11
0.6183
 21
1.0961
 31
0
 0 0
LINE
 8
TOOL_0
 5
11D
 10
0.6183
 20
1.0961
 30
0
 11
0.6155
 21
1.0981
 31
0
 0 0
LINE
 8
TOOL_0
 5
11E
 10
0.6155
 20
1.0981
 30
0
 11
0.6134
 21
1.0991
 31
0
 0 0
LINE
 8
TOOL_0
 5
11F
 10
0.6134
 20
1.0991
 30
0
 11
0.6109
 21
1.0998
 31
0
 0 0
LINE
 8
TOOL_0
 5
120
 10
0.6109
 20
1.0998
 30
0
 11
0.6083
 21
1.1002
 31
0
 0 0
LINE
 8
TOOL_0
 5
121
 10
0.6083
 20
1.1002
 30
0
 11
0.6054
 21
1.1003
 31
0
 0 0
LINE
 8
TOOL_0
 5
122
 10
0.6054
 20
1.1003
 30
0
 11
0.603
 21
1.1
 31
0
 0 0
LINE
 8
TOOL_0
 5
123
 10
0.603
 20
1.1
 30
0
 11
0.6002
 21
1.0995
 31
0
 0 0
LINE
 8
TOOL_0
 5
124
 10
0.6002
 20
1.0995
 30
0
 11
0.5973
 21
1.0987
 31
0
 0 0
LINE
 8
TOOL_0
 5
125
 10
0.5973
 20
1.0987
 30
0
 11
0.595
 21
1.0978
 31
0
 0 0
LINE
 8
TOOL_0
 5
126
 10
0.595
 20
1.0978
 30
0
 11
0.5931
 21
1.0968
 31
0
 0 0
LINE
 8
TOOL_0
 5
127
 10
0.5931
 20
1.0968
 30
0
 11
0.5908
 21
1.0952
 31
0
 0 0
LINE
 8
TOOL_0
 5
128
 10
0.5908
 20
1.0952
 30
0
 11
0.5877
 21
1.0929
 31
0
 0 0
LINE
 8
TOOL_0
 5
129
 10
0.5877
 20
1.0929
 30
0
 11
0.5867
 21
1.0942
 31
0
 0 0
LINE
 8
TOOL_0
 5
12A
 10
0.5867
 20
1.0942
 30
0
 11
0.5877
 21
1.0929
 31
0
 0 0
LINE
 8
TOOL_0
 5
12B
 10
0.5877
 20
1.0929
 30
0
 11
0.5794
 21
1.0858
 31
0
 0 0
LINE
 8
TOOL_0
 5
12C
 10
0.5794
 20
1.0858
 30
0
 11
0.57
 21
1.0776
 31
0
 0 0
LINE
 8
TOOL_0
 5
12D
 10
0.57
 20
1.0776
 30
0
 11
0.5621
 21
1.0714
 31
0
 0 0
LINE
 8
TOOL_0
 5
12E
 10
0.5621
 20
1.0714
 30
0
 11
0.5584
 21
1.0689
 31
0
 0 0
LINE
 8
TOOL_0
 5
12F
 10
0.5584
 20
1.0689
 30
0
 11
0.5519
 21
1.0649
 31
0
 0 0
LINE
 8
TOOL_0
 5
130
 10
0.5519
 20
1.0649
 30
0
 11
0.544
 21
1.0602
 31
0
 0 0
LINE
 8
TOOL_0
 5
131
 10
0.544
 20
1.0602
 30
0
 11
0.5375
 21
1.0566
 31
0
 0 0
LINE
 8
TOOL_0
 5
132
 10
0.5375
 20
1.0566
 30
0
 11
0.5373
 21
1.1353
 31
0
 0 0
LINE
 8
TOOL_0
 5
133
 10
0.5373
 20
1.1353
 30
0
 11
0.5371
 21
1.1861
 31
0
 0 0
LINE
 8
TOOL_0
 5
134
 10
0.5371
 20
1.1861
 30
0
 11
0.5482
 21
1.1891
 31
0
 0 0
LINE
 8
TOOL_0
 5
135
 10
0.5482
 20
1.1891
 30
0
 11
0.5589
 21
1.1924
 31
0
 0 0
LINE
 8
TOOL_0
 5
136
 10
0.5589
 20
1.1924
 30
0
 11
0.5669
 21
1.1954
 31
0
 0 0
LINE
 8
TOOL_0
 5
137
 10
0.5669
 20
1.1954
 30
0
 11
0.5733
 21
1.1981
 31
0
 0 0
LINE
 8
TOOL_0
 5
138
 10
0.5733
 20
1.1981
 30
0
 11
0.5784
 21
1.2005
 31
0
 0 0
LINE
 8
TOOL_0
 5
139
 10
0.5784
 20
1.2005
 30
0
 11
0.5828
 21
1.2028
 31
0
 0 0
LINE
 8
TOOL_0
 5
13A
 10
0.5828
 20
1.2028
 30
0
 11
0.5868
 21
1.2053
 31
0
 0 0
LINE
 8
TOOL_0
 5
13B
 10
0.5868
 20
1.2053
 30
0
 11
0.592
 21
1.2091
 31
0
 0 0
LINE
 8
TOOL_0
 5
13C
 10
0.592
 20
1.2091
 30
0
 11
0.5971
 21
1.2135
 31
0
 0 0
LINE
 8
TOOL_0
 5
13D
 10
0.5971
 20
1.2135
 30
0
 11
0.6021
 21
1.2184
 31
0
 0 0
LINE
 8
TOOL_0
 5
13E
 10
0.6021
 20
1.2184
 30
0
 11
0.6069
 21
1.224
 31
0
 0 0
LINE
 8
TOOL_0
 5
13F
 10
0.6069
 20
1.224
 30
0
 11
0.6108
 21
1.2292
 31
0
 0 0
LINE
 8
TOOL_0
 5
140
 10
0.6108
 20
1.2292
 30
0
 11
0.6145
 21
1.2351
 31
0
 0 0
LINE
 8
TOOL_0
 5
141
 10
0.6145
 20
1.2351
 30
0
 11
0.6181
 21
1.242
 31
0
 0 0
LINE
 8
TOOL_0
 5
142
 10
0.6181
 20
1.242
 30
0
 11
0.6222
 21
1.2504
 31
0
 0 0
LINE
 8
TOOL_0
 5
143
 10
0.6222
 20
1.2504
 30
0
 11
0.6247
 21
1.2562
 31
0
 0 0
LINE
 8
TOOL_0
 5
144
 10
0.6247
 20
1.2562
 30
0
 11
0.6271
 21
1.2626
 31
0
 0 0
LINE
 8
TOOL_0
 5
145
 10
0.6271
 20
1.2626
 30
0
 11
0.6294
 21
1.2696
 31
0
 0 0
LINE
 8
TOOL_0
 5
146
 10
0.6294
 20
1.2696
 30
0
 11
0.6318
 21
1.2776
 31
0
 0 0
LINE
 8
TOOL_0
 5
147
 10
0.6318
 20
1.2776
 30
0
 11
0.6339
 21
1.2855
 31
0
 0 0
LINE
 8
TOOL_0
 5
148
 10
0.6339
 20
1.2855
 30
0
 11
0.6358
 21
1.2936
 31
0
 0 0
LINE
 8
TOOL_0
 5
149
 10
0.6358
 20
1.2936
 30
0
 11
0.6374
 21
1.3018
 31
0
 0 0
LINE
 8
TOOL_0
 5
14A
 10
0.6374
 20
1.3018
 30
0
 11
0.6387
 21
1.3103
 31
0
 0 0
LINE
 8
TOOL_0
 5
14B
 10
0.6387
 20
1.3103
 30
0
 11
0.6398
 21
1.3185
 31
0
 0 0
LINE
 8
TOOL_0
 5
14C
 10
0.6398
 20
1.3185
 30
0
 11
0.6406
 21
1.3269
 31
0
 0 0
LINE
 8
TOOL_0
 5
14D
 10
0.6406
 20
1.3269
 30
0
 11
0.6411
 21
1.3353
 31
0
 0 0
LINE
 8
TOOL_0
 5
14E
 10
0.6411
 20
1.3353
 30
0
 11
0.6413
 21
1.3437
 31
0
 0 0
LINE
 8
TOOL_0
 5
14F
 10
0.6413
 20
1.3437
 30
0
 11
0.6412
 21
1.3528
 31
0
 0 0
LINE
 8
TOOL_0
 5
150
 10
0.6412
 20
1.3528
 30
0
 11
0.6408
 21
1.3619
 31
0
 0 0
LINE
 8
TOOL_0
 5
151
 10
0.6408
 20
1.3619
 30
0
 11
0.7157
 21
1.3619
 31
0
 0 0
LINE
 8
TOOL_0
 5
152
 10
0.7157
 20
1.3619
 30
0
 11
0.7157
 21
1.3603
 31
0
 0 0
LINE
 8
TOOL_0
 5
153
 10
0.7157
 20
1.3603
 30
0
 11
0.7157
 21
1.3619
 31
0
 0 0
LINE
 8
TOOL_0
 5
154
 10
0.7157
 20
1.3619
 30
0
 11
0.7907
 21
1.3619
 31
0
 0 0
LINE
 8
TOOL_0
 5
155
 10
0.7907
 20
1.3619
 30
0
 11
0.7903
 21
1.3528
 31
0
 0 0
LINE
 8
TOOL_0
 5
156
 10
0.7903
 20
1.3528
 30
0
 11
0.7902
 21
1.3437
 31
0
 0 0
LINE
 8
TOOL_0
 5
157
 10
0.7902
 20
1.3437
 30
0
 11
0.7904
 21
1.3353
 31
0
 0 0
LINE
 8
TOOL_0
 5
158
 10
0.7904
 20
1.3353
 30
0
 11
0.7909
 21
1.3269
 31
0
 0 0
LINE
 8
TOOL_0
 5
159
 10
0.7909
 20
1.3269
 30
0
 11
0.7917
 21
1.3185
 31
0
 0 0
LINE
 8
TOOL_0
 5
15A
 10
0.7917
 20
1.3185
 30
0
 11
0.7927
 21
1.3103
 31
0
 0 0
LINE
 8
TOOL_0
 5
15B
 10
0.7927
 20
1.3103
 30
0
 11
0.7941
 21
1.3018
 31
0
 0 0
LINE
 8
TOOL_0
 5
15C
 10
0.7941
 20
1.3018
 30
0
 11
0.7957
 21
1.2936
 31
0
 0 0
LINE
 8
TOOL_0
 5
15D
 10
0.7957
 20
1.2936
 30
0
 11
0.7976
 21
1.2855
 31
0
 0 0
LINE
 8
TOOL_0
 5
15E
 10
0.7976
 20
1.2855
 30
0
 11
0.7997
 21
1.2776
 31
0
 0 0
LINE
 8
TOOL_0
 5
15F
 10
0.7997
 20
1.2776
 30
0
 11
0.8021
 21
1.2696
 31
0
 0 0
LINE
 8
TOOL_0
 5
160
 10
0.8021
 20
1.2696
 30
0
 11
0.8044
 21
1.2626
 31
0
 0 0
LINE
 8
TOOL_0
 5
161
 10
0.8044
 20
1.2626
 30
0
 11
0.8068
 21
1.2562
 31
0
 0 0
LINE
 8
TOOL_0
 5
162
 10
0.8068
 20
1.2562
 30
0
 11
0.8093
 21
1.2504
 31
0
 0 0
LINE
 8
TOOL_0
 5
163
 10
0.8093
 20
1.2504
 30
0
 11
0.8133
 21
1.242
 31
0
 0 0
LINE
 8
TOOL_0
 5
164
 10
0.8133
 20
1.242
 30
0
 11
0.817
 21
1.2351
 31
0
 0 0
LINE
 8
TOOL_0
 5
165
 10
0.817
 20
1.2351
 30
0
 11
0.8207
 21
1.2292
 31
0
 0 0
LINE
 8
TOOL_0
 5
166
 10
0.8207
 20
1.2292
 30
0
 11
0.8246
 21
1.224
 31
0
 0 0
LINE
 8
TOOL_0
 5
167
 10
0.8246
 20
1.224
 30
0
 11
0.8293
 21
1.2184
 31
0
 0 0
LINE
 8
TOOL_0
 5
168
 10
0.8293
 20
1.2184
 30
0
 11
0.8343
 21
1.2135
 31
0
 0 0
LINE
 8
TOOL_0
 5
169
 10
0.8343
 20
1.2135
 30
0
 11
0.8395
 21
1.2091
 31
0
 0 0
LINE
 8
TOOL_0
 5
16A
 10
0.8395
 20
1.2091
 30
0
 11
0.8447
 21
1.2053
 31
0
 0 0
LINE
 8
TOOL_0
 5
16B
 10
0.8447
 20
1.2053
 30
0
 11
0.8487
 21
1.2028
 31
0
 0 0
LINE
 8
TOOL_0
 5
16C
 10
0.8487
 20
1.2028
 30
0
 11
0.8531
 21
1.2005
 31
0
 0 0
LINE
 8
TOOL_0
 5
16D
 10
0.8531
 20
1.2005
 30
0
 11
0.8582
 21
1.1981
 31
0
 0 0
LINE
 8
TOOL_0
 5
16E
 10
0.8582
 20
1.1981
 30
0
 11
0.8646
 21
1.1954
 31
0
 0 0
LINE
 8
TOOL_0
 5
16F
 10
0.8646
 20
1.1954
 30
0
 11
0.8726
 21
1.1924
 31
0
 0 0
LINE
 8
TOOL_0
 5
170
 10
0.8726
 20
1.1924
 30
0
 11
0.8833
 21
1.1891
 31
0
 0 0
LINE
 8
TOOL_0
 5
171
 10
0.8833
 20
1.1891
 30
0
 11
0.8943
 21
1.1861
 31
0
 0 0
LINE
 8
TOOL_0
 5
172
 10
0.8943
 20
1.1861
 30
0
 11
1.3408
 21
0.5569
 31
0
 0 0
LINE
 8
TOOL_0
 5
173
 10
1.3408
 20
0.5569
 30
0
 11
1.3408
 21
0.4782
 31
0
 0 0
LINE
 8
TOOL_0
 5
174
 10
1.3408
 20
0.4782
 30
0
 11
1.3408
 21
0.3995
 31
0
 0 0
LINE
 8
TOOL_0
 5
175
 10
1.3408
 20
0.3995
 30
0
 11
1.3408
 21
0.3207
 31
0
 0 0
LINE
 8
TOOL_0
 5
176
 10
1.3408
 20
0.3207
 30
0
 11
1.3408
 21
0.2617
 31
0
 0 0
LINE
 8
TOOL_0
 5
177
 10
1.3408
 20
0.2617
 30
0
 11
1.262
 21
0.2617
 31
0
 0 0
LINE
 8
TOOL_0
 5
178
 10
1.262
 20
0.2617
 30
0
 11
1.1833
 21
0.2617
 31
0
 0 0
LINE
 8
TOOL_0
 5
179
 10
1.1833
 20
0.2617
 30
0
 11
1.1045
 21
0.2617
 31
0
 0 0
LINE
 8
TOOL_0
 5
17A
 10
1.1045
 20
0.2617
 30
0
 11
1.0258
 21
0.2617
 31
0
 0 0
LINE
 8
TOOL_0
 5
17B
 10
1.0258
 20
0.2617
 30
0
 11
0.9471
 21
0.2617
 31
0
 0 0
LINE
 8
TOOL_0
 5
17C
 10
0.9471
 20
0.2617
 30
0
 11
0.8683
 21
0.2617
 31
0
 0 0
LINE
 8
TOOL_0
 5
17D
 10
0.8683
 20
0.2617
 30
0
 11
0.7896
 21
0.2617
 31
0
 0 0
LINE
 8
TOOL_0
 5
17E
 10
0.7896
 20
0.2617
 30
0
 11
0.7108
 21
0.2617
 31
0
 0 0
LINE
 8
TOOL_0
 5
17F
 10
0.7108
 20
0.2617
 30
0
 11
0.6321
 21
0.2617
 31
0
 0 0
LINE
 8
TOOL_0
 5
180
 10
0.6321
 20
0.2617
 30
0
 11
0.5927
 21
0.2617
 31
0
 0 0
LINE
 8
TOOL_0
 5
181
 10
0.5927
 20
0.2617
 30
0
 11
0.5927
 21
0.3355
 31
0
 0 0
LINE
 8
TOOL_0
 5
182
 10
0.5927
 20
0.3355
 30
0
 11
0.5943
 21
0.3355
 31
0
 0 0
LINE
 8
TOOL_0
 5
183
 10
0.5943
 20
0.3355
 30
0
 11
0.5927
 21
0.3355
 31
0
 0 0
LINE
 8
TOOL_0
 5
184
 10
0.5927
 20
0.3355
 30
0
 11
0.5927
 21
0.4142
 31
0
 0 0
LINE
 8
TOOL_0
 5
185
 10
0.5927
 20
0.4142
 30
0
 11
0.5927
 21
0.4831
 31
0
 0 0
LINE
 8
TOOL_0
 5
186
 10
0.5927
 20
0.4831
 30
0
 11
0.5943
 21
0.4831
 31
0
 0 0
LINE
 8
TOOL_0
 5
187
 10
0.5943
 20
0.4831
 30
0
 11
0.5927
 21
0.4831
 31
0
 0 0
LINE
 8
TOOL_0
 5
188
 10
0.5927
 20
0.4831
 30
0
 11
0.5927
 21
0.5569
 31
0
 0 0
LINE
 8
TOOL_0
 5
189
 10
0.5927
 20
0.5569
 30
0
 11
0.6715
 21
0.5569
 31
0
 0 0
LINE
 8
TOOL_0
 5
18A
 10
0.6715
 20
0.5569
 30
0
 11
0.7502
 21
0.5569
 31
0
 0 0
LINE
 8
TOOL_0
 5
18B
 10
0.7502
 20
0.5569
 30
0
 11
0.8289
 21
0.5569
 31
0
 0 0
LINE
 8
TOOL_0
 5
18C
 10
0.8289
 20
0.5569
 30
0
 11
0.9077
 21
0.5569
 31
0
 0 0
LINE
 8
TOOL_0
 5
18D
 10
0.9077
 20
0.5569
 30
0
 11
0.9864
 21
0.5569
 31
0
 0 0
LINE
 8
TOOL_0
 5
18E
 10
0.9864
 20
0.5569
 30
0
 11
1.0652
 21
0.5569
 31
0
 0 0
LINE
 8
TOOL_0
 5
18F
 10
1.0652
 20
0.5569
 30
0
 11
1.1439
 21
0.5569
 31
0
 0 0
LINE
 8
TOOL_0
 5
190
 10
1.1439
 20
0.5569
 30
0
 11
1.2226
 21
0.5569
 31
0
 0 0
LINE
 8
TOOL_0
 5
191
 10
1.2226
 20
0.5569
 30
0
 11
1.3014
 21
0.5569
 31
0
 0 0
LINE
 8
TOOL_0
 5
192
 10
1.3014
 20
0.5569
 30
0
 11
1.3408
 21
0.5569
 31
0
 0 0
LINE
 8
TOOL_0
 5
193
 10
1.3408
 20
0.5569
 30
0
 11
0.5981
 21
0.1323
 31
0
 0 0
LINE
 8
TOOL_0
 5
194
 10
0.5981
 20
0.1323
 30
0
 11
0.5981
 21
0.211
 31
0
 0 0
LINE
 8
TOOL_0
 5
195
 10
0.5981
 20
0.211
 30
0
 11
0.5981
 21
0.2307
 31
0
 0 0
LINE
 8
TOOL_0
 5
196
 10
0.5981
 20
0.2307
 30
0
 11
0.6768
 21
0.2307
 31
0
 0 0
LINE
 8
TOOL_0
 5
197
 10
0.6768
 20
0.2307
 30
0
 11
0.7555
 21
0.2307
 31
0
 0 0
LINE
 8
TOOL_0
 5
198
 10
0.7555
 20
0.2307
 30
0
 11
0.7624
 21
0.2307
 31
0
 0 0
LINE
 8
TOOL_0
 5
199
 10
0.7624
 20
0.2307
 30
0
 11
0.7624
 21
0.2291
 31
0
 0 0
LINE
 8
TOOL_0
 5
19A
 10
0.7624
 20
0.2291
 30
0
 11
0.7624
 21
0.2307
 31
0
 0 0
LINE
 8
TOOL_0
 5
19B
 10
0.7624
 20
0.2307
 30
0
 11
0.8412
 21
0.2307
 31
0
 0 0
LINE
 8
TOOL_0
 5
19C
 10
0.8412
 20
0.2307
 30
0
 11
0.9166
 21
0.2307
 31
0
 0 0
LINE
 8
TOOL_0
 5
19D
 10
0.9166
 20
0.2307
 30
0
 11
0.9166
 21
0.2197
 31
0
 0 0
LINE
 8
TOOL_0
 5
19E
 10
0.9166
 20
0.2197
 30
0
 11
0.92
 21
0.2097
 31
0
 0 0
LINE
 8
TOOL_0
 5
19F
 10
0.92
 20
0.2097
 30
0
 11
0.9229
 21
0.2013
 31
0
 0 0
LINE
 8
TOOL_0
 5
1A0
 10
0.9229
 20
0.2013
 30
0
 11
0.9243
 21
0.1968
 31
0
 0 0
LINE
 8
TOOL_0
 5
1A1
 10
0.9243
 20
0.1968
 30
0
 11
0.9261
 21
0.1893
 31
0
 0 0
LINE
 8
TOOL_0
 5
1A2
 10
0.9261
 20
0.1893
 30
0
 11
0.9268
 21
0.1841
 31
0
 0 0
LINE
 8
TOOL_0
 5
1A3
 10
0.9268
 20
0.1841
 30
0
 11
0.9268
 21
0.1815
 31
0
 0 0
LINE
 8
TOOL_0
 5
1A4
 10
0.9268
 20
0.1815
 30
0
 11
0.9252
 21
0.1815
 31
0
 0 0
LINE
 8
TOOL_0
 5
1A5
 10
0.9252
 20
0.1815
 30
0
 11
0.9268
 21
0.1815
 31
0
 0 0
LINE
 8
TOOL_0
 5
1A6
 10
0.9268
 20
0.1815
 30
0
 11
0.9268
 21
0.1788
 31
0
 0 0
LINE
 8
TOOL_0
 5
1A7
 10
0.9268
 20
0.1788
 30
0
 11
0.9261
 21
0.1736
 31
0
 0 0
LINE
 8
TOOL_0
 5
1A8
 10
0.9261
 20
0.1736
 30
0
 11
0.9243
 21
0.1662
 31
0
 0 0
LINE
 8
TOOL_0
 5
1A9
 10
0.9243
 20
0.1662
 30
0
 11
0.9229
 21
0.1617
 31
0
 0 0
LINE
 8
TOOL_0
 5
1AA
 10
0.9229
 20
0.1617
 30
0
 11
0.92
 21
0.1533
 31
0
 0 0
LINE
 8
TOOL_0
 5
1AB
 10
0.92
 20
0.1533
 30
0
 11
0.9166
 21
0.1433
 31
0
 0 0
LINE
 8
TOOL_0
 5
1AC
 10
0.9166
 20
0.1433
 30
0
 11
0.9166
 21
0.1323
 31
0
 0 0
LINE
 8
TOOL_0
 5
1AD
 10
0.9166
 20
0.1323
 30
0
 11
0.8379
 21
0.1323
 31
0
 0 0
LINE
 8
TOOL_0
 5
1AE
 10
0.8379
 20
0.1323
 30
0
 11
0.7591
 21
0.1323
 31
0
 0 0
LINE
 8
TOOL_0
 5
1AF
 10
0.7591
 20
0.1323
 30
0
 11
0.6804
 21
0.1323
 31
0
 0 0
LINE
 8
TOOL_0
 5
1B0
 10
0.6804
 20
0.1323
 30
0
 11
0.6016
 21
0.1323
 31
0
 0 0
LINE
 8
TOOL_0
 5
1B1
 10
0.6016
 20
0.1323
 30
0
 11
0.5981
 21
0.1323
 31
0
 0 0
LINE
 8
TOOL_0
 5
1B2
 10
0.5981
 20
0.1323
 30
0
 11
0.5987
 21
0.7554
 31
0
 0 0
LINE
 8
TOOL_0
 5
1B3
 10
0.5987
 20
0.7554
 30
0
 11
0.6775
 21
0.7554
 31
0
 0 0
LINE
 8
TOOL_0
 5
1B4
 10
0.6775
 20
0.7554
 30
0
 11
0.7562
 21
0.7554
 31
0
 0 0
LINE
 8
TOOL_0
 5
1B5
 10
0.7562
 20
0.7554
 30
0
 11
0.835
 21
0.7554
 31
0
 0 0
LINE
 8
TOOL_0
 5
1B6
 10
0.835
 20
0.7554
 30
0
 11
0.9137
 21
0.7554
 31
0
 0 0
LINE
 8
TOOL_0
 5
1B7
 10
0.9137
 20
0.7554
 30
0
 11
0.9924
 21
0.7554
 31
0
 0 0
LINE
 8
TOOL_0
 5
1B8
 10
0.9924
 20
0.7554
 30
0
 11
1.0712
 21
0.7554
 31
0
 0 0
LINE
 8
TOOL_0
 5
1B9
 10
1.0712
 20
0.7554
 30
0
 11
1.1499
 21
0.7554
 31
0
 0 0
LINE
 8
TOOL_0
 5
1BA
 10
1.1499
 20
0.7554
 30
0
 11
1.2287
 21
0.7554
 31
0
 0 0
LINE
 8
TOOL_0
 5
1BB
 10
1.2287
 20
0.7554
 30
0
 11
1.3074
 21
0.7554
 31
0
 0 0
LINE
 8
TOOL_0
 5
1BC
 10
1.3074
 20
0.7554
 30
0
 11
1.3232
 21
0.7554
 31
0
 0 0
LINE
 8
TOOL_0
 5
1BD
 10
1.3232
 20
0.7554
 30
0
 11
1.3232
 21
0.6767
 31
0
 0 0
LINE
 8
TOOL_0
 5
1BE
 10
1.3232
 20
0.6767
 30
0
 11
1.3232
 21
0.5979
 31
0
 0 0
LINE
 8
TOOL_0
 5
1BF
 10
1.3232
 20
0.5979
 30
0
 11
1.3232
 21
0.5861
 31
0
 0 0
LINE
 8
TOOL_0
 5
1C0
 10
1.3232
 20
0.5861
 30
0
 11
1.2444
 21
0.5861
 31
0
 0 0
LINE
 8
TOOL_0
 5
1C1
 10
1.2444
 20
0.5861
 30
0
 11
1.1657
 21
0.5861
 31
0
 0 0
LINE
 8
TOOL_0
 5
1C2
 10
1.1657
 20
0.5861
 30
0
 11
1.0869
 21
0.5861
 31
0
 0 0
LINE
 8
TOOL_0
 5
1C3
 10
1.0869
 20
0.5861
 30
0
 11
1.0082
 21
0.5861
 31
0
 0 0
LINE
 8
TOOL_0
 5
1C4
 10
1.0082
 20
0.5861
 30
0
 11
0.9295
 21
0.5861
 31
0
 0 0
LINE
 8
TOOL_0
 5
1C5
 10
0.9295
 20
0.5861
 30
0
 11
0.8507
 21
0.5861
 31
0
 0 0
LINE
 8
TOOL_0
 5
1C6
 10
0.8507
 20
0.5861
 30
0
 11
0.772
 21
0.5861
 31
0
 0 0
LINE
 8
TOOL_0
 5
1C7
 10
0.772
 20
0.5861
 30
0
 11
0.6932
 21
0.5861
 31
0
 0 0
LINE
 8
TOOL_0
 5
1C8
 10
0.6932
 20
0.5861
 30
0
 11
0.6145
 21
0.5861
 31
0
 0 0
LINE
 8
TOOL_0
 5
1C9
 10
0.6145
 20
0.5861
 30
0
 11
0.5987
 21
0.5861
 31
0
 0 0
LINE
 8
TOOL_0
 5
1CA
 10
0.5987
 20
0.5861
 30
0
 11
0.5987
 21
0.6648
 31
0
 0 0
LINE
 8
TOOL_0
 5
1CB
 10
0.5987
 20
0.6648
 30
0
 11
0.5987
 21
0.6707
 31
0
 0 0
LINE
 8
TOOL_0
 5
1CC
 10
0.5987
 20
0.6707
 30
0
 11
0.6003
 21
0.6707
 31
0
 0 0
LINE
 8
TOOL_0
 5
1CD
 10
0.6003
 20
0.6707
 30
0
 11
0.5987
 21
0.6707
 31
0
 0 0
LINE
 8
TOOL_0
 5
1CE
 10
0.5987
 20
0.6707
 30
0
 11
0.5987
 21
0.7495
 31
0
 0 0
LINE
 8
TOOL_0
 5
1CF
 10
0.5987
 20
0.7495
 30
0
 11
0.5987
 21
0.7554
 31
0
 0 0
LINE
 8
TOOL_0
 5
1D0
 10
0.5987
 20
0.7554
 30
0
 11
0.6004
 21
0.7981
 31
0
 0 0
LINE
 8
TOOL_0
 5
1D1
 10
0.6004
 20
0.7981
 30
0
 11
0.6004
 21
0.863
 31
0
 0 0
LINE
 8
TOOL_0
 5
1D2
 10
0.6004
 20
0.863
 30
0
 11
0.6019
 21
0.863
 31
0
 0 0
LINE
 8
TOOL_0
 5
1D3
 10
0.6019
 20
0.863
 30
0
 11
0.6004
 21
0.863
 31
0
 0 0
LINE
 8
TOOL_0
 5
1D4
 10
0.6004
 20
0.863
 30
0
 11
0.6004
 21
0.928
 31
0
 0 0
LINE
 8
TOOL_0
 5
1D5
 10
0.6004
 20
0.928
 30
0
 11
0.6791
 21
0.928
 31
0
 0 0
LINE
 8
TOOL_0
 5
1D6
 10
0.6791
 20
0.928
 30
0
 11
0.7578
 21
0.928
 31
0
 0 0
LINE
 8
TOOL_0
 5
1D7
 10
0.7578
 20
0.928
 30
0
 11
0.8366
 21
0.928
 31
0
 0 0
LINE
 8
TOOL_0
 5
1D8
 10
0.8366
 20
0.928
 30
0
 11
0.9153
 21
0.928
 31
0
 0 0
LINE
 8
TOOL_0
 5
1D9
 10
0.9153
 20
0.928
 30
0
 11
0.9941
 21
0.928
 31
0
 0 0
LINE
 8
TOOL_0
 5
1DA
 10
0.9941
 20
0.928
 30
0
 11
1.0728
 21
0.928
 31
0
 0 0
LINE
 8
TOOL_0
 5
1DB
 10
1.0728
 20
0.928
 30
0
 11
1.1515
 21
0.928
 31
0
 0 0
LINE
 8
TOOL_0
 5
1DC
 10
1.1515
 20
0.928
 30
0
 11
1.2303
 21
0.928
 31
0
 0 0
LINE
 8
TOOL_0
 5
1DD
 10
1.2303
 20
0.928
 30
0
 11
1.309
 21
0.928
 31
0
 0 0
LINE
 8
TOOL_0
 5
1DE
 10
1.309
 20
0.928
 30
0
 11
1.3248
 21
0.928
 31
0
 0 0
LINE
 8
TOOL_0
 5
1DF
 10
1.3248
 20
0.928
 30
0
 11
1.3248
 21
0.8492
 31
0
 0 0
LINE
 8
TOOL_0
 5
1E0
 10
1.3248
 20
0.8492
 30
0
 11
1.3248
 21
0.7981
 31
0
 0 0
LINE
 8
TOOL_0
 5
1E1
 10
1.3248
 20
0.7981
 30
0
 11
1.246
 21
0.7981
 31
0
 0 0
LINE
 8
TOOL_0
 5
1E2
 10
1.246
 20
0.7981
 30
0
 11
1.1673
 21
0.7981
 31
0
 0 0
LINE
 8
TOOL_0
 5
1E3
 10
1.1673
 20
0.7981
 30
0
 11
1.0885
 21
0.7981
 31
0
 0 0
LINE
 8
TOOL_0
 5
1E4
 10
1.0885
 20
0.7981
 30
0
 11
1.0098
 21
0.7981
 31
0
 0 0
LINE
 8
TOOL_0
 5
1E5
 10
1.0098
 20
0.7981
 30
0
 11
0.9311
 21
0.7981
 31
0
 0 0
LINE
 8
TOOL_0
 5
1E6
 10
0.9311
 20
0.7981
 30
0
 11
0.8523
 21
0.7981
 31
0
 0 0
LINE
 8
TOOL_0
 5
1E7
 10
0.8523
 20
0.7981
 30
0
 11
0.7736
 21
0.7981
 31
0
 0 0
LINE
 8
TOOL_0
 5
1E8
 10
0.7736
 20
0.7981
 30
0
 11
0.6948
 21
0.7981
 31
0
 0 0
LINE
 8
TOOL_0
 5
1E9
 10
0.6948
 20
0.7981
 30
0
 11
0.6161
 21
0.7981
 31
0
 0 0
LINE
 8
TOOL_0
 5
1EA
 10
0.6161
 20
0.7981
 30
0
 11
0.6004
 21
0.7981
 31
0
 0 0
LINE
 8
TOOL_0
 5
1EB
 10
0.6004
 20
0.7981
 30
0
 11
0.8697
 21
1.6626
 31
0
 0 0
LINE
 8
TOOL_0
 5
1EC
 10
0.8697
 20
1.6626
 30
0
 11
0.8973
 21
1.5889
 31
0
 0 0
LINE
 8
TOOL_0
 5
1ED
 10
0.8973
 20
1.5889
 30
0
 11
0.9249
 21
1.5151
 31
0
 0 0
LINE
 8
TOOL_0
 5
1EE
 10
0.9249
 20
1.5151
 30
0
 11
0.9525
 21
1.4414
 31
0
 0 0
LINE
 8
TOOL_0
 5
1EF
 10
0.9525
 20
1.4414
 30
0
 11
0.9576
 21
1.4279
 31
0
 0 0
LINE
 8
TOOL_0
 5
1F0
 10
0.9576
 20
1.4279
 30
0
 11
0.8788
 21
1.4279
 31
0
 0 0
LINE
 8
TOOL_0
 5
1F1
 10
0.8788
 20
1.4279
 30
0
 11
0.8001
 21
1.4279
 31
0
 0 0
LINE
 8
TOOL_0
 5
1F2
 10
0.8001
 20
1.4279
 30
0
 11
0.7214
 21
1.4279
 31
0
 0 0
LINE
 8
TOOL_0
 5
1F3
 10
0.7214
 20
1.4279
 30
0
 11
0.6874
 21
1.4279
 31
0
 0 0
LINE
 8
TOOL_0
 5
1F4
 10
0.6874
 20
1.4279
 30
0
 11
0.6857
 21
1.4689
 31
0
 0 0
LINE
 8
TOOL_0
 5
1F5
 10
0.6857
 20
1.4689
 30
0
 11
0.6848
 21
1.5012
 31
0
 0 0
LINE
 8
TOOL_0
 5
1F6
 10
0.6848
 20
1.5012
 30
0
 11
0.6841
 21
1.5159
 31
0
 0 0
LINE
 8
TOOL_0
 5
1F7
 10
0.6841
 20
1.5159
 30
0
 11
0.6818
 21
1.5463
 31
0
 0 0
LINE
 8
TOOL_0
 5
1F8
 10
0.6818
 20
1.5463
 30
0
 11
0.6807
 21
1.5593
 31
0
 0 0
LINE
 8
TOOL_0
 5
1F9
 10
0.6807
 20
1.5593
 30
0
 11
0.6799
 21
1.5666
 31
0
 0 0
LINE
 8
TOOL_0
 5
1FA
 10
0.6799
 20
1.5666
 30
0
 11
0.6788
 21
1.5756
 31
0
 0 0
LINE
 8
TOOL_0
 5
1FB
 10
0.6788
 20
1.5756
 30
0
 11
0.6777
 21
1.5808
 31
0
 0 0
LINE
 8
TOOL_0
 5
1FC
 10
0.6777
 20
1.5808
 30
0
 11
0.676
 21
1.5859
 31
0
 0 0
LINE
 8
TOOL_0
 5
1FD
 10
0.676
 20
1.5859
 30
0
 11
0.6742
 21
1.5897
 31
0
 0 0
LINE
 8
TOOL_0
 5
1FE
 10
0.6742
 20
1.5897
 30
0
 11
0.6724
 21
1.5923
 31
0
 0 0
LINE
 8
TOOL_0
 5
1FF
 10
0.6724
 20
1.5923
 30
0
 11
0.6701
 21
1.5951
 31
0
 0 0
LINE
 8
TOOL_0
 5
200
 10
0.6701
 20
1.5951
 30
0
 11
0.6677
 21
1.5975
 31
0
 0 0
LINE
 8
TOOL_0
 5
201
 10
0.6677
 20
1.5975
 30
0
 11
0.6638
 21
1.6008
 31
0
 0 0
LINE
 8
TOOL_0
 5
202
 10
0.6638
 20
1.6008
 30
0
 11
0.6648
 21
1.602
 31
0
 0 0
LINE
 8
TOOL_0
 5
203
 10
0.6648
 20
1.602
 30
0
 11
0.6638
 21
1.6008
 31
0
 0 0
LINE
 8
TOOL_0
 5
204
 10
0.6638
 20
1.6008
 30
0
 11
0.6602
 21
1.6035
 31
0
 0 0
LINE
 8
TOOL_0
 5
205
 10
0.6602
 20
1.6035
 30
0
 11
0.6529
 21
1.6086
 31
0
 0 0
LINE
 8
TOOL_0
 5
206
 10
0.6529
 20
1.6086
 30
0
 11
0.6391
 21
1.6185
 31
0
 0 0
LINE
 8
TOOL_0
 5
207
 10
0.6391
 20
1.6185
 30
0
 11
0.633
 21
1.6231
 31
0
 0 0
LINE
 8
TOOL_0
 5
208
 10
0.633
 20
1.6231
 30
0
 11
0.6293
 21
1.6262
 31
0
 0 0
LINE
 8
TOOL_0
 5
209
 10
0.6293
 20
1.6262
 30
0
 11
0.6258
 21
1.6295
 31
0
 0 0
LINE
 8
TOOL_0
 5
20A
 10
0.6258
 20
1.6295
 30
0
 11
0.6227
 21
1.6327
 31
0
 0 0
LINE
 8
TOOL_0
 5
20B
 10
0.6227
 20
1.6327
 30
0
 11
0.6189
 21
1.6373
 31
0
 0 0
LINE
 8
TOOL_0
 5
20C
 10
0.6189
 20
1.6373
 30
0
 11
0.6972
 21
1.6452
 31
0
 0 0
LINE
 8
TOOL_0
 5
20D
 10
0.6972
 20
1.6452
 30
0
 11
0.7755
 21
1.6531
 31
0
 0 0
LINE
 8
TOOL_0
 5
20E
 10
0.7755
 20
1.6531
 30
0
 11
0.8539
 21
1.661
 31
0
 0 0
LINE
 8
TOOL_0
 5
20F
 10
0.8539
 20
1.661
 30
0
 11
0.8697
 21
1.6626
 31
0
 0 0
LINE
 8
TOOL_0
 5
210
 10
0.8697
 20
1.6626
 30
0
 11
0.7505
 21
0.0001
 31
0
 0 0
LINE
 8
TOOL_0
 5
211
 10
0.7505
 20
0.0001
 30
0
 11
0.7505
 21
0.0111
 31
0
 0 0
LINE
 8
TOOL_0
 5
212
 10
0.7505
 20
0.0111
 30
0
 11
0.7471
 21
0.0211
 31
0
 0 0
LINE
 8
TOOL_0
 5
213
 10
0.7471
 20
0.0211
 30
0
 11
0.7442
 21
0.0295
 31
0
 0 0
LINE
 8
TOOL_0
 5
214
 10
0.7442
 20
0.0295
 30
0
 11
0.7428
 21
0.034
 31
0
 0 0
LINE
 8
TOOL_0
 5
215
 10
0.7428
 20
0.034
 30
0
 11
0.741
 21
0.0414
 31
0
 0 0
LINE
 8
TOOL_0
 5
216
 10
0.741
 20
0.0414
 30
0
 11
0.7403
 21
0.0466
 31
0
 0 0
LINE
 8
TOOL_0
 5
217
 10
0.7403
 20
0.0466
 30
0
 11
0.7403
 21
0.0493
 31
0
 0 0
LINE
 8
TOOL_0
 5
218
 10
0.7403
 20
0.0493
 30
0
 11
0.7419
 21
0.0492
 31
0
 0 0
LINE
 8
TOOL_0
 5
219
 10
0.7419
 20
0.0492
 30
0
 11
0.7403
 21
0.0493
 31
0
 0 0
LINE
 8
TOOL_0
 5
21A
 10
0.7403
 20
0.0493
 30
0
 11
0.7403
 21
0.0516
 31
0
 0 0
LINE
 8
TOOL_0
 5
21B
 10
0.7403
 20
0.0516
 30
0
 11
0.741
 21
0.0571
 31
0
 0 0
LINE
 8
TOOL_0
 5
21C
 10
0.741
 20
0.0571
 30
0
 11
0.7428
 21
0.0646
 31
0
 0 0
LINE
 8
TOOL_0
 5
21D
 10
0.7428
 20
0.0646
 30
0
 11
0.7442
 21
0.069
 31
0
 0 0
LINE
 8
TOOL_0
 5
21E
 10
0.7442
 20
0.069
 30
0
 11
0.7471
 21
0.0775
 31
0
 0 0
LINE
 8
TOOL_0
 5
21F
 10
0.7471
 20
0.0775
 30
0
 11
0.7505
 21
0.0875
 31
0
 0 0
LINE
 8
TOOL_0
 5
220
 10
0.7505
 20
0.0875
 30
0
 11
0.7505
 21
0.0985
 31
0
 0 0
LINE
 8
TOOL_0
 5
221
 10
0.7505
 20
0.0985
 30
0
 11
0.8292
 21
0.0985
 31
0
 0 0
LINE
 8
TOOL_0
 5
222
 10
0.8292
 20
0.0985
 30
0
 11
0.908
 21
0.0985
 31
0
 0 0
LINE
 8
TOOL_0
 5
223
 10
0.908
 20
0.0985
 30
0
 11
0.9867
 21
0.0985
 31
0
 0 0
LINE
 8
TOOL_0
 5
224
 10
0.9867
 20
0.0985
 30
0
 11
1.0655
 21
0.0985
 31
0
 0 0
LINE
 8
TOOL_0
 5
225
 10
1.0655
 20
0.0985
 30
0
 11
1.1442
 21
0.0985
 31
0
 0 0
LINE
 8
TOOL_0
 5
226
 10
1.1442
 20
0.0985
 30
0
 11
1.2229
 21
0.0985
 31
0
 0 0
LINE
 8
TOOL_0
 5
227
 10
1.2229
 20
0.0985
 30
0
 11
1.3017
 21
0.0985
 31
0
 0 0
LINE
 8
TOOL_0
 5
228
 10
1.3017
 20
0.0985
 30
0
 11
1.3804
 21
0.0985
 31
0
 0 0
LINE
 8
TOOL_0
 5
229
 10
1.3804
 20
0.0985
 30
0
 11
1.4592
 21
0.0985
 31
0
 0 0
LINE
 8
TOOL_0
 5
22A
 10
1.4592
 20
0.0985
 30
0
 11
1.5379
 21
0.0985
 31
0
 0 0
LINE
 8
TOOL_0
 5
22B
 10
1.5379
 20
0.0985
 30
0
 11
1.6166
 21
0.0985
 31
0
 0 0
LINE
 8
TOOL_0
 5
22C
 10
1.6166
 20
0.0985
 30
0
 11
1.6376
 21
0.0985
 31
0
 0 0
LINE
 8
TOOL_0
 5
22D
 10
1.6376
 20
0.0985
 30
0
 11
1.6376
 21
0.0875
 31
0
 0 0
LINE
 8
TOOL_0
 5
22E
 10
1.6376
 20
0.0875
 30
0
 11
1.641
 21
0.0775
 31
0
 0 0
LINE
 8
TOOL_0
 5
22F
 10
1.641
 20
0.0775
 30
0
 11
1.6439
 21
0.069
 31
0
 0 0
LINE
 8
TOOL_0
 5
230
 10
1.6439
 20
0.069
 30
0
 11
1.6452
 21
0.0646
 31
0
 0 0
LINE
 8
TOOL_0
 5
231
 10
1.6452
 20
0.0646
 30
0
 11
1.6471
 21
0.0571
 31
0
 0 0
LINE
 8
TOOL_0
 5
232
 10
1.6471
 20
0.0571
 30
0
 11
1.6477
 21
0.0519
 31
0
 0 0
LINE
 8
TOOL_0
 5
233
 10
1.6477
 20
0.0519
 30
0
 11
1.6478
 21
0.0493
 31
0
 0 0
LINE
 8
TOOL_0
 5
234
 10
1.6478
 20
0.0493
 30
0
 11
1.6462
 21
0.0492
 31
0
 0 0
LINE
 8
TOOL_0
 5
235
 10
1.6462
 20
0.0492
 30
0
 11
1.6478
 21
0.0493
 31
0
 0 0
LINE
 8
TOOL_0
 5
236
 10
1.6478
 20
0.0493
 30
0
 11
1.6477
 21
0.0466
 31
0
 0 0
LINE
 8
TOOL_0
 5
237
 10
1.6477
 20
0.0466
 30
0
 11
1.6471
 21
0.0414
 31
0
 0 0
LINE
 8
TOOL_0
 5
238
 10
1.6471
 20
0.0414
 30
0
 11
1.6452
 21
0.034
 31
0
 0 0
LINE
 8
TOOL_0
 5
239
 10
1.6452
 20
0.034
 30
0
 11
1.6439
 21
0.0295
 31
0
 0 0
LINE
 8
TOOL_0
 5
23A
 10
1.6439
 20
0.0295
 30
0
 11
1.641
 21
0.0211
 31
0
 0 0
LINE
 8
TOOL_0
 5
23B
 10
1.641
 20
0.0211
 30
0
 11
1.6376
 21
0.0111
 31
0
 0 0
LINE
 8
TOOL_0
 5
23C
 10
1.6376
 20
0.0111
 30
0
 11
1.6376
 21
0.0001
 31
0
 0 0
LINE
 8
TOOL_0
 5
23D
 10
1.6376
 20
0.0001
 30
0
 11
1.5588
 21
0.0001
 31
0
 0 0
LINE
 8
TOOL_0
 5
23E
 10
1.5588
 20
0.0001
 30
0
 11
1.4801
 21
0.0001
 31
0
 0 0
LINE
 8
TOOL_0
 5
23F
 10
1.4801
 20
0.0001
 30
0
 11
1.4014
 21
0.0001
 31
0
 0 0
LINE
 8
TOOL_0
 5
240
 10
1.4014
 20
0.0001
 30
0
 11
1.3226
 21
0.0001
 31
0
 0 0
LINE
 8
TOOL_0
 5
241
 10
1.3226
 20
0.0001
 30
0
 11
1.2439
 21
0.0001
 31
0
 0 0
LINE
 8
TOOL_0
 5
242
 10
1.2439
 20
0.0001
 30
0
 11
1.1651
 21
0.0001
 31
0
 0 0
LINE
 8
TOOL_0
 5
243
 10
1.1651
 20
0.0001
 30
0
 11
1.0864
 21
0.0001
 31
0
 0 0
LINE
 8
TOOL_0
 5
244
 10
1.0864
 20
0.0001
 30
0
 11
1.0077
 21
0.0001
 31
0
 0 0
LINE
 8
TOOL_0
 5
245
 10
1.0077
 20
0.0001
 30
0
 11
0.9289
 21
0.0001
 31
0
 0 0
LINE
 8
TOOL_0
 5
246
 10
0.9289
 20
0.0001
 30
0
 11
0.8502
 21
0.0001
 31
0
 0 0
LINE
 8
TOOL_0
 5
247
 10
0.8502
 20
0.0001
 30
0
 11
0.7714
 21
0.0001
 31
0
 0 0
LINE
 8
TOOL_0
 5
248
 10
0.7714
 20
0.0001
 30
0
 11
0.7505
 21
0.0001
 31
0
 0 0
LINE
 8
TOOL_0
 5
249
 10
0.7505
 20
0.0001
 30
0
 11
1.0495
 21
1.3725
 31
0
 0 0
LINE
 8
TOOL_0
 5
24A
 10
1.0495
 20
1.3725
 30
0
 11
1.0443
 21
1.2939
 31
0
 0 0
LINE
 8
TOOL_0
 5
24B
 10
1.0443
 20
1.2939
 30
0
 11
1.0391
 21
1.2154
 31
0
 0 0
LINE
 8
TOOL_0
 5
24C
 10
1.0391
 20
1.2154
 30
0
 11
1.0377
 21
1.1952
 31
0
 0 0
LINE
 8
TOOL_0
 5
24D
 10
1.0377
 20
1.1952
 30
0
 11
1.0243
 21
1.1974
 31
0
 0 0
LINE
 8
TOOL_0
 5
24E
 10
1.0243
 20
1.1974
 30
0
 11
1.013
 21
1.1997
 31
0
 0 0
LINE
 8
TOOL_0
 5
24F
 10
1.013
 20
1.1997
 30
0
 11
1.0044
 21
1.202
 31
0
 0 0
LINE
 8
TOOL_0
 5
250
 10
1.0044
 20
1.202
 30
0
 11
0.9974
 21
1.2042
 31
0
 0 0
LINE
 8
TOOL_0
 5
251
 10
0.9974
 20
1.2042
 30
0
 11
0.9917
 21
1.2062
 31
0
 0 0
LINE
 8
TOOL_0
 5
252
 10
0.9917
 20
1.2062
 30
0
 11
0.9867
 21
1.2082
 31
0
 0 0
LINE
 8
TOOL_0
 5
253
 10
0.9867
 20
1.2082
 30
0
 11
0.9822
 21
1.2104
 31
0
 0 0
LINE
 8
TOOL_0
 5
254
 10
0.9822
 20
1.2104
 30
0
 11
0.976
 21
1.2141
 31
0
 0 0
LINE
 8
TOOL_0
 5
255
 10
0.976
 20
1.2141
 30
0
 11
0.9698
 21
1.2184
 31
0
 0 0
LINE
 8
TOOL_0
 5
256
 10
0.9698
 20
1.2184
 30
0
 11
0.9639
 21
1.2232
 31
0
 0 0
LINE
 8
TOOL_0
 5
257
 10
0.9639
 20
1.2232
 30
0
 11
0.9582
 21
1.2286
 31
0
 0 0
LINE
 8
TOOL_0
 5
258
 10
0.9582
 20
1.2286
 30
0
 11
0.9536
 21
1.2338
 31
0
 0 0
LINE
 8
TOOL_0
 5
259
 10
0.9536
 20
1.2338
 30
0
 11
0.949
 21
1.2397
 31
0
 0 0
LINE
 8
TOOL_0
 5
25A
 10
0.949
 20
1.2397
 30
0
 11
0.9444
 21
1.2466
 31
0
 0 0
LINE
 8
TOOL_0
 5
25B
 10
0.9444
 20
1.2466
 30
0
 11
0.9392
 21
1.2551
 31
0
 0 0
LINE
 8
TOOL_0
 5
25C
 10
0.9392
 20
1.2551
 30
0
 11
0.936
 21
1.2609
 31
0
 0 0
LINE
 8
TOOL_0
 5
25D
 10
0.936
 20
1.2609
 30
0
 11
0.9329
 21
1.2672
 31
0
 0 0
LINE
 8
TOOL_0
 5
25E
 10
0.9329
 20
1.2672
 30
0
 11
0.9298
 21
1.2742
 31
0
 0 0
LINE
 8
TOOL_0
 5
25F
 10
0.9298
 20
1.2742
 30
0
 11
0.9265
 21
1.2822
 31
0
 0 0
LINE
 8
TOOL_0
 5
260
 10
0.9265
 20
1.2822
 30
0
 11
0.9236
 21
1.29
 31
0
 0 0
LINE
 8
TOOL_0
 5
261
 10
0.9236
 20
1.29
 30
0
 11
0.9208
 21
1.2982
 31
0
 0 0
LINE
 8
TOOL_0
 5
262
 10
0.9208
 20
1.2982
 30
0
 11
0.9183
 21
1.3065
 31
0
 0 0
LINE
 8
TOOL_0
 5
263
 10
0.9183
 20
1.3065
 30
0
 11
0.9161
 21
1.315
 31
0
 0 0
LINE
 8
TOOL_0
 5
264
 10
0.9161
 20
1.315
 30
0
 11
0.9142
 21
1.3234
 31
0
 0 0
LINE
 8
TOOL_0
 5
265
 10
0.9142
 20
1.3234
 30
0
 11
0.9126
 21
1.3319
 31
0
 0 0
LINE
 8
TOOL_0
 5
266
 10
0.9126
 20
1.3319
 30
0
 11
0.9112
 21
1.3404
 31
0
 0 0
LINE
 8
TOOL_0
 5
267
 10
0.9112
 20
1.3404
 30
0
 11
0.9101
 21
1.3491
 31
0
 0 0
LINE
 8
TOOL_0
 5
268
 10
0.9101
 20
1.3491
 30
0
 11
0.9091
 21
1.3608
 31
0
 0 0
LINE
 8
TOOL_0
 5
269
 10
0.9091
 20
1.3608
 30
0
 11
0.9086
 21
1.3725
 31
0
 0 0
LINE
 8
TOOL_0
 5
26A
 10
0.9086
 20
1.3725
 30
0
 11
0.9874
 21
1.3725
 31
0
 0 0
LINE
 8
TOOL_0
 5
26B
 10
0.9874
 20
1.3725
 30
0
 11
1.0495
 21
1.3725
 31
0
 0 0
LINE
 8
TOOL_0
 5
26C
 10
1.0495
 20
1.3725
 30
0
 11
0.9707
 21
0.1575
 31
0
 0 0
LINE
 8
TOOL_0
 5
26D
 10
0.9707
 20
0.1575
 30
0
 11
0.9707
 21
0.1575
 31
0
 0 0
LINE
 8
TOOL_0
 5
26E
 10
0.9707
 20
0.1575
 30
0
 11
0.9721
 21
0.1639
 31
0
 0 0
LINE
 8
TOOL_0
 5
26F
 10
0.9721
 20
0.1639
 30
0
 11
0.9721
 21
0.1639
 31
0
 0 0
LINE
 8
TOOL_0
 5
270
 10
0.9721
 20
0.1639
 30
0
 11
0.9697
 21
0.1384
 31
0
 0 0
LINE
 8
TOOL_0
 5
271
 10
0.9697
 20
0.1384
 30
0
 11
0.9697
 21
0.2171
 31
0
 0 0
LINE
 8
TOOL_0
 5
272
 10
0.9697
 20
0.2171
 30
0
 11
0.9697
 21
0.2368
 31
0
 0 0
LINE
 8
TOOL_0
 5
273
 10
0.9697
 20
0.2368
 30
0
 11
1.0485
 21
0.2368
 31
0
 0 0
LINE
 8
TOOL_0
 5
274
 10
1.0485
 20
0.2368
 30
0
 11
1.0878
 21
0.2368
 31
0
 0 0
LINE
 8
TOOL_0
 5
275
 10
1.0878
 20
0.2368
 30
0
 11
1.0878
 21
0.2258
 31
0
 0 0
LINE
 8
TOOL_0
 5
276
 10
1.0878
 20
0.2258
 30
0
 11
1.0912
 21
0.2158
 31
0
 0 0
LINE
 8
TOOL_0
 5
277
 10
1.0912
 20
0.2158
 30
0
 11
1.0942
 21
0.2074
 31
0
 0 0
LINE
 8
TOOL_0
 5
278
 10
1.0942
 20
0.2074
 30
0
 11
1.0955
 21
0.2029
 31
0
 0 0
LINE
 8
TOOL_0
 5
279
 10
1.0955
 20
0.2029
 30
0
 11
1.0973
 21
0.1954
 31
0
 0 0
LINE
 8
TOOL_0
 5
27A
 10
1.0973
 20
0.1954
 30
0
 11
1.098
 21
0.1902
 31
0
 0 0
LINE
 8
TOOL_0
 5
27B
 10
1.098
 20
0.1902
 30
0
 11
1.098
 21
0.1876
 31
0
 0 0
LINE
 8
TOOL_0
 5
27C
 10
1.098
 20
0.1876
 30
0
 11
1.0965
 21
0.1876
 31
0
 0 0
LINE
 8
TOOL_0
 5
27D
 10
1.0965
 20
0.1876
 30
0
 11
1.098
 21
0.1876
 31
0
 0 0
LINE
 8
TOOL_0
 5
27E
 10
1.098
 20
0.1876
 30
0
 11
1.098
 21
0.1849
 31
0
 0 0
LINE
 8
TOOL_0
 5
27F
 10
1.098
 20
0.1849
 30
0
 11
1.0973
 21
0.1797
 31
0
 0 0
LINE
 8
TOOL_0
 5
280
 10
1.0973
 20
0.1797
 30
0
 11
1.0955
 21
0.1723
 31
0
 0 0
LINE
 8
TOOL_0
 5
281
 10
1.0955
 20
0.1723
 30
0
 11
1.0942
 21
0.1678
 31
0
 0 0
LINE
 8
TOOL_0
 5
282
 10
1.0942
 20
0.1678
 30
0
 11
1.0912
 21
0.1594
 31
0
 0 0
LINE
 8
TOOL_0
 5
283
 10
1.0912
 20
0.1594
 30
0
 11
1.0878
 21
0.1494
 31
0
 0 0
LINE
 8
TOOL_0
 5
284
 10
1.0878
 20
0.1494
 30
0
 11
1.0878
 21
0.1384
 31
0
 0 0
LINE
 8
TOOL_0
 5
285
 10
1.0878
 20
0.1384
 30
0
 11
1.0091
 21
0.1384
 31
0
 0 0
LINE
 8
TOOL_0
 5
286
 10
1.0091
 20
0.1384
 30
0
 11
0.9697
 21
0.1384
 31
0
 0 0
LINE
 8
TOOL_0
 5
287
 10
0.9697
 20
0.1384
 30
0
 11
1.0532
 21
1.417
 31
0
 0 0
LINE
 8
TOOL_0
 5
288
 10
1.0532
 20
1.417
 30
0
 11
1.0531
 21
1.4943
 31
0
 0 0
LINE
 8
TOOL_0
 5
289
 10
1.0531
 20
1.4943
 30
0
 11
1.0596
 21
1.4958
 31
0
 0 0
LINE
 8
TOOL_0
 5
28A
 10
1.0596
 20
1.4958
 30
0
 11
1.0661
 21
1.4968
 31
0
 0 0
LINE
 8
TOOL_0
 5
28B
 10
1.0661
 20
1.4968
 30
0
 11
1.0727
 21
1.4973
 31
0
 0 0
LINE
 8
TOOL_0
 5
28C
 10
1.0727
 20
1.4973
 30
0
 11
1.0792
 21
1.4973
 31
0
 0 0
LINE
 8
TOOL_0
 5
28D
 10
1.0792
 20
1.4973
 30
0
 11
1.0855
 21
1.4968
 31
0
 0 0
LINE
 8
TOOL_0
 5
28E
 10
1.0855
 20
1.4968
 30
0
 11
1.0915
 21
1.4958
 31
0
 0 0
LINE
 8
TOOL_0
 5
28F
 10
1.0915
 20
1.4958
 30
0
 11
1.0972
 21
1.4942
 31
0
 0 0
LINE
 8
TOOL_0
 5
290
 10
1.0972
 20
1.4942
 30
0
 11
1.1026
 21
1.4922
 31
0
 0 0
LINE
 8
TOOL_0
 5
291
 10
1.1026
 20
1.4922
 30
0
 11
1.1075
 21
1.4899
 31
0
 0 0
LINE
 8
TOOL_0
 5
292
 10
1.1075
 20
1.4899
 30
0
 11
1.1115
 21
1.4877
 31
0
 0 0
LINE
 8
TOOL_0
 5
293
 10
1.1115
 20
1.4877
 30
0
 11
1.115
 21
1.4854
 31
0
 0 0
LINE
 8
TOOL_0
 5
294
 10
1.115
 20
1.4854
 30
0
 11
1.118
 21
1.4829
 31
0
 0 0
LINE
 8
TOOL_0
 5
295
 10
1.118
 20
1.4829
 30
0
 11
1.1211
 21
1.4796
 31
0
 0 0
LINE
 8
TOOL_0
 5
296
 10
1.1211
 20
1.4796
 30
0
 11
1.124
 21
1.4758
 31
0
 0 0
LINE
 8
TOOL_0
 5
297
 10
1.124
 20
1.4758
 30
0
 11
1.1267
 21
1.4713
 31
0
 0 0
LINE
 8
TOOL_0
 5
298
 10
1.1267
 20
1.4713
 30
0
 11
1.1293
 21
1.4662
 31
0
 0 0
LINE
 8
TOOL_0
 5
299
 10
1.1293
 20
1.4662
 30
0
 11
1.1314
 21
1.4609
 31
0
 0 0
LINE
 8
TOOL_0
 5
29A
 10
1.1314
 20
1.4609
 30
0
 11
1.1329
 21
1.4553
 31
0
 0 0
LINE
 8
TOOL_0
 5
29B
 10
1.1329
 20
1.4553
 30
0
 11
1.1339
 21
1.4493
 31
0
 0 0
LINE
 8
TOOL_0
 5
29C
 10
1.1339
 20
1.4493
 30
0
 11
1.1343
 21
1.443
 31
0
 0 0
LINE
 8
TOOL_0
 5
29D
 10
1.1343
 20
1.443
 30
0
 11
1.1342
 21
1.4365
 31
0
 0 0
LINE
 8
TOOL_0
 5
29E
 10
1.1342
 20
1.4365
 30
0
 11
1.1336
 21
1.4299
 31
0
 0 0
LINE
 8
TOOL_0
 5
29F
 10
1.1336
 20
1.4299
 30
0
 11
1.1323
 21
1.4233
 31
0
 0 0
LINE
 8
TOOL_0
 5
2A0
 10
1.1323
 20
1.4233
 30
0
 11
1.1306
 21
1.4169
 31
0
 0 0
LINE
 8
TOOL_0
 5
2A1
 10
1.1306
 20
1.4169
 30
0
 11
1.0532
 21
1.417
 31
0
 0 0
LINE
 8
TOOL_0
 5
2A2
 10
1.0532
 20
1.417
 30
0
 11
1.1998
 21
1.3565
 31
0
 0 0
LINE
 8
TOOL_0
 5
2A3
 10
1.1998
 20
1.3565
 30
0
 11
1.2786
 21
1.3565
 31
0
 0 0
LINE
 8
TOOL_0
 5
2A4
 10
1.2786
 20
1.3565
 30
0
 11
1.3573
 21
1.3565
 31
0
 0 0
LINE
 8
TOOL_0
 5
2A5
 10
1.3573
 20
1.3565
 30
0
 11
1.436
 21
1.3565
 31
0
 0 0
LINE
 8
TOOL_0
 5
2A6
 10
1.436
 20
1.3565
 30
0
 11
1.5095
 21
1.3565
 31
0
 0 0
LINE
 8
TOOL_0
 5
2A7
 10
1.5095
 20
1.3565
 30
0
 11
1.4879
 21
1.321
 31
0
 0 0
LINE
 8
TOOL_0
 5
2A8
 10
1.4879
 20
1.321
 30
0
 11
1.4727
 21
1.297
 31
0
 0 0
LINE
 8
TOOL_0
 5
2A9
 10
1.4727
 20
1.297
 30
0
 11
1.4665
 21
1.2869
 31
0
 0 0
LINE
 8
TOOL_0
 5
2AA
 10
1.4665
 20
1.2869
 30
0
 11
1.4544
 21
1.2659
 31
0
 0 0
LINE
 8
TOOL_0
 5
2AB
 10
1.4544
 20
1.2659
 30
0
 11
1.4495
 21
1.257
 31
0
 0 0
LINE
 8
TOOL_0
 5
2AC
 10
1.4495
 20
1.257
 30
0
 11
1.4451
 21
1.2486
 31
0
 0 0
LINE
 8
TOOL_0
 5
2AD
 10
1.4451
 20
1.2486
 30
0
 11
1.4358
 21
1.2295
 31
0
 0 0
LINE
 8
TOOL_0
 5
2AE
 10
1.4358
 20
1.2295
 30
0
 11
1.4321
 21
1.2213
 31
0
 0 0
LINE
 8
TOOL_0
 5
2AF
 10
1.4321
 20
1.2213
 30
0
 11
1.4289
 21
1.2135
 31
0
 0 0
LINE
 8
TOOL_0
 5
2B0
 10
1.4289
 20
1.2135
 30
0
 11
1.426
 21
1.2059
 31
0
 0 0
LINE
 8
TOOL_0
 5
2B1
 10
1.426
 20
1.2059
 30
0
 11
1.4212
 21
1.1924
 31
0
 0 0
LINE
 8
TOOL_0
 5
2B2
 10
1.4212
 20
1.1924
 30
0
 11
1.4172
 21
1.181
 31
0
 0 0
LINE
 8
TOOL_0
 5
2B3
 10
1.4172
 20
1.181
 30
0
 11
1.3984
 21
1.1814
 31
0
 0 0
LINE
 8
TOOL_0
 5
2B4
 10
1.3984
 20
1.1814
 30
0
 11
1.3797
 21
1.1822
 31
0
 0 0
LINE
 8
TOOL_0
 5
2B5
 10
1.3797
 20
1.1822
 30
0
 11
1.3624
 21
1.1832
 31
0
 0 0
LINE
 8
TOOL_0
 5
2B6
 10
1.3624
 20
1.1832
 30
0
 11
1.3466
 21
1.1843
 31
0
 0 0
LINE
 8
TOOL_0
 5
2B7
 10
1.3466
 20
1.1843
 30
0
 11
1.3217
 21
1.1871
 31
0
 0 0
LINE
 8
TOOL_0
 5
2B8
 10
1.3217
 20
1.1871
 30
0
 11
1.3116
 21
1.1878
 31
0
 0 0
LINE
 8
TOOL_0
 5
2B9
 10
1.3116
 20
1.1878
 30
0
 11
1.3008
 21
1.1882
 31
0
 0 0
LINE
 8
TOOL_0
 5
2BA
 10
1.3008
 20
1.1882
 30
0
 11
1.2937
 21
1.1882
 31
0
 0 0
LINE
 8
TOOL_0
 5
2BB
 10
1.2937
 20
1.1882
 30
0
 11
1.2872
 21
1.1879
 31
0
 0 0
LINE
 8
TOOL_0
 5
2BC
 10
1.2872
 20
1.1879
 30
0
 11
1.2813
 21
1.1873
 31
0
 0 0
LINE
 8
TOOL_0
 5
2BD
 10
1.2813
 20
1.1873
 30
0
 11
1.276
 21
1.1864
 31
0
 0 0
LINE
 8
TOOL_0
 5
2BE
 10
1.276
 20
1.1864
 30
0
 11
1.2703
 21
1.1851
 31
0
 0 0
LINE
 8
TOOL_0
 5
2BF
 10
1.2703
 20
1.1851
 30
0
 11
1.2642
 21
1.1834
 31
0
 0 0
LINE
 8
TOOL_0
 5
2C0
 10
1.2642
 20
1.1834
 30
0
 11
1.2573
 21
1.1813
 31
0
 0 0
LINE
 8
TOOL_0
 5
2C1
 10
1.2573
 20
1.1813
 30
0
 11
1.2467
 21
1.1776
 31
0
 0 0
LINE
 8
TOOL_0
 5
2C2
 10
1.2467
 20
1.1776
 30
0
 11
1.2429
 21
1.1761
 31
0
 0 0
LINE
 8
TOOL_0
 5
2C3
 10
1.2429
 20
1.1761
 30
0
 11
1.2395
 21
1.1744
 31
0
 0 0
LINE
 8
TOOL_0
 5
2C4
 10
1.2395
 20
1.1744
 30
0
 11
1.2353
 21
1.172
 31
0
 0 0
LINE
 8
TOOL_0
 5
2C5
 10
1.2353
 20
1.172
 30
0
 11
1.2316
 21
1.1697
 31
0
 0 0
LINE
 8
TOOL_0
 5
2C6
 10
1.2316
 20
1.1697
 30
0
 11
1.2283
 21
1.1673
 31
0
 0 0
LINE
 8
TOOL_0
 5
2C7
 10
1.2283
 20
1.1673
 30
0
 11
1.2254
 21
1.1649
 31
0
 0 0
LINE
 8
TOOL_0
 5
2C8
 10
1.2254
 20
1.1649
 30
0
 11
1.2218
 21
1.1612
 31
0
 0 0
LINE
 8
TOOL_0
 5
2C9
 10
1.2218
 20
1.1612
 30
0
 11
1.2185
 21
1.1572
 31
0
 0 0
LINE
 8
TOOL_0
 5
2CA
 10
1.2185
 20
1.1572
 30
0
 11
1.2157
 21
1.1531
 31
0
 0 0
LINE
 8
TOOL_0
 5
2CB
 10
1.2157
 20
1.1531
 30
0
 11
1.2133
 21
1.1489
 31
0
 0 0
LINE
 8
TOOL_0
 5
2CC
 10
1.2133
 20
1.1489
 30
0
 11
1.2118
 21
1.1451
 31
0
 0 0
LINE
 8
TOOL_0
 5
2CD
 10
1.2118
 20
1.1451
 30
0
 11
1.2105
 21
1.1407
 31
0
 0 0
LINE
 8
TOOL_0
 5
2CE
 10
1.2105
 20
1.1407
 30
0
 11
1.2095
 21
1.1359
 31
0
 0 0
LINE
 8
TOOL_0
 5
2CF
 10
1.2095
 20
1.1359
 30
0
 11
1.2081
 21
1.1273
 31
0
 0 0
LINE
 8
TOOL_0
 5
2D0
 10
1.2081
 20
1.1273
 30
0
 11
1.2072
 21
1.1215
 31
0
 0 0
LINE
 8
TOOL_0
 5
2D1
 10
1.2072
 20
1.1215
 30
0
 11
1.2066
 21
1.115
 31
0
 0 0
LINE
 8
TOOL_0
 5
2D2
 10
1.2066
 20
1.115
 30
0
 11
1.2058
 21
1.0953
 31
0
 0 0
LINE
 8
TOOL_0
 5
2D3
 10
1.2058
 20
1.0953
 30
0
 11
1.2054
 21
1.0696
 31
0
 0 0
LINE
 8
TOOL_0
 5
2D4
 10
1.2054
 20
1.0696
 30
0
 11
1.2052
 21
1.0573
 31
0
 0 0
LINE
 8
TOOL_0
 5
2D5
 10
1.2052
 20
1.0573
 30
0
 11
1.2047
 21
1.0507
 31
0
 0 0
LINE
 8
TOOL_0
 5
2D6
 10
1.2047
 20
1.0507
 30
0
 11
1.2036
 21
1.0426
 31
0
 0 0
LINE
 8
TOOL_0
 5
2D7
 10
1.2036
 20
1.0426
 30
0
 11
1.2024
 21
1.0369
 31
0
 0 0
LINE
 8
TOOL_0
 5
2D8
 10
1.2024
 20
1.0369
 30
0
 11
1.2004
 21
1.0307
 31
0
 0 0
LINE
 8
TOOL_0
 5
2D9
 10
1.2004
 20
1.0307
 30
0
 11
1.1994
 21
1.0286
 31
0
 0 0
LINE
 8
TOOL_0
 5
2DA
 10
1.1994
 20
1.0286
 30
0
 11
1.1983
 21
1.0268
 31
0
 0 0
LINE
 8
TOOL_0
 5
2DB
 10
1.1983
 20
1.0268
 30
0
 11
1.1969
 21
1.0249
 31
0
 0 0
LINE
 8
TOOL_0
 5
2DC
 10
1.1969
 20
1.0249
 30
0
 11
1.1951
 21
1.0231
 31
0
 0 0
LINE
 8
TOOL_0
 5
2DD
 10
1.1951
 20
1.0231
 30
0
 11
1.1931
 21
1.0213
 31
0
 0 0
LINE
 8
TOOL_0
 5
2DE
 10
1.1931
 20
1.0213
 30
0
 11
1.1907
 21
1.0196
 31
0
 0 0
LINE
 8
TOOL_0
 5
2DF
 10
1.1907
 20
1.0196
 30
0
 11
1.1886
 21
1.0183
 31
0
 0 0
LINE
 8
TOOL_0
 5
2E0
 10
1.1886
 20
1.0183
 30
0
 11
1.1862
 21
1.0172
 31
0
 0 0
LINE
 8
TOOL_0
 5
2E1
 10
1.1862
 20
1.0172
 30
0
 11
1.1803
 21
1.0151
 31
0
 0 0
LINE
 8
TOOL_0
 5
2E2
 10
1.1803
 20
1.0151
 30
0
 11
1.1764
 21
1.0142
 31
0
 0 0
LINE
 8
TOOL_0
 5
2E3
 10
1.1764
 20
1.0142
 30
0
 11
1.1721
 21
1.0138
 31
0
 0 0
LINE
 8
TOOL_0
 5
2E4
 10
1.1721
 20
1.0138
 30
0
 11
1.1675
 21
1.0136
 31
0
 0 0
LINE
 8
TOOL_0
 5
2E5
 10
1.1675
 20
1.0136
 30
0
 11
1.1588
 21
1.0138
 31
0
 0 0
LINE
 8
TOOL_0
 5
2E6
 10
1.1588
 20
1.0138
 30
0
 11
1.1536
 21
1.014
 31
0
 0 0
LINE
 8
TOOL_0
 5
2E7
 10
1.1536
 20
1.014
 30
0
 11
1.1479
 21
1.0144
 31
0
 0 0
LINE
 8
TOOL_0
 5
2E8
 10
1.1479
 20
1.0144
 30
0
 11
1.1332
 21
1.0161
 31
0
 0 0
LINE
 8
TOOL_0
 5
2E9
 10
1.1332
 20
1.0161
 30
0
 11
1.1202
 21
1.0182
 31
0
 0 0
LINE
 8
TOOL_0
 5
2EA
 10
1.1202
 20
1.0182
 30
0
 11
1.1007
 21
1.0222
 31
0
 0 0
LINE
 8
TOOL_0
 5
2EB
 10
1.1007
 20
1.0222
 30
0
 11
1.0855
 21
1.0254
 31
0
 0 0
LINE
 8
TOOL_0
 5
2EC
 10
1.0855
 20
1.0254
 30
0
 11
1.0704
 21
1.029
 31
0
 0 0
LINE
 8
TOOL_0
 5
2ED
 10
1.0704
 20
1.029
 30
0
 11
1.0993
 21
1.1022
 31
0
 0 0
LINE
 8
TOOL_0
 5
2EE
 10
1.0993
 20
1.1022
 30
0
 11
1.1283
 21
1.1754
 31
0
 0 0
LINE
 8
TOOL_0
 5
2EF
 10
1.1283
 20
1.1754
 30
0
 11
1.1572
 21
1.2487
 31
0
 0 0
LINE
 8
TOOL_0
 5
2F0
 10
1.1572
 20
1.2487
 30
0
 11
1.1861
 21
1.3219
 31
0
 0 0
LINE
 8
TOOL_0
 5
2F1
 10
1.1861
 20
1.3219
 30
0
 11
1.1998
 21
1.3565
 31
0
 0 0
LINE
 8
TOOL_0
 5
2F2
 10
1.1998
 20
1.3565
 30
0
 11
1.1467
 21
0.1598
 31
0
 0 0
LINE
 8
TOOL_0
 5
2F3
 10
1.1467
 20
0.1598
 30
0
 11
1.1467
 21
0.1598
 31
0
 0 0
LINE
 8
TOOL_0
 5
2F4
 10
1.1467
 20
0.1598
 30
0
 11
1.1543
 21
0.1748
 31
0
 0 0
LINE
 8
TOOL_0
 5
2F5
 10
1.1543
 20
0.1748
 30
0
 11
1.1543
 21
0.1748
 31
0
 0 0
LINE
 8
TOOL_0
 5
2F6
 10
1.1543
 20
0.1748
 30
0
 11
1.381
 21
0.2388
 31
0
 0 0
LINE
 8
TOOL_0
 5
2F7
 10
1.381
 20
0.2388
 30
0
 11
1.381
 21
0.1601
 31
0
 0 0
LINE
 8
TOOL_0
 5
2F8
 10
1.381
 20
0.1601
 30
0
 11
1.381
 21
0.1404
 31
0
 0 0
LINE
 8
TOOL_0
 5
2F9
 10
1.381
 20
0.1404
 30
0
 11
1.3023
 21
0.1404
 31
0
 0 0
LINE
 8
TOOL_0
 5
2FA
 10
1.3023
 20
0.1404
 30
0
 11
1.2235
 21
0.1404
 31
0
 0 0
LINE
 8
TOOL_0
 5
2FB
 10
1.2235
 20
0.1404
 30
0
 11
1.1448
 21
0.1404
 31
0
 0 0
LINE
 8
TOOL_0
 5
2FC
 10
1.1448
 20
0.1404
 30
0
 11
1.1369
 21
0.1404
 31
0
 0 0
LINE
 8
TOOL_0
 5
2FD
 10
1.1369
 20
0.1404
 30
0
 11
1.1369
 21
0.2192
 31
0
 0 0
LINE
 8
TOOL_0
 5
2FE
 10
1.1369
 20
0.2192
 30
0
 11
1.1371
 21
0.2218
 31
0
 0 0
LINE
 8
TOOL_0
 5
2FF
 10
1.1371
 20
0.2218
 30
0
 11
1.1376
 21
0.2243
 31
0
 0 0
LINE
 8
TOOL_0
 5
300
 10
1.1376
 20
0.2243
 30
0
 11
1.1384
 21
0.2267
 31
0
 0 0
LINE
 8
TOOL_0
 5
301
 10
1.1384
 20
0.2267
 30
0
 11
1.1396
 21
0.229
 31
0
 0 0
LINE
 8
TOOL_0
 5
302
 10
1.1396
 20
0.229
 30
0
 11
1.141
 21
0.2312
 31
0
 0 0
LINE
 8
TOOL_0
 5
303
 10
1.141
 20
0.2312
 30
0
 11
1.1427
 21
0.2331
 31
0
 0 0
LINE
 8
TOOL_0
 5
304
 10
1.1427
 20
0.2331
 30
0
 11
1.1446
 21
0.2348
 31
0
 0 0
LINE
 8
TOOL_0
 5
305
 10
1.1446
 20
0.2348
 30
0
 11
1.1468
 21
0.2362
 31
0
 0 0
LINE
 8
TOOL_0
 5
306
 10
1.1468
 20
0.2362
 30
0
 11
1.1491
 21
0.2373
 31
0
 0 0
LINE
 8
TOOL_0
 5
307
 10
1.1491
 20
0.2373
 30
0
 11
1.1515
 21
0.2382
 31
0
 0 0
LINE
 8
TOOL_0
 5
308
 10
1.1515
 20
0.2382
 30
0
 11
1.154
 21
0.2387
 31
0
 0 0
LINE
 8
TOOL_0
 5
309
 10
1.154
 20
0.2387
 30
0
 11
1.1566
 21
0.2388
 31
0
 0 0
LINE
 8
TOOL_0
 5
30A
 10
1.1566
 20
0.2388
 30
0
 11
1.2353
 21
0.2388
 31
0
 0 0
LINE
 8
TOOL_0
 5
30B
 10
1.2353
 20
0.2388
 30
0
 11
1.3141
 21
0.2388
 31
0
 0 0
LINE
 8
TOOL_0
 5
30C
 10
1.3141
 20
0.2388
 30
0
 11
1.381
 21
0.2388
 31
0
 0 0
LINE
 8
TOOL_0
 5
30D
 10
1.381
 20
0.2388
 30
0
 11
1.7445
 21
1.5058
 31
0
 0 0
LINE
 8
TOOL_0
 5
30E
 10
1.7445
 20
1.5058
 30
0
 11
1.7668
 21
1.4303
 31
0
 0 0
LINE
 8
TOOL_0
 5
30F
 10
1.7668
 20
1.4303
 30
0
 11
1.7701
 21
1.4192
 31
0
 0 0
LINE
 8
TOOL_0
 5
310
 10
1.7701
 20
1.4192
 30
0
 11
1.6913
 21
1.4192
 31
0
 0 0
LINE
 8
TOOL_0
 5
311
 10
1.6913
 20
1.4192
 30
0
 11
1.6126
 21
1.4192
 31
0
 0 0
LINE
 8
TOOL_0
 5
312
 10
1.6126
 20
1.4192
 30
0
 11
1.5339
 21
1.4192
 31
0
 0 0
LINE
 8
TOOL_0
 5
313
 10
1.5339
 20
1.4192
 30
0
 11
1.4886
 21
1.4192
 31
0
 0 0
LINE
 8
TOOL_0
 5
314
 10
1.4886
 20
1.4192
 30
0
 11
1.4886
 21
1.4208
 31
0
 0 0
LINE
 8
TOOL_0
 5
315
 10
1.4886
 20
1.4208
 30
0
 11
1.4886
 21
1.4192
 31
0
 0 0
LINE
 8
TOOL_0
 5
316
 10
1.4886
 20
1.4192
 30
0
 11
1.4098
 21
1.4192
 31
0
 0 0
LINE
 8
TOOL_0
 5
317
 10
1.4098
 20
1.4192
 30
0
 11
1.3311
 21
1.4192
 31
0
 0 0
LINE
 8
TOOL_0
 5
318
 10
1.3311
 20
1.4192
 30
0
 11
1.2524
 21
1.4192
 31
0
 0 0
LINE
 8
TOOL_0
 5
319
 10
1.2524
 20
1.4192
 30
0
 11
1.2071
 21
1.4192
 31
0
 0 0
LINE
 8
TOOL_0
 5
31A
 10
1.2071
 20
1.4192
 30
0
 11
1.2294
 21
1.4947
 31
0
 0 0
LINE
 8
TOOL_0
 5
31B
 10
1.2294
 20
1.4947
 30
0
 11
1.2327
 21
1.5058
 31
0
 0 0
LINE
 8
TOOL_0
 5
31C
 10
1.2327
 20
1.5058
 30
0
 11
1.3114
 21
1.5058
 31
0
 0 0
LINE
 8
TOOL_0
 5
31D
 10
1.3114
 20
1.5058
 30
0
 11
1.3902
 21
1.5058
 31
0
 0 0
LINE
 8
TOOL_0
 5
31E
 10
1.3902
 20
1.5058
 30
0
 11
1.4689
 21
1.5058
 31
0
 0 0
LINE
 8
TOOL_0
 5
31F
 10
1.4689
 20
1.5058
 30
0
 11
1.4886
 21
1.5058
 31
0
 0 0
LINE
 8
TOOL_0
 5
320
 10
1.4886
 20
1.5058
 30
0
 11
1.4886
 21
1.5043
 31
0
 0 0
LINE
 8
TOOL_0
 5
321
 10
1.4886
 20
1.5043
 30
0
 11
1.4886
 21
1.5058
 31
0
 0 0
LINE
 8
TOOL_0
 5
322
 10
1.4886
 20
1.5058
 30
0
 11
1.5673
 21
1.5058
 31
0
 0 0
LINE
 8
TOOL_0
 5
323
 10
1.5673
 20
1.5058
 30
0
 11
1.6461
 21
1.5058
 31
0
 0 0
LINE
 8
TOOL_0
 5
324
 10
1.6461
 20
1.5058
 30
0
 11
1.7248
 21
1.5058
 31
0
 0 0
LINE
 8
TOOL_0
 5
325
 10
1.7248
 20
1.5058
 30
0
 11
1.7445
 21
1.5058
 31
0
 0 0
LINE
 8
TOOL_0
 5
326
 10
1.7445
 20
1.5058
 30
0
 11
1.6378
 21
1.56
 31
0
 0 0
LINE
 8
TOOL_0
 5
327
 10
1.6378
 20
1.56
 30
0
 11
1.5591
 21
1.56
 31
0
 0 0
LINE
 8
TOOL_0
 5
328
 10
1.5591
 20
1.56
 30
0
 11
1.4981
 21
1.56
 31
0
 0 0
LINE
 8
TOOL_0
 5
329
 10
1.4981
 20
1.56
 30
0
 11
1.4981
 21
1.5615
 31
0
 0 0
LINE
 8
TOOL_0
 5
32A
 10
1.4981
 20
1.5615
 30
0
 11
1.4981
 21
1.56
 31
0
 0 0
LINE
 8
TOOL_0
 5
32B
 10
1.4981
 20
1.56
 30
0
 11
1.4193
 21
1.56
 31
0
 0 0
LINE
 8
TOOL_0
 5
32C
 10
1.4193
 20
1.56
 30
0
 11
1.3583
 21
1.56
 31
0
 0 0
LINE
 8
TOOL_0
 5
32D
 10
1.3583
 20
1.56
 30
0
 11
1.312
 21
1.6236
 31
0
 0 0
LINE
 8
TOOL_0
 5
32E
 10
1.312
 20
1.6236
 30
0
 11
1.2953
 21
1.6466
 31
0
 0 0
LINE
 8
TOOL_0
 5
32F
 10
1.2953
 20
1.6466
 30
0
 11
1.374
 21
1.6466
 31
0
 0 0
LINE
 8
TOOL_0
 5
330
 10
1.374
 20
1.6466
 30
0
 11
1.4528
 21
1.6466
 31
0
 0 0
LINE
 8
TOOL_0
 5
331
 10
1.4528
 20
1.6466
 30
0
 11
1.4981
 21
1.6466
 31
0
 0 0
LINE
 8
TOOL_0
 5
332
 10
1.4981
 20
1.6466
 30
0
 11
1.4981
 21
1.645
 31
0
 0 0
LINE
 8
TOOL_0
 5
333
 10
1.4981
 20
1.645
 30
0
 11
1.4981
 21
1.6466
 31
0
 0 0
LINE
 8
TOOL_0
 5
334
 10
1.4981
 20
1.6466
 30
0
 11
1.5768
 21
1.6466
 31
0
 0 0
LINE
 8
TOOL_0
 5
335
 10
1.5768
 20
1.6466
 30
0
 11
1.6555
 21
1.6466
 31
0
 0 0
LINE
 8
TOOL_0
 5
336
 10
1.6555
 20
1.6466
 30
0
 11
1.7008
 21
1.6466
 31
0
 0 0
LINE
 8
TOOL_0
 5
337
 10
1.7008
 20
1.6466
 30
0
 11
1.6545
 21
1.5829
 31
0
 0 0
LINE
 8
TOOL_0
 5
338
 10
1.6545
 20
1.5829
 30
0
 11
1.6378
 21
1.56
 31
0
 0 0
LINE
 8
TOOL_0
 5
339
 10
1.6378
 20
1.56
 30
0
 11
1.468
 21
0.8226
 31
0
 0 0
LINE
 8
TOOL_0
 5
33A
 10
1.468
 20
0.8226
 30
0
 11
1.468
 21
0.7439
 31
0
 0 0
LINE
 8
TOOL_0
 5
33B
 10
1.468
 20
0.7439
 30
0
 11
1.468
 21
0.6651
 31
0
 0 0
LINE
 8
TOOL_0
 5
33C
 10
1.468
 20
0.6651
 30
0
 11
1.468
 21
0.6297
 31
0
 0 0
LINE
 8
TOOL_0
 5
33D
 10
1.468
 20
0.6297
 30
0
 11
1.3892
 21
0.6297
 31
0
 0 0
LINE
 8
TOOL_0
 5
33E
 10
1.3892
 20
0.6297
 30
0
 11
1.3695
 21
0.6297
 31
0
 0 0
LINE
 8
TOOL_0
 5
33F
 10
1.3695
 20
0.6297
 30
0
 11
1.3695
 21
0.7084
 31
0
 0 0
LINE
 8
TOOL_0
 5
340
 10
1.3695
 20
0.7084
 30
0
 11
1.3695
 21
0.7872
 31
0
 0 0
LINE
 8
TOOL_0
 5
341
 10
1.3695
 20
0.7872
 30
0
 11
1.3695
 21
0.8029
 31
0
 0 0
LINE
 8
TOOL_0
 5
342
 10
1.3695
 20
0.8029
 30
0
 11
1.3697
 21
0.8055
 31
0
 0 0
LINE
 8
TOOL_0
 5
343
 10
1.3697
 20
0.8055
 30
0
 11
1.3702
 21
0.808
 31
0
 0 0
LINE
 8
TOOL_0
 5
344
 10
1.3702
 20
0.808
 30
0
 11
1.371
 21
0.8104
 31
0
 0 0
LINE
 8
TOOL_0
 5
345
 10
1.371
 20
0.8104
 30
0
 11
1.3722
 21
0.8128
 31
0
 0 0
LINE
 8
TOOL_0
 5
346
 10
1.3722
 20
0.8128
 30
0
 11
1.3736
 21
0.8149
 31
0
 0 0
LINE
 8
TOOL_0
 5
347
 10
1.3736
 20
0.8149
 30
0
 11
1.3753
 21
0.8169
 31
0
 0 0
LINE
 8
TOOL_0
 5
348
 10
1.3753
 20
0.8169
 30
0
 11
1.3772
 21
0.8185
 31
0
 0 0
LINE
 8
TOOL_0
 5
349
 10
1.3772
 20
0.8185
 30
0
 11
1.3794
 21
0.82
 31
0
 0 0
LINE
 8
TOOL_0
 5
34A
 10
1.3794
 20
0.82
 30
0
 11
1.3817
 21
0.8211
 31
0
 0 0
LINE
 8
TOOL_0
 5
34B
 10
1.3817
 20
0.8211
 30
0
 11
1.3841
 21
0.822
 31
0
 0 0
LINE
 8
TOOL_0
 5
34C
 10
1.3841
 20
0.822
 30
0
 11
1.3866
 21
0.8224
 31
0
 0 0
LINE
 8
TOOL_0
 5
34D
 10
1.3866
 20
0.8224
 30
0
 11
1.3892
 21
0.8226
 31
0
 0 0
LINE
 8
TOOL_0
 5
34E
 10
1.3892
 20
0.8226
 30
0
 11
1.468
 21
0.8226
 31
0
 0 0
LINE
 8
TOOL_0
 5
34F
 10
1.468
 20
0.8226
 30
0
 11
1.4196
 21
0.494
 31
0
 0 0
LINE
 8
TOOL_0
 5
350
 10
1.4196
 20
0.494
 30
0
 11
1.4983
 21
0.494
 31
0
 0 0
LINE
 8
TOOL_0
 5
351
 10
1.4983
 20
0.494
 30
0
 11
1.5771
 21
0.494
 31
0
 0 0
LINE
 8
TOOL_0
 5
352
 10
1.5771
 20
0.494
 30
0
 11
1.5856
 21
0.494
 31
0
 0 0
LINE
 8
TOOL_0
 5
353
 10
1.5856
 20
0.494
 30
0
 11
1.5856
 21
0.4153
 31
0
 0 0
LINE
 8
TOOL_0
 5
354
 10
1.5856
 20
0.4153
 30
0
 11
1.5856
 21
0.3375
 31
0
 0 0
LINE
 8
TOOL_0
 5
355
 10
1.5856
 20
0.3375
 30
0
 11
1.5783
 21
0.3375
 31
0
 0 0
LINE
 8
TOOL_0
 5
356
 10
1.5783
 20
0.3375
 30
0
 11
1.5734
 21
0.3366
 31
0
 0 0
LINE
 8
TOOL_0
 5
357
 10
1.5734
 20
0.3366
 30
0
 11
1.5642
 21
0.3344
 31
0
 0 0
LINE
 8
TOOL_0
 5
358
 10
1.5642
 20
0.3344
 30
0
 11
1.5516
 21
0.3307
 31
0
 0 0
LINE
 8
TOOL_0
 5
359
 10
1.5516
 20
0.3307
 30
0
 11
1.5379
 21
0.326
 31
0
 0 0
LINE
 8
TOOL_0
 5
35A
 10
1.5379
 20
0.326
 30
0
 11
1.5304
 21
0.3231
 31
0
 0 0
LINE
 8
TOOL_0
 5
35B
 10
1.5304
 20
0.3231
 30
0
 11
1.5227
 21
0.3198
 31
0
 0 0
LINE
 8
TOOL_0
 5
35C
 10
1.5227
 20
0.3198
 30
0
 11
1.5152
 21
0.3162
 31
0
 0 0
LINE
 8
TOOL_0
 5
35D
 10
1.5152
 20
0.3162
 30
0
 11
1.5045
 21
0.3107
 31
0
 0 0
LINE
 8
TOOL_0
 5
35E
 10
1.5045
 20
0.3107
 30
0
 11
1.4929
 21
0.3045
 31
0
 0 0
LINE
 8
TOOL_0
 5
35F
 10
1.4929
 20
0.3045
 30
0
 11
1.4757
 21
0.2948
 31
0
 0 0
LINE
 8
TOOL_0
 5
360
 10
1.4757
 20
0.2948
 30
0
 11
1.4478
 21
0.2787
 31
0
 0 0
LINE
 8
TOOL_0
 5
361
 10
1.4478
 20
0.2787
 30
0
 11
1.4196
 21
0.2614
 31
0
 0 0
LINE
 8
TOOL_0
 5
362
 10
1.4196
 20
0.2614
 30
0
 11
1.4196
 21
0.3401
 31
0
 0 0
LINE
 8
TOOL_0
 5
363
 10
1.4196
 20
0.3401
 30
0
 11
1.4196
 21
0.4189
 31
0
 0 0
LINE
 8
TOOL_0
 5
364
 10
1.4196
 20
0.4189
 30
0
 11
1.4196
 21
0.494
 31
0
 0 0
LINE
 8
TOOL_0
 5
365
 10
1.4196
 20
0.494
 30
0
 11
1.745
 21
0.2508
 31
0
 0 0
LINE
 8
TOOL_0
 5
366
 10
1.745
 20
0.2508
 30
0
 11
1.745
 21
0.1721
 31
0
 0 0
LINE
 8
TOOL_0
 5
367
 10
1.745
 20
0.1721
 30
0
 11
1.745
 21
0.1654
 31
0
 0 0
LINE
 8
TOOL_0
 5
368
 10
1.745
 20
0.1654
 30
0
 11
1.6663
 21
0.1654
 31
0
 0 0
LINE
 8
TOOL_0
 5
369
 10
1.6663
 20
0.1654
 30
0
 11
1.5875
 21
0.1654
 31
0
 0 0
LINE
 8
TOOL_0
 5
36A
 10
1.5875
 20
0.1654
 30
0
 11
1.5827
 21
0.1654
 31
0
 0 0
LINE
 8
TOOL_0
 5
36B
 10
1.5827
 20
0.1654
 30
0
 11
1.5827
 21
0.167
 31
0
 0 0
LINE
 8
TOOL_0
 5
36C
 10
1.5827
 20
0.167
 30
0
 11
1.5827
 21
0.1654
 31
0
 0 0
LINE
 8
TOOL_0
 5
36D
 10
1.5827
 20
0.1654
 30
0
 11
1.504
 21
0.1654
 31
0
 0 0
LINE
 8
TOOL_0
 5
36E
 10
1.504
 20
0.1654
 30
0
 11
1.4252
 21
0.1654
 31
0
 0 0
LINE
 8
TOOL_0
 5
36F
 10
1.4252
 20
0.1654
 30
0
 11
1.4204
 21
0.1654
 31
0
 0 0
LINE
 8
TOOL_0
 5
370
 10
1.4204
 20
0.1654
 30
0
 11
1.4204
 21
0.2442
 31
0
 0 0
LINE
 8
TOOL_0
 5
371
 10
1.4204
 20
0.2442
 30
0
 11
1.4204
 21
0.2508
 31
0
 0 0
LINE
 8
TOOL_0
 5
372
 10
1.4204
 20
0.2508
 30
0
 11
1.4447
 21
0.2657
 31
0
 0 0
LINE
 8
TOOL_0
 5
373
 10
1.4447
 20
0.2657
 30
0
 11
1.4727
 21
0.2819
 31
0
 0 0
LINE
 8
TOOL_0
 5
374
 10
1.4727
 20
0.2819
 30
0
 11
1.49
 21
0.2916
 31
0
 0 0
LINE
 8
TOOL_0
 5
375
 10
1.49
 20
0.2916
 30
0
 11
1.5017
 21
0.2979
 31
0
 0 0
LINE
 8
TOOL_0
 5
376
 10
1.5017
 20
0.2979
 30
0
 11
1.5126
 21
0.3035
 31
0
 0 0
LINE
 8
TOOL_0
 5
377
 10
1.5126
 20
0.3035
 30
0
 11
1.5204
 21
0.3071
 31
0
 0 0
LINE
 8
TOOL_0
 5
378
 10
1.5204
 20
0.3071
 30
0
 11
1.5283
 21
0.3105
 31
0
 0 0
LINE
 8
TOOL_0
 5
379
 10
1.5283
 20
0.3105
 30
0
 11
1.536
 21
0.3136
 31
0
 0 0
LINE
 8
TOOL_0
 5
37A
 10
1.536
 20
0.3136
 30
0
 11
1.5501
 21
0.3183
 31
0
 0 0
LINE
 8
TOOL_0
 5
37B
 10
1.5501
 20
0.3183
 30
0
 11
1.563
 21
0.3222
 31
0
 0 0
LINE
 8
TOOL_0
 5
37C
 10
1.563
 20
0.3222
 30
0
 11
1.5726
 21
0.3245
 31
0
 0 0
LINE
 8
TOOL_0
 5
37D
 10
1.5726
 20
0.3245
 30
0
 11
1.5783
 21
0.3255
 31
0
 0 0
LINE
 8
TOOL_0
 5
37E
 10
1.5783
 20
0.3255
 30
0
 11
1.5827
 21
0.3257
 31
0
 0 0
LINE
 8
TOOL_0
 5
37F
 10
1.5827
 20
0.3257
 30
0
 11
1.5827
 21
0.3242
 31
0
 0 0
LINE
 8
TOOL_0
 5
380
 10
1.5827
 20
0.3242
 30
0
 11
1.5827
 21
0.3257
 31
0
 0 0
LINE
 8
TOOL_0
 5
381
 10
1.5827
 20
0.3257
 30
0
 11
1.5871
 21
0.3255
 31
0
 0 0
LINE
 8
TOOL_0
 5
382
 10
1.5871
 20
0.3255
 30
0
 11
1.5928
 21
0.3245
 31
0
 0 0
LINE
 8
TOOL_0
 5
383
 10
1.5928
 20
0.3245
 30
0
 11
1.6024
 21
0.3222
 31
0
 0 0
LINE
 8
TOOL_0
 5
384
 10
1.6024
 20
0.3222
 30
0
 11
1.6153
 21
0.3183
 31
0
 0 0
LINE
 8
TOOL_0
 5
385
 10
1.6153
 20
0.3183
 30
0
 11
1.6294
 21
0.3136
 31
0
 0 0
LINE
 8
TOOL_0
 5
386
 10
1.6294
 20
0.3136
 30
0
 11
1.6371
 21
0.3105
 31
0
 0 0
LINE
 8
TOOL_0
 5
387
 10
1.6371
 20
0.3105
 30
0
 11
1.645
 21
0.3071
 31
0
 0 0
LINE
 8
TOOL_0
 5
388
 10
1.645
 20
0.3071
 30
0
 11
1.6528
 21
0.3035
 31
0
 0 0
LINE
 8
TOOL_0
 5
389
 10
1.6528
 20
0.3035
 30
0
 11
1.6637
 21
0.2979
 31
0
 0 0
LINE
 8
TOOL_0
 5
38A
 10
1.6637
 20
0.2979
 30
0
 11
1.6754
 21
0.2916
 31
0
 0 0
LINE
 8
TOOL_0
 5
38B
 10
1.6754
 20
0.2916
 30
0
 11
1.6927
 21
0.2819
 31
0
 0 0
LINE
 8
TOOL_0
 5
38C
 10
1.6927
 20
0.2819
 30
0
 11
1.7207
 21
0.2657
 31
0
 0 0
LINE
 8
TOOL_0
 5
38D
 10
1.7207
 20
0.2657
 30
0
 11
1.745
 21
0.2508
 31
0
 0 0
LINE
 8
TOOL_0
 5
38E
 10
1.745
 20
0.2508
 30
0
 11
1.4525
 21
1.0573
 31
0
 0 0
LINE
 8
TOOL_0
 5
38F
 10
1.4525
 20
1.0573
 30
0
 11
1.5312
 21
1.0573
 31
0
 0 0
LINE
 8
TOOL_0
 5
390
 10
1.5312
 20
1.0573
 30
0
 11
1.61
 21
1.0573
 31
0
 0 0
LINE
 8
TOOL_0
 5
391
 10
1.61
 20
1.0573
 30
0
 11
1.6887
 21
1.0573
 31
0
 0 0
LINE
 8
TOOL_0
 5
392
 10
1.6887
 20
1.0573
 30
0
 11
1.7674
 21
1.0573
 31
0
 0 0
LINE
 8
TOOL_0
 5
393
 10
1.7674
 20
1.0573
 30
0
 11
1.7674
 21
1.018
 31
0
 0 0
LINE
 8
TOOL_0
 5
394
 10
1.7674
 20
1.018
 30
0
 11
1.6887
 21
1.018
 31
0
 0 0
LINE
 8
TOOL_0
 5
395
 10
1.6887
 20
1.018
 30
0
 11
1.61
 21
1.018
 31
0
 0 0
LINE
 8
TOOL_0
 5
396
 10
1.61
 20
1.018
 30
0
 11
1.5312
 21
1.018
 31
0
 0 0
LINE
 8
TOOL_0
 5
397
 10
1.5312
 20
1.018
 30
0
 11
1.4525
 21
1.018
 31
0
 0 0
LINE
 8
TOOL_0
 5
398
 10
1.4525
 20
1.018
 30
0
 11
1.4525
 21
1.0573
 31
0
 0 0
LINE
 8
TOOL_0
 5
399
 10
1.4525
 20
1.0573
 30
0
 11
1.5258
 21
1.1159
 31
0
 0 0
LINE
 8
TOOL_0
 5
39A
 10
1.5258
 20
1.1159
 30
0
 11
1.5258
 21
1.1946
 31
0
 0 0
LINE
 8
TOOL_0
 5
39B
 10
1.5258
 20
1.1946
 30
0
 11
1.5258
 21
1.2734
 31
0
 0 0
LINE
 8
TOOL_0
 5
39C
 10
1.5258
 20
1.2734
 30
0
 11
1.5966
 21
1.2734
 31
0
 0 0
LINE
 8
TOOL_0
 5
39D
 10
1.5966
 20
1.2734
 30
0
 11
1.5966
 21
1.1946
 31
0
 0 0
LINE
 8
TOOL_0
 5
39E
 10
1.5966
 20
1.1946
 30
0
 11
1.5966
 21
1.1159
 31
0
 0 0
LINE
 8
TOOL_0
 5
39F
 10
1.5966
 20
1.1159
 30
0
 11
1.5258
 21
1.1159
 31
0
 0 0
LINE
 8
TOOL_0
 5
3A0
 10
1.5258
 20
1.1159
 30
0
 11
1.6242
 21
0.3898
 31
0
 0 0
LINE
 8
TOOL_0
 5
3A1
 10
1.6242
 20
0.3898
 30
0
 11
1.6242
 21
0.4686
 31
0
 0 0
LINE
 8
TOOL_0
 5
3A2
 10
1.6242
 20
0.4686
 30
0
 11
1.6242
 21
0.5276
 31
0
 0 0
LINE
 8
TOOL_0
 5
3A3
 10
1.6242
 20
0.5276
 30
0
 11
1.6244
 21
0.5302
 31
0
 0 0
LINE
 8
TOOL_0
 5
3A4
 10
1.6244
 20
0.5302
 30
0
 11
1.6248
 21
0.5327
 31
0
 0 0
LINE
 8
TOOL_0
 5
3A5
 10
1.6248
 20
0.5327
 30
0
 11
1.6257
 21
0.5351
 31
0
 0 0
LINE
 8
TOOL_0
 5
3A6
 10
1.6257
 20
0.5351
 30
0
 11
1.6268
 21
0.5375
 31
0
 0 0
LINE
 8
TOOL_0
 5
3A7
 10
1.6268
 20
0.5375
 30
0
 11
1.6283
 21
0.5396
 31
0
 0 0
LINE
 8
TOOL_0
 5
3A8
 10
1.6283
 20
0.5396
 30
0
 11
1.6299
 21
0.5415
 31
0
 0 0
LINE
 8
TOOL_0
 5
3A9
 10
1.6299
 20
0.5415
 30
0
 11
1.6319
 21
0.5432
 31
0
 0 0
LINE
 8
TOOL_0
 5
3AA
 10
1.6319
 20
0.5432
 30
0
 11
1.634
 21
0.5447
 31
0
 0 0
LINE
 8
TOOL_0
 5
3AB
 10
1.634
 20
0.5447
 30
0
 11
1.6364
 21
0.5458
 31
0
 0 0
LINE
 8
TOOL_0
 5
3AC
 10
1.6364
 20
0.5458
 30
0
 11
1.6388
 21
0.5466
 31
0
 0 0
LINE
 8
TOOL_0
 5
3AD
 10
1.6388
 20
0.5466
 30
0
 11
1.6413
 21
0.5471
 31
0
 0 0
LINE
 8
TOOL_0
 5
3AE
 10
1.6413
 20
0.5471
 30
0
 11
1.6439
 21
0.5473
 31
0
 0 0
LINE
 8
TOOL_0
 5
3AF
 10
1.6439
 20
0.5473
 30
0
 11
1.7226
 21
0.5473
 31
0
 0 0
LINE
 8
TOOL_0
 5
3B0
 10
1.7226
 20
0.5473
 30
0
 11
1.8013
 21
0.5473
 31
0
 0 0
LINE
 8
TOOL_0
 5
3B1
 10
1.8013
 20
0.5473
 30
0
 11
1.8801
 21
0.5473
 31
0
 0 0
LINE
 8
TOOL_0
 5
3B2
 10
1.8801
 20
0.5473
 30
0
 11
1.8827
 21
0.5471
 31
0
 0 0
LINE
 8
TOOL_0
 5
3B3
 10
1.8827
 20
0.5471
 30
0
 11
1.8852
 21
0.5466
 31
0
 0 0
LINE
 8
TOOL_0
 5
3B4
 10
1.8852
 20
0.5466
 30
0
 11
1.8876
 21
0.5458
 31
0
 0 0
LINE
 8
TOOL_0
 5
3B5
 10
1.8876
 20
0.5458
 30
0
 11
1.8899
 21
0.5447
 31
0
 0 0
LINE
 8
TOOL_0
 5
3B6
 10
1.8899
 20
0.5447
 30
0
 11
1.8921
 21
0.5432
 31
0
 0 0
LINE
 8
TOOL_0
 5
3B7
 10
1.8921
 20
0.5432
 30
0
 11
1.894
 21
0.5415
 31
0
 0 0
LINE
 8
TOOL_0
 5
3B8
 10
1.894
 20
0.5415
 30
0
 11
1.8957
 21
0.5396
 31
0
 0 0
LINE
 8
TOOL_0
 5
3B9
 10
1.8957
 20
0.5396
 30
0
 11
1.8971
 21
0.5375
 31
0
 0 0
LINE
 8
TOOL_0
 5
3BA
 10
1.8971
 20
0.5375
 30
0
 11
1.8983
 21
0.5351
 31
0
 0 0
LINE
 8
TOOL_0
 5
3BB
 10
1.8983
 20
0.5351
 30
0
 11
1.8991
 21
0.5327
 31
0
 0 0
LINE
 8
TOOL_0
 5
3BC
 10
1.8991
 20
0.5327
 30
0
 11
1.8996
 21
0.5302
 31
0
 0 0
LINE
 8
TOOL_0
 5
3BD
 10
1.8996
 20
0.5302
 30
0
 11
1.8998
 21
0.5276
 31
0
 0 0
LINE
 8
TOOL_0
 5
3BE
 10
1.8998
 20
0.5276
 30
0
 11
1.8998
 21
0.4489
 31
0
 0 0
LINE
 8
TOOL_0
 5
3BF
 10
1.8998
 20
0.4489
 30
0
 11
1.8998
 21
0.3898
 31
0
 0 0
LINE
 8
TOOL_0
 5
3C0
 10
1.8998
 20
0.3898
 30
0
 11
1.821
 21
0.3898
 31
0
 0 0
LINE
 8
TOOL_0
 5
3C1
 10
1.821
 20
0.3898
 30
0
 11
1.7423
 21
0.3898
 31
0
 0 0
LINE
 8
TOOL_0
 5
3C2
 10
1.7423
 20
0.3898
 30
0
 11
1.6635
 21
0.3898
 31
0
 0 0
LINE
 8
TOOL_0
 5
3C3
 10
1.6635
 20
0.3898
 30
0
 11
1.6242
 21
0.3898
 31
0
 0 0
LINE
 8
TOOL_0
 5
3C4
 10
1.6242
 20
0.3898
 30
0
 11
1.7359
 21
1.3865
 31
0
 0 0
LINE
 8
TOOL_0
 5
3C5
 10
1.7359
 20
1.3865
 30
0
 11
1.7359
 21
1.3077
 31
0
 0 0
LINE
 8
TOOL_0
 5
3C6
 10
1.7359
 20
1.3077
 30
0
 11
1.7359
 21
1.229
 31
0
 0 0
LINE
 8
TOOL_0
 5
3C7
 10
1.7359
 20
1.229
 30
0
 11
1.7359
 21
1.1503
 31
0
 0 0
LINE
 8
TOOL_0
 5
3C8
 10
1.7359
 20
1.1503
 30
0
 11
1.7359
 21
1.0794
 31
0
 0 0
LINE
 8
TOOL_0
 5
3C9
 10
1.7359
 20
1.0794
 30
0
 11
1.6571
 21
1.0794
 31
0
 0 0
LINE
 8
TOOL_0
 5
3CA
 10
1.6571
 20
1.0794
 30
0
 11
1.6493
 21
1.0794
 31
0
 0 0
LINE
 8
TOOL_0
 5
3CB
 10
1.6493
 20
1.0794
 30
0
 11
1.6493
 21
1.1581
 31
0
 0 0
LINE
 8
TOOL_0
 5
3CC
 10
1.6493
 20
1.1581
 30
0
 11
1.6493
 21
1.2369
 31
0
 0 0
LINE
 8
TOOL_0
 5
3CD
 10
1.6493
 20
1.2369
 30
0
 11
1.6493
 21
1.3156
 31
0
 0 0
LINE
 8
TOOL_0
 5
3CE
 10
1.6493
 20
1.3156
 30
0
 11
1.6493
 21
1.3865
 31
0
 0 0
LINE
 8
TOOL_0
 5
3CF
 10
1.6493
 20
1.3865
 30
0
 11
1.728
 21
1.3865
 31
0
 0 0
LINE
 8
TOOL_0
 5
3D0
 10
1.728
 20
1.3865
 30
0
 11
1.7359
 21
1.3865
 31
0
 0 0
LINE
 8
TOOL_0
 5
3D1
 10
1.7359
 20
1.3865
 30
0
 11
1.8669
 21
0.8147
 31
0
 0 0
LINE
 8
TOOL_0
 5
3D2
 10
1.8669
 20
0.8147
 30
0
 11
1.8669
 21
0.736
 31
0
 0 0
LINE
 8
TOOL_0
 5
3D3
 10
1.8669
 20
0.736
 30
0
 11
1.8669
 21
0.6573
 31
0
 0 0
LINE
 8
TOOL_0
 5
3D4
 10
1.8669
 20
0.6573
 30
0
 11
1.8669
 21
0.6533
 31
0
 0 0
LINE
 8
TOOL_0
 5
3D5
 10
1.8669
 20
0.6533
 30
0
 11
1.7882
 21
0.6533
 31
0
 0 0
LINE
 8
TOOL_0
 5
3D6
 10
1.7882
 20
0.6533
 30
0
 11
1.7095
 21
0.6533
 31
0
 0 0
LINE
 8
TOOL_0
 5
3D7
 10
1.7095
 20
0.6533
 30
0
 11
1.6858
 21
0.6533
 31
0
 0 0
LINE
 8
TOOL_0
 5
3D8
 10
1.6858
 20
0.6533
 30
0
 11
1.6858
 21
0.7321
 31
0
 0 0
LINE
 8
TOOL_0
 5
3D9
 10
1.6858
 20
0.7321
 30
0
 11
1.6858
 21
0.8108
 31
0
 0 0
LINE
 8
TOOL_0
 5
3DA
 10
1.6858
 20
0.8108
 30
0
 11
1.6858
 21
0.8147
 31
0
 0 0
LINE
 8
TOOL_0
 5
3DB
 10
1.6858
 20
0.8147
 30
0
 11
1.686
 21
0.8173
 31
0
 0 0
LINE
 8
TOOL_0
 5
3DC
 10
1.686
 20
0.8173
 30
0
 11
1.6865
 21
0.8198
 31
0
 0 0
LINE
 8
TOOL_0
 5
3DD
 10
1.6865
 20
0.8198
 30
0
 11
1.6873
 21
0.8222
 31
0
 0 0
LINE
 8
TOOL_0
 5
3DE
 10
1.6873
 20
0.8222
 30
0
 11
1.6885
 21
0.8246
 31
0
 0 0
LINE
 8
TOOL_0
 5
3DF
 10
1.6885
 20
0.8246
 30
0
 11
1.6899
 21
0.8267
 31
0
 0 0
LINE
 8
TOOL_0
 5
3E0
 10
1.6899
 20
0.8267
 30
0
 11
1.6916
 21
0.8287
 31
0
 0 0
LINE
 8
TOOL_0
 5
3E1
 10
1.6916
 20
0.8287
 30
0
 11
1.6935
 21
0.8303
 31
0
 0 0
LINE
 8
TOOL_0
 5
3E2
 10
1.6935
 20
0.8303
 30
0
 11
1.6957
 21
0.8318
 31
0
 0 0
LINE
 8
TOOL_0
 5
3E3
 10
1.6957
 20
0.8318
 30
0
 11
1.698
 21
0.8329
 31
0
 0 0
LINE
 8
TOOL_0
 5
3E4
 10
1.698
 20
0.8329
 30
0
 11
1.7004
 21
0.8338
 31
0
 0 0
LINE
 8
TOOL_0
 5
3E5
 10
1.7004
 20
0.8338
 30
0
 11
1.7029
 21
0.8342
 31
0
 0 0
LINE
 8
TOOL_0
 5
3E6
 10
1.7029
 20
0.8342
 30
0
 11
1.7055
 21
0.8344
 31
0
 0 0
LINE
 8
TOOL_0
 5
3E7
 10
1.7055
 20
0.8344
 30
0
 11
1.7843
 21
0.8344
 31
0
 0 0
LINE
 8
TOOL_0
 5
3E8
 10
1.7843
 20
0.8344
 30
0
 11
1.8473
 21
0.8344
 31
0
 0 0
LINE
 8
TOOL_0
 5
3E9
 10
1.8473
 20
0.8344
 30
0
 11
1.8499
 21
0.8342
 31
0
 0 0
LINE
 8
TOOL_0
 5
3EA
 10
1.8499
 20
0.8342
 30
0
 11
1.8523
 21
0.8338
 31
0
 0 0
LINE
 8
TOOL_0
 5
3EB
 10
1.8523
 20
0.8338
 30
0
 11
1.8548
 21
0.8329
 31
0
 0 0
LINE
 8
TOOL_0
 5
3EC
 10
1.8548
 20
0.8329
 30
0
 11
1.8571
 21
0.8318
 31
0
 0 0
LINE
 8
TOOL_0
 5
3ED
 10
1.8571
 20
0.8318
 30
0
 11
1.8593
 21
0.8303
 31
0
 0 0
LINE
 8
TOOL_0
 5
3EE
 10
1.8593
 20
0.8303
 30
0
 11
1.8612
 21
0.8287
 31
0
 0 0
LINE
 8
TOOL_0
 5
3EF
 10
1.8612
 20
0.8287
 30
0
 11
1.8629
 21
0.8267
 31
0
 0 0
LINE
 8
TOOL_0
 5
3F0
 10
1.8629
 20
0.8267
 30
0
 11
1.8643
 21
0.8246
 31
0
 0 0
LINE
 8
TOOL_0
 5
3F1
 10
1.8643
 20
0.8246
 30
0
 11
1.8654
 21
0.8222
 31
0
 0 0
LINE
 8
TOOL_0
 5
3F2
 10
1.8654
 20
0.8222
 30
0
 11
1.8663
 21
0.8198
 31
0
 0 0
LINE
 8
TOOL_0
 5
3F3
 10
1.8663
 20
0.8198
 30
0
 11
1.8668
 21
0.8173
 31
0
 0 0
LINE
 8
TOOL_0
 5
3F4
 10
1.8668
 20
0.8173
 30
0
 11
1.8669
 21
0.8147
 31
0
 0 0
LINE
 8
TOOL_0
 5
3F5
 10
1.8669
 20
0.8147
 30
0
 11
1.9261
 21
0.3525
 31
0
 0 0
LINE
 8
TOOL_0
 5
3F6
 10
1.9261
 20
0.3525
 30
0
 11
1.9265
 21
0.3327
 31
0
 0 0
LINE
 8
TOOL_0
 5
3F7
 10
1.9265
 20
0.3327
 30
0
 11
1.9267
 21
0.313
 31
0
 0 0
LINE
 8
TOOL_0
 5
3F8
 10
1.9267
 20
0.313
 30
0
 11
1.9266
 21
0.2838
 31
0
 0 0
LINE
 8
TOOL_0
 5
3F9
 10
1.9266
 20
0.2838
 30
0
 11
1.9263
 21
0.2736
 31
0
 0 0
LINE
 8
TOOL_0
 5
3FA
 10
1.9263
 20
0.2736
 30
0
 11
1.9259
 21
0.2643
 31
0
 0 0
LINE
 8
TOOL_0
 5
3FB
 10
1.9259
 20
0.2643
 30
0
 11
1.9246
 21
0.2427
 31
0
 0 0
LINE
 8
TOOL_0
 5
3FC
 10
1.9246
 20
0.2427
 30
0
 11
1.9238
 21
0.2357
 31
0
 0 0
LINE
 8
TOOL_0
 5
3FD
 10
1.9238
 20
0.2357
 30
0
 11
1.9228
 21
0.2294
 31
0
 0 0
LINE
 8
TOOL_0
 5
3FE
 10
1.9228
 20
0.2294
 30
0
 11
1.9203
 21
0.2172
 31
0
 0 0
LINE
 8
TOOL_0
 5
3FF
 10
1.9203
 20
0.2172
 30
0
 11
1.9183
 21
0.2094
 31
0
 0 0
LINE
 8
TOOL_0
 5
400
 10
1.9183
 20
0.2094
 30
0
 11
1.9171
 21
0.2059
 31
0
 0 0
LINE
 8
TOOL_0
 5
401
 10
1.9171
 20
0.2059
 30
0
 11
1.9158
 21
0.2026
 31
0
 0 0
LINE
 8
TOOL_0
 5
402
 10
1.9158
 20
0.2026
 30
0
 11
1.9143
 21
0.1995
 31
0
 0 0
LINE
 8
TOOL_0
 5
403
 10
1.9143
 20
0.1995
 30
0
 11
1.9127
 21
0.1967
 31
0
 0 0
LINE
 8
TOOL_0
 5
404
 10
1.9127
 20
0.1967
 30
0
 11
1.9095
 21
0.192
 31
0
 0 0
LINE
 8
TOOL_0
 5
405
 10
1.9095
 20
0.192
 30
0
 11
1.906
 21
0.1876
 31
0
 0 0
LINE
 8
TOOL_0
 5
406
 10
1.906
 20
0.1876
 30
0
 11
1.9023
 21
0.1837
 31
0
 0 0
LINE
 8
TOOL_0
 5
407
 10
1.9023
 20
0.1837
 30
0
 11
1.8983
 21
0.1803
 31
0
 0 0
LINE
 8
TOOL_0
 5
408
 10
1.8983
 20
0.1803
 30
0
 11
1.8949
 21
0.1778
 31
0
 0 0
LINE
 8
TOOL_0
 5
409
 10
1.8949
 20
0.1778
 30
0
 11
1.8913
 21
0.1755
 31
0
 0 0
LINE
 8
TOOL_0
 5
40A
 10
1.8913
 20
0.1755
 30
0
 11
1.8875
 21
0.1735
 31
0
 0 0
LINE
 8
TOOL_0
 5
40B
 10
1.8875
 20
0.1735
 30
0
 11
1.8836
 21
0.1717
 31
0
 0 0
LINE
 8
TOOL_0
 5
40C
 10
1.8836
 20
0.1717
 30
0
 11
1.8803
 21
0.1705
 31
0
 0 0
LINE
 8
TOOL_0
 5
40D
 10
1.8803
 20
0.1705
 30
0
 11
1.8767
 21
0.1694
 31
0
 0 0
LINE
 8
TOOL_0
 5
40E
 10
1.8767
 20
0.1694
 30
0
 11
1.873
 21
0.1685
 31
0
 0 0
LINE
 8
TOOL_0
 5
40F
 10
1.873
 20
0.1685
 30
0
 11
1.869
 21
0.1678
 31
0
 0 0
LINE
 8
TOOL_0
 5
410
 10
1.869
 20
0.1678
 30
0
 11
1.863
 21
0.1671
 31
0
 0 0
LINE
 8
TOOL_0
 5
411
 10
1.863
 20
0.1671
 30
0
 11
1.8568
 21
0.1669
 31
0
 0 0
LINE
 8
TOOL_0
 5
412
 10
1.8568
 20
0.1669
 30
0
 11
1.8519
 21
0.1671
 31
0
 0 0
LINE
 8
TOOL_0
 5
413
 10
1.8519
 20
0.1671
 30
0
 11
1.848
 21
0.1675
 31
0
 0 0
LINE
 8
TOOL_0
 5
414
 10
1.848
 20
0.1675
 30
0
 11
1.8483
 21
0.169
 31
0
 0 0
LINE
 8
TOOL_0
 5
415
 10
1.8483
 20
0.169
 30
0
 11
1.848
 21
0.1675
 31
0
 0 0
LINE
 8
TOOL_0
 5
416
 10
1.848
 20
0.1675
 30
0
 11
1.8438
 21
0.1683
 31
0
 0 0
LINE
 8
TOOL_0
 5
417
 10
1.8438
 20
0.1683
 30
0
 11
1.8402
 21
0.1694
 31
0
 0 0
LINE
 8
TOOL_0
 5
418
 10
1.8402
 20
0.1694
 30
0
 11
1.8362
 21
0.1713
 31
0
 0 0
LINE
 8
TOOL_0
 5
419
 10
1.8362
 20
0.1713
 30
0
 11
1.8331
 21
0.1733
 31
0
 0 0
LINE
 8
TOOL_0
 5
41A
 10
1.8331
 20
0.1733
 30
0
 11
1.8302
 21
0.1761
 31
0
 0 0
LINE
 8
TOOL_0
 5
41B
 10
1.8302
 20
0.1761
 30
0
 11
1.8279
 21
0.1792
 31
0
 0 0
LINE
 8
TOOL_0
 5
41C
 10
1.8279
 20
0.1792
 30
0
 11
1.8264
 21
0.1826
 31
0
 0 0
LINE
 8
TOOL_0
 5
41D
 10
1.8264
 20
0.1826
 30
0
 11
1.8254
 21
0.1862
 31
0
 0 0
LINE
 8
TOOL_0
 5
41E
 10
1.8254
 20
0.1862
 30
0
 11
1.8252
 21
0.19
 31
0
 0 0
LINE
 8
TOOL_0
 5
41F
 10
1.8252
 20
0.19
 30
0
 11
1.8257
 21
0.1937
 31
0
 0 0
LINE
 8
TOOL_0
 5
420
 10
1.8257
 20
0.1937
 30
0
 11
1.8264
 21
0.1966
 31
0
 0 0
LINE
 8
TOOL_0
 5
421
 10
1.8264
 20
0.1966
 30
0
 11
1.8273
 21
0.1984
 31
0
 0 0
LINE
 8
TOOL_0
 5
422
 10
1.8273
 20
0.1984
 30
0
 11
1.8287
 21
0.1998
 31
0
 0 0
LINE
 8
TOOL_0
 5
423
 10
1.8287
 20
0.1998
 30
0
 11
1.831
 21
0.2013
 31
0
 0 0
LINE
 8
TOOL_0
 5
424
 10
1.831
 20
0.2013
 30
0
 11
1.8332
 21
0.2022
 31
0
 0 0
LINE
 8
TOOL_0
 5
425
 10
1.8332
 20
0.2022
 30
0
 11
1.8366
 21
0.2034
 31
0
 0 0
LINE
 8
TOOL_0
 5
426
 10
1.8366
 20
0.2034
 30
0
 11
1.8415
 21
0.2046
 31
0
 0 0
LINE
 8
TOOL_0
 5
427
 10
1.8415
 20
0.2046
 30
0
 11
1.8436
 21
0.2157
 31
0
 0 0
LINE
 8
TOOL_0
 5
428
 10
1.8436
 20
0.2157
 30
0
 11
1.8493
 21
0.2162
 31
0
 0 0
LINE
 8
TOOL_0
 5
429
 10
1.8493
 20
0.2162
 30
0
 11
1.8558
 21
0.2166
 31
0
 0 0
LINE
 8
TOOL_0
 5
42A
 10
1.8558
 20
0.2166
 30
0
 11
1.859
 21
0.2173
 31
0
 0 0
LINE
 8
TOOL_0
 5
42B
 10
1.859
 20
0.2173
 30
0
 11
1.8617
 21
0.2181
 31
0
 0 0
LINE
 8
TOOL_0
 5
42C
 10
1.8617
 20
0.2181
 30
0
 11
1.8646
 21
0.2193
 31
0
 0 0
LINE
 8
TOOL_0
 5
42D
 10
1.8646
 20
0.2193
 30
0
 11
1.8664
 21
0.2205
 31
0
 0 0
LINE
 8
TOOL_0
 5
42E
 10
1.8664
 20
0.2205
 30
0
 11
1.8675
 21
0.2216
 31
0
 0 0
LINE
 8
TOOL_0
 5
42F
 10
1.8675
 20
0.2216
 30
0
 11
1.8692
 21
0.2238
 31
0
 0 0
LINE
 8
TOOL_0
 5
430
 10
1.8692
 20
0.2238
 30
0
 11
1.8711
 21
0.2262
 31
0
 0 0
LINE
 8
TOOL_0
 5
431
 10
1.8711
 20
0.2262
 30
0
 11
1.8721
 21
0.2277
 31
0
 0 0
LINE
 8
TOOL_0
 5
432
 10
1.8721
 20
0.2277
 30
0
 11
1.873
 21
0.23
 31
0
 0 0
LINE
 8
TOOL_0
 5
433
 10
1.873
 20
0.23
 30
0
 11
1.8742
 21
0.2341
 31
0
 0 0
LINE
 8
TOOL_0
 5
434
 10
1.8742
 20
0.2341
 30
0
 11
1.8761
 21
0.2416
 31
0
 0 0
LINE
 8
TOOL_0
 5
435
 10
1.8761
 20
0.2416
 30
0
 11
1.8768
 21
0.246
 31
0
 0 0
LINE
 8
TOOL_0
 5
436
 10
1.8768
 20
0.246
 30
0
 11
1.8776
 21
0.2527
 31
0
 0 0
LINE
 8
TOOL_0
 5
437
 10
1.8776
 20
0.2527
 30
0
 11
1.8789
 21
0.2678
 31
0
 0 0
LINE
 8
TOOL_0
 5
438
 10
1.8789
 20
0.2678
 30
0
 11
1.8798
 21
0.2833
 31
0
 0 0
LINE
 8
TOOL_0
 5
439
 10
1.8798
 20
0.2833
 30
0
 11
1.8806
 21
0.3077
 31
0
 0 0
LINE
 8
TOOL_0
 5
43A
 10
1.8806
 20
0.3077
 30
0
 11
1.8812
 21
0.333
 31
0
 0 0
LINE
 8
TOOL_0
 5
43B
 10
1.8812
 20
0.333
 30
0
 11
1.8822
 21
0.3525
 31
0
 0 0
LINE
 8
TOOL_0
 5
43C
 10
1.8822
 20
0.3525
 30
0
 11
1.9261
 21
0.3525
 31
0
 0 0
LINE
 8
TOOL_0
 5
43D
 10
1.9261
 20
0.3525
 30
0
 11
1.9859
 21
0.6138
 31
0
 0 0
LINE
 8
TOOL_0
 5
43E
 10
1.9859
 20
0.6138
 30
0
 11
1.9859
 21
0.535
 31
0
 0 0
LINE
 8
TOOL_0
 5
43F
 10
1.9859
 20
0.535
 30
0
 11
1.9859
 21
0.4563
 31
0
 0 0
LINE
 8
TOOL_0
 5
440
 10
1.9859
 20
0.4563
 30
0
 11
1.9859
 21
0.4484
 31
0
 0 0
LINE
 8
TOOL_0
 5
441
 10
1.9859
 20
0.4484
 30
0
 11
1.9844
 21
0.4484
 31
0
 0 0
LINE
 8
TOOL_0
 5
442
 10
1.9844
 20
0.4484
 30
0
 11
1.9859
 21
0.4484
 31
0
 0 0
LINE
 8
TOOL_0
 5
443
 10
1.9859
 20
0.4484
 30
0
 11
1.9859
 21
0.3697
 31
0
 0 0
LINE
 8
TOOL_0
 5
444
 10
1.9859
 20
0.3697
 30
0
 11
1.9859
 21
0.3067
 31
0
 0 0
LINE
 8
TOOL_0
 5
445
 10
1.9859
 20
0.3067
 30
0
 11
1.9844
 21
0.3067
 31
0
 0 0
LINE
 8
TOOL_0
 5
446
 10
1.9844
 20
0.3067
 30
0
 11
1.9859
 21
0.3067
 31
0
 0 0
LINE
 8
TOOL_0
 5
447
 10
1.9859
 20
0.3067
 30
0
 11
1.9859
 21
0.2279
 31
0
 0 0
LINE
 8
TOOL_0
 5
448
 10
1.9859
 20
0.2279
 30
0
 11
1.9859
 21
0.1492
 31
0
 0 0
LINE
 8
TOOL_0
 5
449
 10
1.9859
 20
0.1492
 30
0
 11
1.9859
 21
0.1413
 31
0
 0 0
LINE
 8
TOOL_0
 5
44A
 10
1.9859
 20
0.1413
 30
0
 11
1.9733
 21
0.1413
 31
0
 0 0
LINE
 8
TOOL_0
 5
44B
 10
1.9733
 20
0.1413
 30
0
 11
1.9733
 21
0.2201
 31
0
 0 0
LINE
 8
TOOL_0
 5
44C
 10
1.9733
 20
0.2201
 30
0
 11
1.9733
 21
0.2988
 31
0
 0 0
LINE
 8
TOOL_0
 5
44D
 10
1.9733
 20
0.2988
 30
0
 11
1.9733
 21
0.3067
 31
0
 0 0
LINE
 8
TOOL_0
 5
44E
 10
1.9733
 20
0.3067
 30
0
 11
1.9749
 21
0.3067
 31
0
 0 0
LINE
 8
TOOL_0
 5
44F
 10
1.9749
 20
0.3067
 30
0
 11
1.9733
 21
0.3067
 31
0
 0 0
LINE
 8
TOOL_0
 5
450
 10
1.9733
 20
0.3067
 30
0
 11
1.9733
 21
0.3854
 31
0
 0 0
LINE
 8
TOOL_0
 5
451
 10
1.9733
 20
0.3854
 30
0
 11
1.9733
 21
0.4484
 31
0
 0 0
LINE
 8
TOOL_0
 5
452
 10
1.9733
 20
0.4484
 30
0
 11
1.9749
 21
0.4484
 31
0
 0 0
LINE
 8
TOOL_0
 5
453
 10
1.9749
 20
0.4484
 30
0
 11
1.9733
 21
0.4484
 31
0
 0 0
LINE
 8
TOOL_0
 5
454
 10
1.9733
 20
0.4484
 30
0
 11
1.9733
 21
0.5271
 31
0
 0 0
LINE
 8
TOOL_0
 5
455
 10
1.9733
 20
0.5271
 30
0
 11
1.9733
 21
0.6059
 31
0
 0 0
LINE
 8
TOOL_0
 5
456
 10
1.9733
 20
0.6059
 30
0
 11
1.9733
 21
0.6138
 31
0
 0 0
LINE
 8
TOOL_0
 5
457
 10
1.9733
 20
0.6138
 30
0
 11
1.9859
 21
0.6138
 31
0
 0 0
LINE
 8
TOOL_0
 5
458
 10
1.9859
 20
0.6138
 30
0
 11
1.9859
 21
0.6138
 31
0
 0 0
ENDSEC
 0
EOF